<svg xmlns="http://www.w3.org/2000/svg" width="110" height="110" viewBox="0 0 110 110" fill="none"><g clip-path="url(#clip0_677_1568)"><path d="M91.7383 0H18.2617C8.17605 0 0 8.37227 0 18.7V91.124C0 101.452 8.17605 109.824 18.2617 109.824H91.7383C101.824 109.824 110 101.452 110 91.124V18.7C110 8.37227 101.824 0 91.7383 0Z" fill="#330000"></path><path d="M53.3042 65.9076H36.2585L32.7901 76.9397C32.7429 77.141 32.6286 77.319 32.467 77.4432C32.3053 77.5674 32.1064 77.6299 31.9045 77.62H23.2708C22.7788 77.62 22.6065 77.3428 22.7543 76.7884L37.5128 33.2644C37.6602 32.8112 37.808 32.2951 37.9554 31.7156C38.1487 30.7072 38.2476 29.6828 38.2506 28.6554C38.2405 28.5836 38.247 28.5103 38.2694 28.4414C38.2917 28.3725 38.3295 28.3099 38.3796 28.2586C38.4297 28.2072 38.4908 28.1685 38.5581 28.1455C38.6253 28.1225 38.6969 28.1159 38.7671 28.1261H50.5001C50.8438 28.1261 51.0406 28.2524 51.0905 28.5045L67.841 76.864C67.9888 77.3683 67.841 77.6204 67.3984 77.62H57.8052C57.6405 77.6387 57.4747 77.5953 57.3389 77.498C57.2032 77.4006 57.1066 77.256 57.0674 77.0911L53.3042 65.9076ZM38.9149 56.3869H50.574L50.4077 55.825L50.1409 54.9353L49.9505 54.3105L49.6467 53.3267L49.0009 51.2556L48.4329 49.4195L46.9578 44.6367C46.5906 43.4477 46.2382 42.2541 45.9007 41.056L45.6309 40.0836L45.3155 38.9338L44.8342 37.1518L44.744 36.8161H44.6705C44.3013 38.6299 43.8517 40.4255 43.323 42.1973L42.2282 45.8036L41.6258 47.7959L41.0178 49.8128C40.9078 50.1772 40.7986 50.5375 40.689 50.8935L40.3625 51.9486L40.0376 52.9791L39.7145 53.984L39.3931 54.9639C39.2865 55.2864 39.18 55.6046 39.0738 55.9187L38.9149 56.3869ZM77.802 36.1359C77.0494 36.1668 76.2989 36.0348 75.5995 35.7483C74.9002 35.4619 74.2678 35.0275 73.7436 34.4736C73.2209 33.8956 72.8148 33.2176 72.5488 32.4784C72.2829 31.7392 72.1622 30.9535 72.1937 30.1664C72.167 29.3872 72.301 28.611 72.5871 27.8885C72.8732 27.1659 73.3049 26.5133 73.854 25.9732C74.9132 24.932 76.3239 24.3493 77.7921 24.3465L77.9494 24.3483C79.7206 24.3483 81.1106 24.8895 82.1191 25.9728C82.6281 26.5356 83.0237 27.1957 83.2832 27.9153C83.5427 28.6349 83.6611 29.3999 83.6316 30.1664C83.6625 30.9566 83.538 31.7452 83.2655 32.4852C82.993 33.2251 82.578 33.9015 82.0452 34.474C81.5072 35.017 80.8687 35.4442 80.167 35.7306C79.4654 36.017 78.7149 36.1567 77.9597 36.1416L77.802 36.1359ZM72.7102 76.864V40.7453C72.7102 40.2921 72.9062 40.0651 73.3006 40.0651H82.3773C82.7705 40.0651 82.9673 40.2917 82.9677 40.7453V76.864C82.9677 77.3683 82.7709 77.6204 82.3773 77.62H73.3745C72.9551 77.62 72.7343 77.3938 72.7124 76.9415L72.7102 76.864Z" fill="#FF9A00"></path></g><defs><clipPath id="clip0_677_1568"><rect width="110" height="110" fill="white"></rect></clipPath></defs></svg>