<svg xmlns="http://www.w3.org/2000/svg" width="110" height="110" viewBox="0 0 110 110" fill="none"><rect width="110" height="110" rx="21" fill="#1A1D23"></rect><g clip-path="url(#clip0_688_481)"><path d="M40.9609 97.9688C48.7881 97.9688 55.1406 91.6162 55.1406 83.7891V69.6094H40.9609C33.1337 69.6094 26.7812 75.9619 26.7812 83.7891C26.7812 91.6162 33.1337 97.9688 40.9609 97.9688Z" fill="#0ACF83"></path><path d="M26.7812 55.4297C26.7812 47.6025 33.1337 41.25 40.9609 41.25H55.1406V69.6094H40.9609C33.1337 69.6094 26.7812 63.2569 26.7812 55.4297Z" fill="#A259FF"></path><path d="M26.7812 27.0703C26.7812 19.2431 33.1337 12.8906 40.9609 12.8906H55.1406V41.25H40.9609C33.1337 41.25 26.7812 34.8975 26.7812 27.0703Z" fill="#F24E1E"></path><path d="M55.1406 12.8906H69.3203C77.1475 12.8906 83.5 19.2431 83.5 27.0703C83.5 34.8975 77.1475 41.25 69.3203 41.25H55.1406V12.8906Z" fill="#FF7262"></path><path d="M83.5 55.4297C83.5 63.2569 77.1475 69.6094 69.3203 69.6094C61.4931 69.6094 55.1406 63.2569 55.1406 55.4297C55.1406 47.6025 61.4931 41.25 69.3203 41.25C77.1475 41.25 83.5 47.6025 83.5 55.4297Z" fill="#1ABCFE"></path></g><defs><clipPath id="clip0_688_481"><rect width="56.7188" height="85.0781" fill="white" transform="translate(26.7812 12.8906)"></rect></clipPath></defs></svg>