<svg xmlns="http://www.w3.org/2000/svg" width="38" height="38" viewBox="0 0 38 38" fill="none"><path d="M3.45664 1.26914C2.99648 1.38047 2.32109 1.77383 1.99453 2.13008C1.83125 2.3082 1.58633 2.6793 1.46016 2.95391L1.22266 3.45118V19.0074V34.5563L1.49727 35.1203C1.83125 35.7957 2.26172 36.2113 2.95195 36.5379L3.44922 36.7754H12.4668H21.4844L21.9816 36.5379C22.6719 36.2113 23.1023 35.7957 23.4363 35.1203L23.7109 34.5563L23.7332 31.491L23.7555 28.4184L23.5328 28.2031C23.2582 27.9211 23.0504 27.9211 22.7758 28.1957L22.5605 28.4109V31.2535C22.5605 33.2574 22.5309 34.1777 22.4715 34.393C22.3527 34.8012 21.7367 35.4172 21.3285 35.5359C20.8832 35.6621 4.05039 35.6621 3.60508 35.5359C3.19687 35.4172 2.58086 34.8012 2.46211 34.393C2.32852 33.9477 2.32852 4.05235 2.46211 3.60703C2.52148 3.41407 2.69219 3.16172 2.92969 2.93164C3.15977 2.69414 3.41211 2.52344 3.60508 2.46407C3.83516 2.39727 5.9207 2.375 12.259 2.375C20.5418 2.375 20.6012 2.375 20.7645 2.22657C21.0613 1.94453 21.0391 1.53633 20.7125 1.28399C20.5641 1.17266 3.92422 1.15781 3.45664 1.26914Z" fill="white"></path><path d="M22.3811 1.87036C22.2253 2.01138 22.1362 2.24887 21.921 3.11723C21.5721 4.52739 21.1862 5.5813 20.5182 6.9395C19.3307 9.35903 17.6756 11.4668 15.7608 12.9883C14.8924 13.6786 14.5585 13.8938 11.7604 15.5118C10.3354 16.3356 9.11822 17.0629 9.07369 17.1297C9.02174 17.1965 8.97721 17.3747 8.97721 17.5231C8.97721 17.7829 8.94752 17.82 8.50963 18.0797C6.58736 19.245 5.91197 21.6422 6.95104 23.6165C7.61158 24.8707 8.91041 25.7094 10.3503 25.8059C11.1073 25.8579 11.7827 25.702 12.562 25.3086C13.1186 25.0266 13.1483 25.0192 13.3264 25.1305C13.4526 25.2196 13.601 25.2418 13.8014 25.2122L14.1057 25.175L15.8573 27.2606C16.8147 28.411 17.6608 29.3981 17.7202 29.45C17.9948 29.6653 18.2768 29.554 19.9987 28.552C21.7948 27.5204 21.9729 27.3645 21.8393 26.986C21.8096 26.8895 21.0006 25.8801 20.0432 24.7446C18.4401 22.8297 18.3214 22.6739 18.4475 22.5848C18.7889 22.3325 20.4589 21.5754 21.3569 21.2711C23.2495 20.6254 24.8378 20.3805 27.0866 20.3805C29.1944 20.3805 30.7159 20.6032 32.5194 21.1524C32.9128 21.2786 33.321 21.375 33.4323 21.375C33.7143 21.375 34.0186 21.0485 33.9667 20.7961C33.9444 20.6848 33.1206 19.193 32.1335 17.486C30.5452 14.7176 30.3671 14.3614 30.4784 14.2946C30.8569 14.0868 31.4878 13.3668 31.7327 12.8696C32.4155 11.4965 32.178 9.93794 31.1241 8.82466C30.1296 7.78559 28.6007 7.45161 27.2796 7.97856C27.0049 8.08989 26.7674 8.16411 26.76 8.14927C26.7526 8.14184 25.9288 6.71684 24.9342 4.99497C23.1604 1.92231 23.012 1.70708 22.6706 1.70708C22.6112 1.70708 22.485 1.7813 22.3811 1.87036ZM27.235 11.2813C29.5284 15.2594 31.5768 18.7997 31.7772 19.1411C31.9776 19.4825 32.126 19.7719 32.1112 19.7868C32.0964 19.809 31.7995 19.7571 31.4581 19.6754C27.4874 18.7625 23.0417 19.1411 19.5682 20.6997L19.071 20.9223L18.9671 20.759C18.9077 20.67 18.121 19.2895 17.2155 17.7012C16.31 16.1055 15.553 14.7844 15.5381 14.7547C15.5233 14.7325 15.8499 14.443 16.2655 14.1165C17.3194 13.3 18.0913 12.5727 18.9003 11.6227C20.5628 9.67817 21.9803 7.12505 22.7077 4.76489C22.8487 4.31215 22.9897 3.96333 23.012 3.99302C23.0417 4.0227 24.9417 7.30317 27.235 11.2813ZM29.5507 9.1438C30.0479 9.37387 30.4339 9.75239 30.701 10.2645C30.8643 10.5836 30.9014 10.7469 30.9014 11.2442C30.9089 11.734 30.8717 11.9122 30.7085 12.261C30.5229 12.6692 29.9737 13.2852 29.803 13.2852C29.7585 13.2852 29.1944 12.3723 28.5561 11.259L27.3909 9.24028L27.5913 9.13637C28.1257 8.85434 28.9198 8.86176 29.5507 9.1438ZM16.2358 18.4063C17.1858 20.054 17.9503 21.4418 17.928 21.4864C17.9131 21.5235 17.5198 21.7758 17.0596 22.0356C16.5921 22.3028 15.7014 22.8149 15.078 23.1786C14.3655 23.5942 13.9128 23.8168 13.8682 23.7723C13.7272 23.6313 10.3874 17.7829 10.4096 17.7086C10.4393 17.6122 14.3432 15.3633 14.4323 15.393C14.4694 15.4004 15.2784 16.7586 16.2358 18.4063ZM11.085 21.3676C11.8866 22.7555 12.5397 23.9059 12.5397 23.9282C12.5397 24.0172 11.6936 24.4254 11.2706 24.5368C9.97174 24.8707 8.52447 24.1805 7.91588 22.9411C7.69322 22.4809 7.67838 22.3993 7.67838 21.6719C7.67838 20.9817 7.70065 20.8407 7.87877 20.4696C8.12369 19.9426 8.66549 19.3489 9.16276 19.0668C9.37057 18.9481 9.55612 18.8516 9.5858 18.8516C9.60807 18.8516 10.2835 19.9872 11.085 21.3676ZM18.9151 25.2493C19.6944 26.177 20.3327 26.9563 20.3327 26.9711C20.3327 27.0082 18.2917 28.2032 18.2249 28.2032C18.1729 28.2032 15.1151 24.559 15.1522 24.5293C15.1596 24.5145 15.6421 24.2325 16.2135 23.9059C17.1932 23.3418 17.2526 23.3122 17.3714 23.4383C17.4381 23.5051 18.1284 24.3215 18.9151 25.2493Z" fill="white"></path><path d="M30.2664 3.31016C30.1254 3.38438 30.0363 3.51797 29.977 3.7332C29.6207 5.06914 29.3906 6.0043 29.3906 6.16758C29.3906 6.41992 29.6801 6.67969 29.9621 6.67969C30.3926 6.67969 30.4816 6.52383 30.8379 5.13594C31.0234 4.42344 31.1719 3.8 31.1719 3.7332C31.1719 3.57734 30.7637 3.19141 30.6004 3.19141C30.5262 3.19883 30.3777 3.24336 30.2664 3.31016Z" fill="white"></path><path d="M4.74941 3.65894C4.38574 3.77769 3.7623 4.41597 3.65098 4.79448C3.51738 5.23979 3.51738 32.7601 3.65098 33.2054C3.76973 33.6136 4.38574 34.2296 4.79395 34.3484C5.02402 34.4152 6.90176 34.4375 12.483 34.4375C20.8549 34.4375 20.3131 34.4746 20.8771 33.8437C21.0553 33.6507 21.2408 33.3539 21.2854 33.1906C21.3447 33.0125 21.3744 32.3519 21.3744 31.4539C21.3744 30.1031 21.367 29.9918 21.2186 29.8062C21.0998 29.6578 21.0033 29.6132 20.7807 29.6132C20.558 29.6132 20.4615 29.6578 20.3428 29.8062C20.1943 29.9918 20.1869 30.1031 20.1869 31.4464C20.1869 32.8789 20.1869 32.8863 20.0014 33.0644L19.8232 33.25H12.4682H5.11309L4.93496 33.0644L4.74941 32.8863V19V5.11362L4.93496 4.9355C5.10566 4.75737 5.1502 4.74995 6.12246 4.74995H7.12441V5.16558C7.12441 5.39565 7.16152 5.72222 7.21348 5.89292C7.33223 6.30112 7.94824 6.91714 8.35644 7.03589C8.5791 7.10268 9.82598 7.12495 13.0768 7.12495C18.1236 7.12495 17.9529 7.13979 18.5021 6.5312C18.8658 6.123 18.9994 5.76675 18.9994 5.16558V4.74995H19.4818C19.9049 4.74995 19.9939 4.72768 20.1498 4.5644C20.3947 4.3269 20.3947 3.9855 20.1498 3.748C19.9791 3.56987 19.9271 3.56245 19.0736 3.56245C18.2201 3.56245 18.1682 3.56987 17.9975 3.748C17.8193 3.9187 17.8119 3.97808 17.8119 4.74995C17.8119 5.52182 17.8045 5.5812 17.6264 5.7519L17.4482 5.93745H13.0619H8.67559L8.49746 5.7519C8.31934 5.5812 8.31191 5.52182 8.31191 4.74995C8.31191 3.97808 8.30449 3.9187 8.12637 3.748C7.94824 3.56245 7.94082 3.56245 6.47871 3.56987C5.64004 3.5773 4.89785 3.6144 4.74941 3.65894Z" fill="white"></path><path d="M33.9883 7.45898C32.8898 8.08984 32.5781 8.34961 32.5781 8.6168C32.5781 8.82461 32.9715 9.20312 33.1867 9.20312C33.3871 9.20312 35.5172 8.00078 35.7176 7.77812C36.0145 7.43672 35.725 6.8207 35.2723 6.83555C35.1535 6.83555 34.6117 7.10273 33.9883 7.45898Z" fill="white"></path><path d="M33.4098 12.1496C33.254 12.2089 33.0907 12.6023 33.1427 12.7953C33.1649 12.8992 33.2466 13.0328 33.3208 13.0996C33.5137 13.2777 35.8962 13.8937 36.1856 13.8417C36.5419 13.7824 36.6977 13.5449 36.668 13.1292C36.6458 12.8546 36.4454 12.7656 35.1614 12.4316C33.8923 12.1125 33.6177 12.0679 33.4098 12.1496Z" fill="white"></path><path d="M22.7184 22.236C22.5699 22.4215 22.5625 22.5254 22.5625 24.1731V25.9098L22.748 26.0879C22.9855 26.3328 23.327 26.3328 23.5645 26.0879L23.75 25.9098V24.1731C23.75 22.5254 23.7426 22.4215 23.5941 22.236C23.4754 22.0875 23.3789 22.043 23.1562 22.043C22.9336 22.043 22.8371 22.0875 22.7184 22.236Z" fill="white"></path></svg>