<svg xmlns="http://www.w3.org/2000/svg" width="150" height="150" viewBox="0 0 150 150" fill="none"><path d="M71.105 8.32031C67.9995 9.60938 66.2124 11.4844 65.0112 14.6191C64.5132 15.9961 64.4253 16.6992 64.5132 18.8965L64.6597 21.5332L49.4253 30.3223C41.0757 35.1562 34.0151 39.1699 33.7808 39.1992C33.5464 39.2578 32.9897 38.9941 32.5796 38.6133C29.6499 35.9766 24.9624 35.3027 21.3296 37.0312C19.3374 37.9688 17.1987 40.1074 16.2026 42.1582C15.0894 44.3848 14.9136 47.8125 15.7925 50.127C16.9936 53.291 19.103 55.4297 22.0327 56.4844L23.439 56.9824V75V93.0176L22.0327 93.5156C19.103 94.5703 16.9936 96.709 15.7925 99.873C14.9136 102.188 15.0894 105.615 16.2026 107.842C19.1616 113.906 26.7788 115.811 32.0522 111.855C32.8726 111.24 33.6929 110.771 33.8686 110.801C34.0737 110.859 41.0464 114.844 49.396 119.648L64.6011 128.438V131.514C64.6011 134.268 64.689 134.824 65.3921 136.289C66.3882 138.428 68.4097 140.449 70.5483 141.445C71.9839 142.119 72.5991 142.236 75.0015 142.236C77.4038 142.236 78.019 142.119 79.4546 141.445C81.5933 140.449 83.6147 138.428 84.6108 136.289C85.314 134.824 85.4018 134.268 85.4018 131.514V128.438L100.607 119.648C108.957 114.844 115.988 110.83 116.222 110.801C116.457 110.742 117.013 111.006 117.423 111.387C118.654 112.5 119.591 112.998 121.466 113.555C127.736 115.371 134.269 110.742 134.708 104.18C135.001 99.3457 132.306 95.0684 127.97 93.5156L126.564 93.0176V75V56.9824L128.029 56.4551C130.343 55.6348 132.394 53.7598 133.595 51.416C134.562 49.541 134.621 49.248 134.621 46.6113C134.621 44.1504 134.533 43.5938 133.83 42.1875C130.841 36.0938 123.253 34.1602 117.951 38.1445C117.13 38.7598 116.31 39.2285 116.134 39.1992C115.958 39.1406 108.957 35.1562 100.607 30.3516L85.4018 21.5625V18.4863C85.4018 15.7324 85.314 15.1758 84.6108 13.7109C83.6147 11.5723 81.5933 9.55078 79.4546 8.55469C77.0229 7.41211 73.478 7.32422 71.105 8.32031ZM77.2866 12.4805C81.3882 14.1797 82.4136 19.3066 79.2788 22.4414C76.9643 24.7852 73.4487 24.9316 70.9878 22.7637C67.6186 19.8047 68.4097 14.4727 72.5112 12.5684C73.9468 11.8945 75.8218 11.8652 77.2866 12.4805ZM100.226 35.2734L113.82 43.1543V46.6699V50.1562L107.521 53.7891C104.064 55.7812 101.164 57.4219 101.046 57.4219C100.929 57.4219 100.285 56.6895 99.6108 55.8105C96.1245 51.2988 90.7046 47.5195 84.8159 45.498C83.1167 44.9414 78.5757 43.9453 77.6089 43.9453C77.4624 43.9453 77.3452 40.4883 77.3452 36.2402V28.5645L78.7808 28.0371C79.5425 27.7734 80.7729 27.0117 81.4761 26.3965L82.7651 25.2539L84.6987 26.3086C85.7534 26.9238 92.7554 30.9375 100.226 35.2734ZM68.2632 26.3672C68.8784 26.8652 70.1089 27.5977 71.0171 28.0078L72.6577 28.7402V36.3281V43.916L71.2808 44.0918C62.814 45.2344 55.2847 49.541 49.9233 56.3672C49.103 57.4219 48.9858 57.4805 48.312 57.1289C47.9311 56.9238 45.0015 55.2539 41.8081 53.4082L36.0366 50.0391L36.2124 47.8125C36.3296 46.5234 36.271 45.0879 36.0952 44.4727L35.8022 43.3887L42.2768 39.668C45.8511 37.6172 52.853 33.5742 57.8628 30.7031C62.8433 27.832 66.9741 25.4883 67.0327 25.4883C67.0913 25.4883 67.6479 25.8984 68.2632 26.3672ZM29.2104 41.3672C30.7339 42.3633 31.9351 44.707 31.9351 46.5527C31.9058 49.3359 29.9429 51.7969 27.2183 52.4414C23.3218 53.3789 19.6011 50.3613 19.6304 46.3184C19.6597 44.2676 21.3296 41.7188 23.2925 40.8105C24.7573 40.166 27.8042 40.4297 29.2104 41.3672ZM125.919 40.7812C128.292 41.3672 130.373 44.0918 130.373 46.6113C130.373 49.8926 127.501 52.7051 124.191 52.7344C120.558 52.7344 117.775 49.6582 118.126 45.9961C118.361 43.5645 119.884 41.748 122.404 40.8398C123.781 40.3418 124.22 40.3418 125.919 40.7812ZM76.8765 49.1895C78.019 50.2441 78.8393 51.5918 79.894 54.1992C80.6851 56.1035 82.3257 62.0215 82.3257 62.959C82.3257 63.1934 80.187 63.2812 75.0015 63.2812C69.0542 63.2812 67.6772 63.1934 67.6772 62.8711C67.6772 61.9336 69.2886 56.2207 70.1089 54.1992C71.1636 51.5918 71.9839 50.2148 73.1265 49.1895C74.5913 47.8418 75.4116 47.8418 76.8765 49.1895ZM66.5347 51.2109C65.48 53.3203 64.3081 57.0703 63.6343 60.498L63.1069 63.1348L57.189 63.2227C52.355 63.2812 51.271 63.2227 51.271 62.9004C51.271 62.1094 53.7319 58.7109 55.9292 56.4551C57.1597 55.1953 59.064 53.5547 60.1772 52.8223C62.1108 51.5039 66.271 49.5117 67.0327 49.5117C67.2671 49.5117 67.0913 50.0977 66.5347 51.2109ZM85.4311 50.4199C88.4194 51.6797 91.4956 53.7305 93.8101 56.0449C95.7729 58.0078 98.7319 62.1094 98.7319 62.8711C98.7319 63.2227 97.7944 63.2812 92.8433 63.2227L86.9253 63.1348L86.2515 60.0586C85.4311 56.4844 84.6108 53.877 83.4683 51.3281C83.0288 50.332 82.7944 49.5117 82.9409 49.5117C83.1167 49.5117 84.23 49.9219 85.4311 50.4199ZM40.4897 57.6855L46.7593 61.3184L45.7925 63.8965C44.1226 68.3496 43.8296 69.9902 43.8296 75C43.8296 80.0098 44.1226 81.6504 45.7925 86.1035L46.7593 88.6816L40.4897 92.3145C37.0327 94.3066 34.103 95.9766 33.9858 96.0352C33.8393 96.0938 32.8726 95.5371 31.8472 94.834C30.7925 94.1016 29.5327 93.4277 29.0347 93.3105L28.1265 93.1055V74.9707C28.1265 58.8867 28.1851 56.8359 28.5659 56.8359C29.2104 56.8359 31.6128 55.5469 32.6675 54.668C33.1655 54.2578 33.6929 53.9355 33.8686 53.9941C34.0444 54.0234 37.0327 55.6934 40.4897 57.6855ZM118.185 55.1953C119.24 55.8984 120.47 56.5723 120.968 56.6895L121.876 56.8945V75V93.1055L120.968 93.3105C120.47 93.4277 119.21 94.1016 118.156 94.834C117.13 95.5371 116.164 96.0938 116.017 96.0352C115.9 95.9766 112.97 94.3066 109.513 92.3145L103.244 88.6816L104.21 86.0742C105.734 82.0312 106.203 79.4824 106.203 75C106.203 70.5176 105.734 67.9688 104.21 63.9258L103.244 61.3184L109.542 57.627C113.029 55.6055 115.958 53.9355 116.076 53.9355C116.193 53.9062 117.16 54.4922 118.185 55.1953ZM62.3745 75V82.3242H55.812H49.2495L48.9565 81.2109C47.9897 77.6367 47.9897 72.334 48.9272 68.8477L49.2495 67.6758H55.812H62.3745V75ZM83.0288 68.584C83.2632 69.7852 83.2632 79.2188 83.0288 80.9766L82.8237 82.3242H75.0015H67.1792L66.9741 81.416C66.7397 80.2148 66.7397 70.7812 66.9741 69.0234L67.1792 67.6758H75.0015H82.853L83.0288 68.584ZM101.046 68.7598C101.955 72.1582 101.984 77.8125 101.076 81.123L100.753 82.3242H94.1909H87.6284V75V67.6758H94.1909H100.753L101.046 68.7598ZM63.7515 89.9414C64.5718 93.5156 65.3921 96.123 66.5347 98.6426C67.0327 99.8145 67.2085 100.488 67.0034 100.488C66.271 100.488 62.0815 98.4668 60.1772 97.1777C59.064 96.4453 57.1597 94.8047 55.9292 93.5449C53.7319 91.2891 51.271 87.8906 51.271 87.0996C51.271 86.7773 52.355 86.7188 57.1597 86.7773L63.0776 86.8652L63.7515 89.9414ZM82.3257 87.0703C82.3257 88.3887 80.3628 94.8633 79.2788 97.0898C76.144 103.682 73.1558 103.242 70.1089 95.8008C69.2886 93.7793 67.6772 88.0664 67.6772 87.1289C67.6772 86.8066 69.0542 86.7188 75.0015 86.7188C80.6558 86.7188 82.3257 86.8066 82.3257 87.0703ZM98.7319 87.0996C98.7319 87.8906 96.271 91.2891 94.0737 93.5449C92.8433 94.8047 90.939 96.4453 89.8257 97.1777C87.8921 98.4961 83.7319 100.488 82.9702 100.488C82.7358 100.488 82.9116 99.9023 83.4683 98.7891C84.5229 96.6797 85.6655 93.1055 86.2808 89.9121C86.5444 88.5645 86.8081 87.2754 86.8667 87.0703C87.0425 86.543 98.7319 86.543 98.7319 87.0996ZM50.3921 94.1895C53.8784 98.7012 59.2983 102.48 65.187 104.502C66.8862 105.059 71.4272 106.055 72.394 106.055C72.5405 106.055 72.6577 109.512 72.6577 113.76V121.436L71.2515 121.963C70.4604 122.227 69.23 122.988 68.4976 123.604L67.1792 124.775L51.5347 115.723C41.5737 109.951 35.9487 106.494 36.0366 106.289C36.0952 106.084 36.1831 104.561 36.1831 102.891V99.873L42.4819 96.2109C45.939 94.2188 48.8394 92.5781 48.9565 92.5781C49.0737 92.5781 49.7183 93.3105 50.3921 94.1895ZM107.755 96.4746L114.201 100.225L113.908 101.309C113.732 101.924 113.673 103.359 113.791 104.648L113.966 106.904L99.1128 115.371C90.9097 120.029 83.937 123.984 83.5561 124.189C82.9702 124.512 82.7358 124.424 81.7397 123.633C81.1245 123.135 79.894 122.402 78.9858 121.992L77.3452 121.26V113.701V106.143L79.2495 105.938C83.5561 105.498 89.2983 103.213 93.1069 100.459C95.4214 98.7598 98.7026 95.5957 99.9917 93.8086C100.49 93.1348 100.988 92.6074 101.076 92.6367C101.193 92.6953 104.181 94.4238 107.755 96.4746ZM29.269 98.2617C31.0269 99.4922 32.0815 101.748 31.8472 103.887C31.3198 109.072 25.1968 111.328 21.564 107.725C18.4292 104.59 19.2788 99.7266 23.2925 97.793C25.0503 96.9727 27.687 97.1777 29.269 98.2617ZM126.71 97.8223C128.82 98.7598 130.373 101.133 130.373 103.389C130.373 104.824 129.611 106.523 128.439 107.695C124.689 111.475 118.068 108.75 118.068 103.418C118.068 101.045 119.621 98.6133 121.73 97.6758C122.99 97.1191 125.333 97.1777 126.71 97.8223ZM76.8472 126.006C80.187 126.914 82.0913 131.104 80.5972 134.326C78.81 138.193 73.8882 139.189 70.7827 136.289C66.0952 131.895 70.5776 124.248 76.8472 126.006Z" fill="#0E8BFF"></path></svg>