<svg xmlns="http://www.w3.org/2000/svg" width="100" height="100" viewBox="0 0 100 100" fill="none"><rect width="100" height="100" rx="16" fill="#FB8D00"></rect><rect x="7.05469" y="7.05566" width="85.8889" height="85.8889" rx="9.5" stroke="white" stroke-width="3"></rect><path d="M42.08 59.448C39.2853 59.448 37.088 58.392 35.488 56.28C33.9093 54.1467 33.12 51.32 33.12 47.8C33.12 44.28 33.9093 41.464 35.488 39.352C37.088 37.2187 39.2853 36.152 42.08 36.152C44.896 36.152 47.0933 37.2187 48.672 39.352C50.2507 41.464 51.04 44.28 51.04 47.8C51.04 51.32 50.2507 54.1467 48.672 56.28C47.0933 58.392 44.896 59.448 42.08 59.448ZM38.688 53.272C39.456 54.5093 40.5867 55.128 42.08 55.128C43.5733 55.128 44.704 54.4987 45.472 53.24C46.2613 51.9813 46.656 50.168 46.656 47.8C46.656 45.4107 46.2613 43.5867 45.472 42.328C44.704 41.0693 43.5733 40.44 42.08 40.44C40.5867 40.44 39.456 41.0693 38.688 42.328C37.92 43.5867 37.536 45.4107 37.536 47.8C37.536 50.1893 37.92 52.0133 38.688 53.272ZM51.9473 36.6H66.4113V40.344L58.8273 59H54.1553L61.5153 40.824H51.9473V36.6Z" fill="white"></path></svg>