<svg xmlns="http://www.w3.org/2000/svg" width="100" height="100" viewBox="0 0 100 100" fill="none"><rect width="100" height="100" rx="16" fill="#FB8D00"></rect><rect x="7.05469" y="7.05566" width="85.8889" height="85.8889" rx="9.5" stroke="white" stroke-width="3"></rect><path d="M41.08 59.448C38.2853 59.448 36.088 58.392 34.488 56.28C32.9093 54.1467 32.12 51.32 32.12 47.8C32.12 44.28 32.9093 41.464 34.488 39.352C36.088 37.2187 38.2853 36.152 41.08 36.152C43.896 36.152 46.0933 37.2187 47.672 39.352C49.2507 41.464 50.04 44.28 50.04 47.8C50.04 51.32 49.2507 54.1467 47.672 56.28C46.0933 58.392 43.896 59.448 41.08 59.448ZM37.688 53.272C38.456 54.5093 39.5867 55.128 41.08 55.128C42.5733 55.128 43.704 54.4987 44.472 53.24C45.2613 51.9813 45.656 50.168 45.656 47.8C45.656 45.4107 45.2613 43.5867 44.472 42.328C43.704 41.0693 42.5733 40.44 41.08 40.44C39.5867 40.44 38.456 41.0693 37.688 42.328C36.92 43.5867 36.536 45.4107 36.536 47.8C36.536 50.1893 36.92 52.0133 37.688 53.272ZM65.1723 47.352C67.2416 48.5893 68.2763 50.392 68.2763 52.76C68.2763 54.8293 67.5509 56.4613 66.1003 57.656C64.6709 58.8507 62.7189 59.448 60.2443 59.448C57.7483 59.448 55.7856 58.8507 54.3563 57.656C52.9269 56.4613 52.2122 54.8293 52.2122 52.76C52.2122 50.392 53.2363 48.5893 55.2843 47.352C53.7269 46.2213 52.9483 44.6747 52.9483 42.712C52.9483 40.6427 53.6416 39.032 55.0283 37.88C56.4363 36.728 58.1749 36.152 60.2443 36.152C62.3136 36.152 64.0416 36.728 65.4283 37.88C66.8149 39.032 67.5083 40.6427 67.5083 42.712C67.5083 44.696 66.7296 46.2427 65.1723 47.352ZM62.3243 41.016C61.7909 40.5467 61.0976 40.312 60.2443 40.312C59.3909 40.312 58.6976 40.5467 58.1643 41.016C57.6309 41.4853 57.3643 42.1253 57.3643 42.936C57.3643 43.7467 57.6309 44.3973 58.1643 44.888C58.6976 45.3573 59.3909 45.592 60.2443 45.592C61.0976 45.592 61.7909 45.3573 62.3243 44.888C62.8576 44.3973 63.1243 43.7467 63.1243 42.936C63.1243 42.1253 62.8576 41.4853 62.3243 41.016ZM57.5883 54.488C58.2709 55.0213 59.1563 55.288 60.2443 55.288C61.3323 55.288 62.2069 55.0213 62.8683 54.488C63.5509 53.9333 63.8923 53.1653 63.8923 52.184C63.8923 51.224 63.5509 50.4773 62.8683 49.944C62.2069 49.3893 61.3323 49.112 60.2443 49.112C59.1563 49.112 58.2709 49.3893 57.5883 49.944C56.9269 50.4773 56.5963 51.224 56.5963 52.184C56.5963 53.1653 56.9269 53.9333 57.5883 54.488Z" fill="white"></path></svg>