<svg xmlns="http://www.w3.org/2000/svg" width="100" height="100" viewBox="0 0 100 100" fill="none"><rect width="100" height="100" rx="16" fill="#FB8D00"></rect><rect x="7.05469" y="7.05542" width="85.8889" height="85.8889" rx="9.5" stroke="white" stroke-width="3"></rect><path d="M44.08 59.448C41.2853 59.448 39.088 58.392 37.488 56.28C35.9093 54.1467 35.12 51.32 35.12 47.8C35.12 44.28 35.9093 41.464 37.488 39.352C39.088 37.2187 41.2853 36.152 44.08 36.152C46.896 36.152 49.0933 37.2187 50.672 39.352C52.2507 41.464 53.04 44.28 53.04 47.8C53.04 51.32 52.2507 54.1467 50.672 56.28C49.0933 58.392 46.896 59.448 44.08 59.448ZM40.688 53.272C41.456 54.5093 42.5867 55.128 44.08 55.128C45.5733 55.128 46.704 54.4987 47.472 53.24C48.2613 51.9813 48.656 50.168 48.656 47.8C48.656 45.4107 48.2613 43.5867 47.472 42.328C46.704 41.0693 45.5733 40.44 44.08 40.44C42.5867 40.44 41.456 41.0693 40.688 42.328C39.92 43.5867 39.536 45.4107 39.536 47.8C39.536 50.1893 39.92 52.0133 40.688 53.272ZM59.7713 36.6H63.6113V59H59.1953V41.272L54.9713 42.456L53.8833 38.68L59.7713 36.6Z" fill="white"></path></svg>