<svg xmlns="http://www.w3.org/2000/svg" width="100" height="100" viewBox="0 0 100 100" fill="none"><rect width="100" height="100" rx="16" fill="#FB8D00"></rect><rect x="7.05469" y="7.05566" width="85.8889" height="85.8889" rx="9.5" stroke="white" stroke-width="3"></rect><path d="M41.08 59.448C38.2853 59.448 36.088 58.392 34.488 56.28C32.9093 54.1467 32.12 51.32 32.12 47.8C32.12 44.28 32.9093 41.464 34.488 39.352C36.088 37.2187 38.2853 36.152 41.08 36.152C43.896 36.152 46.0933 37.2187 47.672 39.352C49.2507 41.464 50.04 44.28 50.04 47.8C50.04 51.32 49.2507 54.1467 47.672 56.28C46.0933 58.392 43.896 59.448 41.08 59.448ZM37.688 53.272C38.456 54.5093 39.5867 55.128 41.08 55.128C42.5733 55.128 43.704 54.4987 44.472 53.24C45.2613 51.9813 45.656 50.168 45.656 47.8C45.656 45.4107 45.2613 43.5867 44.472 42.328C43.704 41.0693 42.5733 40.44 41.08 40.44C39.5867 40.44 38.456 41.0693 37.688 42.328C36.92 43.5867 36.536 45.4107 36.536 47.8C36.536 50.1893 36.92 52.0133 37.688 53.272ZM68.1163 43.928C68.1163 45.656 67.6683 47.1707 66.7723 48.472H66.8043L59.8283 59H54.7723L59.7643 51.704C57.4389 51.6613 55.5403 50.9253 54.0683 49.496C52.6176 48.0453 51.8923 46.1893 51.8923 43.928C51.8923 41.6453 52.6389 39.7787 54.1323 38.328C55.6469 36.8773 57.5989 36.152 59.9883 36.152C62.3989 36.152 64.3509 36.8773 65.8443 38.328C67.3589 39.7573 68.1163 41.624 68.1163 43.928ZM56.2763 43.928C56.2763 45.0373 56.6283 45.9227 57.3323 46.584C58.0576 47.2453 58.9429 47.576 59.9883 47.576C61.0763 47.576 61.9723 47.2453 62.6763 46.584C63.3803 45.9227 63.7323 45.0373 63.7323 43.928C63.7323 42.8187 63.3803 41.944 62.6763 41.304C61.9723 40.6427 61.0763 40.312 59.9883 40.312C58.9429 40.312 58.0576 40.6427 57.3323 41.304C56.6283 41.9653 56.2763 42.84 56.2763 43.928Z" fill="white"></path></svg>