<svg xmlns="http://www.w3.org/2000/svg" width="100" height="100" viewBox="0 0 100 100" fill="none"><rect width="100" height="100" rx="16" fill="#FB8D00"></rect><rect x="7.05469" y="7.05566" width="85.8889" height="85.8889" rx="9.5" stroke="white" stroke-width="3"></rect><path d="M41.08 59.448C38.2853 59.448 36.088 58.392 34.488 56.28C32.9093 54.1467 32.12 51.32 32.12 47.8C32.12 44.28 32.9093 41.464 34.488 39.352C36.088 37.2187 38.2853 36.152 41.08 36.152C43.896 36.152 46.0933 37.2187 47.672 39.352C49.2507 41.464 50.04 44.28 50.04 47.8C50.04 51.32 49.2507 54.1467 47.672 56.28C46.0933 58.392 43.896 59.448 41.08 59.448ZM37.688 53.272C38.456 54.5093 39.5867 55.128 41.08 55.128C42.5733 55.128 43.704 54.4987 44.472 53.24C45.2613 51.9813 45.656 50.168 45.656 47.8C45.656 45.4107 45.2613 43.5867 44.472 42.328C43.704 41.0693 42.5733 40.44 41.08 40.44C39.5867 40.44 38.456 41.0693 37.688 42.328C36.92 43.5867 36.536 45.4107 36.536 47.8C36.536 50.1893 36.92 52.0133 37.688 53.272ZM59.8663 44.76C62.0209 44.76 63.8343 45.4107 65.3063 46.712C66.7783 47.992 67.5143 49.784 67.5143 52.088C67.5143 54.392 66.7356 56.1947 65.1783 57.496C63.6423 58.7973 61.7543 59.448 59.5143 59.448C57.7009 59.448 56.1009 59.0427 54.7143 58.232C53.3276 57.4213 52.3249 56.2267 51.7063 54.648L55.4823 52.44C56.0369 54.232 57.3809 55.128 59.5143 55.128C60.6449 55.128 61.5196 54.8613 62.1383 54.328C62.7783 53.7733 63.0983 53.0267 63.0983 52.088C63.0983 51.1707 62.7889 50.4347 62.1703 49.88C61.5516 49.3253 60.7089 49.048 59.6423 49.048H52.8583L53.7543 36.6H66.4583V40.728H57.8503L57.5623 44.76H59.8663Z" fill="white"></path></svg>