<svg xmlns="http://www.w3.org/2000/svg" width="100" height="100" viewBox="0 0 100 100" fill="none"><rect width="100" height="100" rx="16" fill="#FB8D00"></rect><rect x="7.05469" y="7.05542" width="85.8889" height="85.8889" rx="9.5" stroke="white" stroke-width="3"></rect><path d="M42.08 59.448C39.2853 59.448 37.088 58.392 35.488 56.28C33.9093 54.1467 33.12 51.32 33.12 47.8C33.12 44.28 33.9093 41.464 35.488 39.352C37.088 37.2187 39.2853 36.152 42.08 36.152C44.896 36.152 47.0933 37.2187 48.672 39.352C50.2507 41.464 51.04 44.28 51.04 47.8C51.04 51.32 50.2507 54.1467 48.672 56.28C47.0933 58.392 44.896 59.448 42.08 59.448ZM38.688 53.272C39.456 54.5093 40.5867 55.128 42.08 55.128C43.5733 55.128 44.704 54.4987 45.472 53.24C46.2613 51.9813 46.656 50.168 46.656 47.8C46.656 45.4107 46.2613 43.5867 45.472 42.328C44.704 41.0693 43.5733 40.44 42.08 40.44C40.5867 40.44 39.456 41.0693 38.688 42.328C37.92 43.5867 37.536 45.4107 37.536 47.8C37.536 50.1893 37.92 52.0133 38.688 53.272ZM62.546 45.688C64.0607 46.136 65.2873 46.9253 66.226 48.056C67.186 49.1653 67.666 50.5093 67.666 52.088C67.666 54.392 66.8873 56.1947 65.33 57.496C63.794 58.7973 61.906 59.448 59.666 59.448C57.9167 59.448 56.3487 59.0533 54.962 58.264C53.5967 57.4533 52.6047 56.2693 51.986 54.712L55.762 52.536C56.3167 54.264 57.618 55.128 59.666 55.128C60.7967 55.128 61.6713 54.8613 62.29 54.328C62.93 53.7733 63.25 53.0267 63.25 52.088C63.25 51.1707 62.93 50.4347 62.29 49.88C61.6713 49.3253 60.7967 49.048 59.666 49.048H58.706L57.01 46.488L61.426 40.728H52.658V36.6H66.738V40.248L62.546 45.688Z" fill="white"></path></svg>