<svg xmlns="http://www.w3.org/2000/svg" width="100" height="100" viewBox="0 0 100 100" fill="none"><rect width="100" height="100" rx="16" fill="#FB8D00"></rect><rect x="7.05469" y="7.05566" width="85.8889" height="85.8889" rx="9.5" stroke="white" stroke-width="3"></rect><path d="M41.08 59.448C38.2853 59.448 36.088 58.392 34.488 56.28C32.9093 54.1467 32.12 51.32 32.12 47.8C32.12 44.28 32.9093 41.464 34.488 39.352C36.088 37.2187 38.2853 36.152 41.08 36.152C43.896 36.152 46.0933 37.2187 47.672 39.352C49.2507 41.464 50.04 44.28 50.04 47.8C50.04 51.32 49.2507 54.1467 47.672 56.28C46.0933 58.392 43.896 59.448 41.08 59.448ZM37.688 53.272C38.456 54.5093 39.5867 55.128 41.08 55.128C42.5733 55.128 43.704 54.4987 44.472 53.24C45.2613 51.9813 45.656 50.168 45.656 47.8C45.656 45.4107 45.2613 43.5867 44.472 42.328C43.704 41.0693 42.5733 40.44 41.08 40.44C39.5867 40.44 38.456 41.0693 37.688 42.328C36.92 43.5867 36.536 45.4107 36.536 47.8C36.536 50.1893 36.92 52.0133 37.688 53.272ZM60.2763 43.864C62.6016 43.928 64.4896 44.6853 65.9403 46.136C67.3909 47.5653 68.1163 49.4 68.1163 51.64C68.1163 53.9227 67.3589 55.8 65.8443 57.272C64.3296 58.7227 62.3776 59.448 59.9883 59.448C57.5989 59.448 55.6469 58.7227 54.1323 57.272C52.6389 55.8213 51.8923 53.944 51.8923 51.64C51.8923 49.9333 52.3296 48.4293 53.2043 47.128L60.1803 36.6H65.2363L60.2763 43.864ZM57.3323 54.296C58.0363 54.9573 58.9216 55.288 59.9883 55.288C61.0549 55.288 61.9403 54.9573 62.6443 54.296C63.3696 53.6347 63.7323 52.7493 63.7323 51.64C63.7323 50.552 63.3696 49.6773 62.6443 49.016C61.9403 48.3547 61.0549 48.024 59.9883 48.024C58.9216 48.024 58.0363 48.3547 57.3323 49.016C56.6283 49.656 56.2763 50.5307 56.2763 51.64C56.2763 52.7493 56.6283 53.6347 57.3323 54.296Z" fill="white"></path></svg>