<svg xmlns="http://www.w3.org/2000/svg" width="46" height="46" viewBox="0 0 46 46" fill="none"><path d="M13.0364 5.58224L13.0357 5.58232C6.88403 6.24174 1.9573 10.751 0.741967 16.8354C0.467269 18.2175 0.467257 20.5948 0.741932 21.977C1.53195 25.9444 3.84614 29.2385 7.30141 31.3313C8.59003 32.1008 10.2147 32.7264 11.7471 33.0207L11.7483 33.021C12.2259 33.1139 12.9904 33.1976 13.6938 33.2442C14.0433 33.2673 14.3695 33.2808 14.6294 33.2821C14.7596 33.2828 14.8686 33.2804 14.953 33.2753C15.0423 33.2699 15.079 33.2627 15.0816 33.2622L15.0817 33.2622L15.0817 33.262L15.0947 33.2589C15.2099 33.2315 15.2701 33.1597 15.2915 33.0962C15.3117 33.0359 15.3015 32.9801 15.2523 32.9309C15.241 32.9196 15.234 32.9132 15.2302 32.9099C15.2213 32.9067 15.196 32.899 15.1413 32.89C14.965 32.8613 14.6517 32.8439 13.9947 32.8164L13.9946 32.8164C11.7893 32.7237 10.2648 32.3389 8.35795 31.3902C5.82505 30.1376 3.65292 27.9651 2.39168 25.4335C1.80639 24.2628 1.48772 23.3433 1.20088 22.048C1.0501 21.367 0.980173 20.3727 0.980173 19.4063C0.980173 18.4401 1.05005 17.4462 1.20073 16.7653C1.80445 14.0071 2.97269 11.8542 4.90232 9.93355C6.85997 7.9669 9.15914 6.74361 11.9035 6.18544L11.9044 6.18526C12.5572 6.05371 13.5279 6.00012 14.473 6.00922C15.4193 6.01833 16.394 6.09082 17.0571 6.23116L17.0587 6.23153C19.7398 6.8087 21.9196 7.99647 23.8477 9.93355C25.4206 11.4975 26.4784 13.2096 27.1501 15.2807C27.6263 16.7465 27.7491 17.5435 27.7675 19.3563L27.7675 19.3563C27.772 19.7965 27.7831 20.2174 27.7974 20.5385C27.8046 20.6996 27.8124 20.8319 27.8202 20.9276C27.822 20.949 27.8237 20.9677 27.8253 20.9838C27.8367 20.9907 27.8513 20.9986 27.8693 21.0064C27.907 21.0228 27.948 21.0342 27.9855 21.0392C28.0221 21.0441 28.0437 21.0414 28.0504 21.0401C28.0768 21.0335 28.0939 21.0279 28.1042 21.0241C28.11 21.011 28.1189 20.9871 28.1287 20.9473C28.186 20.7156 28.205 20.2747 28.2051 19.3631C28.1962 18.0745 28.1607 17.5988 28.0081 16.836L28.0081 16.8355C26.8882 11.2104 22.6036 6.91011 17.017 5.79106L17.0153 5.7907C16.6147 5.70896 15.8207 5.63382 15.0026 5.59123C14.1823 5.54853 13.4055 5.54213 13.0364 5.58224ZM15.2265 32.9069C15.2265 32.9069 15.2268 32.9072 15.2274 32.9076L15.2265 32.9069ZM27.8335 21.0501C27.8335 21.05 27.8332 21.0484 27.8327 21.0458C27.8332 21.049 27.8335 21.0503 27.8335 21.0501ZM28.0973 21.0374C28.0973 21.0374 28.0977 21.037 28.0983 21.0358C28.0976 21.0368 28.0973 21.0374 28.0973 21.0374Z" fill="black" stroke="black"></path><path d="M14.2364 8.76755L14.2291 8.76048C14.1627 8.69606 14.1559 8.64864 14.1562 8.62589C14.1565 8.60053 14.1672 8.54396 14.2405 8.4695C14.2684 8.44269 14.2854 8.42659 14.2997 8.41406C14.3008 8.41304 14.3019 8.4121 14.3029 8.41122C14.3317 8.40745 14.3884 8.40415 14.5017 8.40693C14.6229 8.4099 14.7833 8.41884 15.0095 8.43242C17.7701 8.60459 20.1349 9.67492 22.1156 11.6642L22.1164 11.665C24.1585 13.7071 25.2105 16.0782 25.3396 18.9348L25.3396 18.9349C25.3745 19.7027 25.3453 20.3887 25.2701 20.9068C25.2324 21.1668 25.1849 21.3715 25.1341 21.518C25.0873 21.6533 25.0522 21.696 25.0531 21.6968C25.0532 21.6969 25.0537 21.6966 25.0544 21.696M14.2364 8.76755L25.0544 21.696M14.2364 8.76755L14.2433 8.7749C14.2712 8.80419 14.2854 8.81506 14.2908 8.81879C14.2938 8.82086 14.2952 8.82175 14.3009 8.8236C14.3241 8.83116 14.3866 8.84388 14.5726 8.84388C15.3599 8.84388 16.7863 9.08806 17.6098 9.35308L17.6098 9.35306L17.6147 9.3547C19.1968 9.88205 20.6296 10.7586 21.8262 11.9552L21.8272 11.9562C23.4762 13.6146 24.504 15.6812 24.8425 18.0324L24.8429 18.0352C24.9672 18.9339 24.9551 19.7235 24.8268 20.924L24.8267 20.9256L24.7471 21.6481L24.7929 21.6887C24.8412 21.7298 24.8767 21.7501 24.8989 21.76C24.9199 21.7692 24.9289 21.769 24.9297 21.769L24.9298 21.769C24.9308 21.7691 24.9383 21.7692 24.956 21.7616C24.9758 21.7531 25.0087 21.7347 25.0544 21.696M14.2364 8.76755L25.0544 21.696" fill="black" stroke="black"></path><path d="M16.8187 15.2643L16.5835 14.8231C16.7136 14.7537 16.7381 14.6988 16.7411 14.6909L16.7412 14.6906C16.7427 14.6871 16.7544 14.6588 16.7205 14.5818C16.6378 14.3939 16.3508 14.0893 15.7528 13.7899C15.5853 13.7083 15.4221 13.6343 15.2962 13.5817C15.2323 13.555 15.1831 13.5359 15.1502 13.5244C15.1478 13.5236 15.1457 13.5229 15.1437 13.5222C14.9938 13.5025 14.8644 13.4249 14.7743 13.3142C14.6886 13.2091 14.6535 13.0935 14.6364 13.0211C14.6014 12.8734 14.5938 12.6864 14.5938 12.4881C14.5938 12.2551 14.5823 12.1762 14.5724 12.1424C14.5704 12.1357 14.5698 12.1353 14.5697 12.1352C14.5697 12.1352 14.5696 12.1352 14.5696 12.1352C14.5672 12.1316 14.5572 12.1178 14.5243 12.0865L14.5141 12.0767L14.5044 12.0664C14.4841 12.0447 14.4584 12.0267 14.4314 12.0146C14.4036 12.0022 14.3831 11.9998 14.375 11.9998C14.3669 11.9998 14.3464 12.0022 14.3186 12.0146C14.2916 12.0267 14.2659 12.0447 14.2456 12.0664L14.2359 12.0767L14.2257 12.0865C14.1928 12.1178 14.1828 12.1316 14.1804 12.1352C14.1804 12.1352 14.1803 12.1352 14.1803 12.1352C14.1802 12.1353 14.1796 12.1357 14.1776 12.1424C14.1677 12.1762 14.1562 12.2551 14.1562 12.4881C14.1562 12.6864 14.1486 12.8734 14.1136 13.0211C14.0965 13.0935 14.0614 13.2091 13.9757 13.3142C13.8856 13.4249 13.7563 13.5024 13.6065 13.5222C13.6046 13.5228 13.6026 13.5235 13.6004 13.5243C13.5679 13.5356 13.5192 13.5546 13.4563 13.5811C13.3316 13.6337 13.1707 13.7076 13.0084 13.7888L12.7937 13.3595L13.0084 13.7888C12.3395 14.1233 11.8978 14.5777 11.5668 15.287L11.5668 15.287L11.5652 15.2903C11.4364 15.5613 11.3891 15.6832 11.3628 15.8167C11.3344 15.9615 11.3262 16.1427 11.3262 16.54C11.3262 16.9566 11.3328 17.1229 11.3631 17.263C11.3921 17.3968 11.4469 17.5257 11.6074 17.8559C12.1274 18.9025 12.9765 19.4822 14.2466 19.6185C14.6964 19.663 15.0357 19.7095 15.3235 19.8122C15.6333 19.9228 15.8532 20.0865 16.0894 20.2979C17.258 21.3153 17.3079 23.1302 16.1833 24.1894C15.7136 24.6369 15.1473 24.8918 14.54 24.9232C13.9362 24.9543 13.33 24.7628 12.7749 24.3848C12.5752 24.2519 12.477 24.2317 12.4439 24.2306C12.4339 24.2303 12.4302 24.2315 12.4245 24.2341C12.416 24.238 12.3919 24.2512 12.3531 24.2912L12.3476 24.2969L12.3419 24.3025C12.2903 24.3523 12.2773 24.3966 12.2759 24.4313C12.2744 24.4696 12.2863 24.5319 12.3451 24.6081L12.3455 24.6086C12.3413 24.6031 12.3431 24.6046 12.3533 24.6129C12.3727 24.6287 12.422 24.6688 12.5174 24.7327C12.6407 24.8152 12.7978 24.9093 12.9603 24.9985C13.1229 25.0878 13.2826 25.1676 13.4104 25.2235C13.4748 25.2516 13.5244 25.2708 13.5585 25.2819C13.5643 25.2838 13.5691 25.2853 13.5731 25.2865C13.7371 25.2985 13.879 25.3791 13.9757 25.4979C14.0614 25.603 14.0965 25.7186 14.1136 25.791C14.1486 25.9387 14.1562 26.1257 14.1562 26.324C14.1562 26.557 14.1677 26.6359 14.1776 26.6697C14.1798 26.6772 14.1803 26.6768 14.1804 26.6769C14.1828 26.6805 14.1928 26.6943 14.2257 26.7256L14.2329 26.7325L14.2398 26.7396C14.2979 26.7995 14.3469 26.8101 14.375 26.8101C14.4031 26.8101 14.4521 26.7995 14.5102 26.7396L14.5171 26.7325L14.5243 26.7256C14.5572 26.6943 14.5672 26.6805 14.5696 26.6769C14.5696 26.6769 14.5697 26.6769 14.5697 26.6769C14.5698 26.6768 14.5704 26.6764 14.5724 26.6697C14.5823 26.6359 14.5938 26.557 14.5938 26.324C14.5938 26.1257 14.6014 25.9387 14.6364 25.791C14.6535 25.7186 14.6886 25.603 14.7743 25.4979C14.8644 25.3872 14.9938 25.3096 15.1437 25.2899C15.1457 25.2892 15.1478 25.2885 15.1502 25.2877C15.1831 25.2762 15.2323 25.2571 15.2962 25.2304C15.422 25.1779 15.5849 25.1039 15.7522 25.0225C18.0096 23.8834 17.9986 20.643 15.7487 19.5423C15.3077 19.3341 15.0209 19.2504 14.484 19.1935L14.484 19.1935L14.4783 19.1929C13.9997 19.1366 13.5995 19.0525 13.2504 18.8947C12.8907 18.7322 12.6134 18.5044 12.3591 18.2028C11.4692 17.1664 11.5178 15.7882 12.4496 14.7585C13.4453 13.6528 15.0463 13.5784 16.156 14.5872C16.3404 14.7512 16.4532 14.8104 16.5134 14.8288C16.5383 14.8364 16.549 14.8353 16.5511 14.8351H16.5511C16.5532 14.8349 16.563 14.834 16.5842 14.8227L16.8187 15.2643ZM16.8187 15.2643C16.5312 15.417 16.2348 15.3271 15.8215 14.9588L14.8691 11.7244C15.0578 11.9041 15.0938 12.0299 15.0938 12.4881C15.0938 12.8834 15.1297 13.0271 15.2195 13.0271C15.2824 13.0271 15.6238 13.1709 15.9742 13.3416C17.25 13.9795 17.6273 14.833 16.8187 15.2643ZM13.586 25.29C13.586 25.2899 13.5851 25.2897 13.5835 25.2894C13.5852 25.2898 13.5861 25.29 13.586 25.29Z" fill="black" stroke="black"></path><path d="M5.35468 23.8355C7.04375 27.1957 10.5746 29.4508 14.1773 29.4687C14.5637 29.4687 14.6984 29.5137 14.8691 29.6933L5.35468 23.8355ZM5.35468 23.8355C4.74374 22.6047 4.31249 20.8797 4.31249 19.6039C4.31249 19.2176 4.26757 19.0828 4.08789 18.9121L5.35468 23.8355ZM6.63286 27.1468L6.63439 27.1484C8.61516 29.1378 10.98 30.2081 13.7407 30.3802C13.9668 30.3938 14.1271 30.4027 14.2483 30.4057C14.3616 30.4085 14.4183 30.4052 14.4471 30.4014C14.4481 30.4005 14.4492 30.3996 14.4503 30.3986C14.4646 30.386 14.4816 30.3699 14.5095 30.3431C14.5828 30.2687 14.5935 30.2121 14.5938 30.1867C14.5941 30.164 14.5873 30.1166 14.5209 30.0521L14.5136 30.0451L14.5066 30.0377C14.4788 30.0084 14.4646 29.9976 14.4592 29.9938C14.4562 29.9918 14.4548 29.9909 14.4491 29.989C14.4259 29.9815 14.3633 29.9687 14.1773 29.9687L14.1748 29.9687C10.3737 29.9498 6.67678 27.5789 4.90795 24.0601L4.90794 24.0601L4.90682 24.0578C4.26538 22.7655 3.81249 20.9649 3.81249 19.6039C3.81249 19.4179 3.79978 19.3554 3.79221 19.3321C3.79036 19.3265 3.78947 19.3251 3.7874 19.3221C3.78367 19.3167 3.7728 19.3024 3.74351 19.2746L3.73616 19.2676L3.7291 19.2603C3.66468 19.194 3.61725 19.1872 3.5945 19.1874C3.56914 19.1878 3.51257 19.1985 3.43811 19.2717C3.4113 19.2996 3.3952 19.3167 3.38267 19.3309C3.38166 19.3321 3.38071 19.3332 3.37984 19.3342C3.37607 19.3629 3.37277 19.4196 3.37555 19.533C3.37852 19.6541 3.38745 19.8144 3.40101 20.0405C3.57314 22.8013 4.64348 25.1661 6.63286 27.1468Z" fill="black" stroke="black"></path><path d="M35.0798 20.0366L35.0796 20.0367C35.0799 20.0365 35.0793 20.0368 35.0775 20.0377C35.0683 20.0419 35.0297 20.0596 34.9471 20.1016C34.8594 20.1462 34.7415 20.2081 34.5959 20.286C34.3052 20.4416 33.9115 20.657 33.4425 20.917C32.5048 21.4368 31.2715 22.1319 29.9703 22.8767L29.9702 22.8768L25.2265 25.5901L25.1111 25.6561H24.9782H23.4239C22.4882 25.6561 21.9249 25.677 21.4835 25.7475C21.0603 25.8151 20.7371 25.9304 20.2896 26.1456L35.0798 20.0366ZM35.0798 20.0366C35.9333 19.72 36.922 20.1063 37.4108 21.0234C37.4515 21.101 37.4663 21.1348 37.4796 21.1863C37.4957 21.2489 37.5129 21.3536 37.5268 21.5668C37.5549 21.997 37.5639 22.7577 37.5774 24.271C37.5774 24.271 37.5774 24.2711 37.5774 24.2711L37.6044 27.3795L37.6063 27.6036L37.6044 27.6015V28.8846V31.4901V32.529L37.6009 32.5293C37.4759 32.543 37.3954 32.5507 37.3361 32.5532C37.3205 32.5539 37.3083 32.5541 37.2989 32.5541C37.2873 32.5436 37.2702 32.5273 37.245 32.5021L37.1579 32.415V27.1147C37.1579 24.4467 37.1557 23.057 37.1318 22.3001C37.12 21.9256 37.1023 21.6785 37.0706 21.4998C37.0335 21.2908 36.976 21.1698 36.9081 21.0555L36.9082 21.0555L36.9049 21.05C36.6069 20.5625 36.0678 20.2961 35.5013 20.3652L35.479 20.3679L35.457 20.3726C35.3912 20.3868 35.328 20.4156 35.311 20.4234C35.3099 20.4239 35.309 20.4243 35.3083 20.4246C35.2762 20.4391 35.2381 20.4574 35.1966 20.478C35.1129 20.5196 35.0008 20.5776 34.8655 20.6491C34.594 20.7924 34.2188 20.9955 33.7679 21.2431C32.8657 21.7387 31.6549 22.4162 30.3545 23.1586L25.6382 25.8446L25.3866 25.988L25.3856 26.2775L25.3766 29.0896V29.0912V31.6902L25.3058 31.7583L25.2993 31.7645L25.2931 31.7709C25.235 31.8308 25.186 31.8413 25.1579 31.8413C25.1297 31.8413 25.0808 31.8308 25.0227 31.7709L25.0165 31.7645L25.01 31.7583L24.9391 31.6902V26.5756V26.0666L24.4302 26.0757L22.9208 26.1026V26.1026L22.9179 26.1027L21.4085 26.1386L21.2995 26.1412L21.2015 26.1889L20.5187 26.5214L20.5187 26.5214L20.5159 26.5227C19.5942 26.9785 19.0116 27.5839 18.5698 28.5176C18.4383 28.7943 18.342 29.0135 18.2896 29.2784C18.2394 29.5325 18.2341 29.8073 18.2341 30.1873C18.2341 30.5673 18.2394 30.8421 18.2896 31.0963C18.342 31.3611 18.4383 31.5803 18.5698 31.857C19.0116 32.7908 19.5942 33.3961 20.5159 33.8519L20.5187 33.8533L21.2015 34.1857L21.2999 34.2336L21.4093 34.236L25.3331 34.323L30.1186 37.089L30.1195 37.0895C32.3573 38.3765 33.5996 39.0872 34.33 39.4751C35.0302 39.847 35.3466 39.9754 35.6806 39.9771C35.8655 39.9817 36.0609 39.9756 36.2509 39.9072C36.4522 39.8349 36.5951 39.7126 36.7153 39.5879L36.96 39.3519L37.1105 39.2069L37.1129 38.9979L37.1399 36.7249L37.1399 36.7226C37.1444 36.1048 37.1533 35.5194 37.1645 35.0762C37.1701 34.8542 37.1761 34.6701 37.1823 34.5362C37.1849 34.4815 37.1874 34.4371 37.1897 34.4032C37.2068 34.3883 37.2319 34.3702 37.2644 34.3527C37.3065 34.33 37.3482 34.3153 37.3811 34.3086C37.3906 34.3066 37.3979 34.3056 37.4031 34.3051C37.4201 34.3121 37.4452 34.3239 37.4749 34.3414C37.5086 34.3612 37.5341 34.3799 37.5496 34.3928C37.5509 34.3994 37.5524 34.4075 37.554 34.4175C37.5597 34.4525 37.5656 34.503 37.5709 34.5761C37.5928 34.8813 37.5954 35.4372 37.5954 36.5393C37.5954 37.1854 37.5842 37.7949 37.5676 38.2646C37.5593 38.4997 37.5497 38.6971 37.5397 38.8454C37.5301 38.9869 37.5218 39.0538 37.5197 39.0699C37.3763 39.5524 37.0251 39.9763 36.5369 40.2275C36.0358 40.4854 35.6567 40.5297 35.1798 40.4032C35.1733 40.3999 35.145 40.3871 35.0839 40.3562C35.0029 40.3152 34.8908 40.2564 34.7495 40.1808C34.4675 40.0298 34.0786 39.8167 33.61 39.5566C32.6734 39.0368 31.4243 38.3326 30.0869 37.5697C30.0868 37.5696 30.0866 37.5695 30.0865 37.5694L25.2361 34.7849L25.1205 34.7186H24.9872H23.7204H23.2204V35.2186V39.5311V40.0311H23.7204H24.4391H24.9391V39.5311V38.3182C24.9391 37.7076 24.943 37.4506 24.9646 37.3129C24.9669 37.2978 24.9691 37.2873 24.9707 37.2804C24.9773 37.2735 24.9893 37.2613 25.0097 37.2417L25.0163 37.2353L25.0227 37.2288C25.0808 37.1688 25.1297 37.1583 25.1579 37.1583C25.186 37.1583 25.235 37.1688 25.2931 37.2288L25.2993 37.2352L25.3058 37.2414C25.3225 37.2574 25.3335 37.2684 25.3406 37.2756C25.3434 37.2886 25.3477 37.3114 25.3519 37.3478C25.3757 37.5547 25.3766 37.943 25.3766 38.8123C25.3766 39.6816 25.3757 40.07 25.3519 40.2768C25.3477 40.3132 25.3434 40.336 25.3406 40.349C25.3335 40.3562 25.3225 40.3672 25.3058 40.3833L25.2983 40.3905L25.291 40.398C25.2734 40.4165 25.2618 40.4279 25.2549 40.4345C25.2463 40.4366 25.2325 40.4393 25.2122 40.4423C25.0553 40.4649 24.7612 40.4686 24.0798 40.4686C23.3984 40.4686 23.1043 40.4649 22.9473 40.4423C22.927 40.4393 22.9133 40.4366 22.9047 40.4345C22.8977 40.4279 22.8862 40.4165 22.8685 40.398L22.8613 40.3905L22.8538 40.3833L22.7829 40.3152V35.2545V34.8231L22.3562 34.7599L21.6284 34.6521L21.627 34.6519C19.6808 34.3693 18.101 32.7894 17.8183 30.8432L17.8183 30.8429M35.0798 20.0366L17.8183 30.8429M17.8183 30.8429C17.5349 28.8999 18.5486 26.984 20.2895 26.1457L17.8183 30.8429ZM38.4725 28.5463L37.7571 27.7677L37.9004 27.8317L38.3212 28.0197C38.3215 28.0199 38.3218 28.02 38.322 28.0201C38.8541 28.2601 39.1694 28.5579 39.4611 29.0948C39.601 29.3566 39.6465 29.4605 39.6713 29.5677C39.698 29.6833 39.7067 29.8293 39.7067 30.1873C39.7067 30.5454 39.698 30.6914 39.6713 30.8069C39.6465 30.9142 39.6009 31.0181 39.4609 31.2802C39.1047 31.9381 38.5592 32.3507 37.8644 32.4902L38.4725 31.8284L38.7769 31.4972C38.777 31.497 38.7772 31.4969 38.7773 31.4967C39.2188 31.0192 39.387 30.4288 39.2704 29.776L39.2705 29.776L39.2685 29.7658C39.2357 29.6019 39.1581 29.4323 39.0795 29.2937C38.9982 29.1506 38.8931 29.0004 38.7754 28.8759L38.4725 28.5463ZM37.1697 34.4231C37.1689 34.4243 37.1684 34.425 37.1683 34.4251C37.1681 34.4252 37.1685 34.4246 37.1697 34.4231ZM24.9737 37.2698C24.9737 37.2698 24.9736 37.2702 24.9733 37.2709L24.9737 37.2698ZM25.2669 40.4312C25.267 40.4312 25.2666 40.4314 25.2658 40.4316L25.2669 40.4312ZM22.8926 40.4312C22.8926 40.4312 22.8929 40.4313 22.8936 40.4316L22.8926 40.4312Z" fill="#FB8D00" stroke="#FB8D00"></path><path d="M41.912 24.2599L41.9109 24.2606C41.5671 24.4898 41.2516 24.7134 41.02 24.8876C40.906 24.9733 40.8167 25.0439 40.7558 25.0954C40.7525 25.1549 40.768 25.2185 40.8026 25.2748C40.8351 25.3274 40.8704 25.3538 40.8998 25.3659C40.9072 25.3626 40.9155 25.3589 40.9245 25.3547C41.0001 25.3197 41.1045 25.2654 41.2326 25.194C41.4871 25.0522 41.8088 24.8573 42.1302 24.6519C42.4516 24.4464 42.7657 24.2349 43.0053 24.0606C43.1257 23.973 43.2216 23.899 43.2885 23.8424C43.3063 23.8274 43.3205 23.8148 43.3315 23.8047C43.3429 23.7567 43.3381 23.6878 43.2958 23.6134C43.2553 23.5424 43.2092 23.5141 43.1778 23.5044C43.1709 23.507 43.1626 23.5102 43.1528 23.5143C43.0931 23.539 43.0062 23.5815 42.8883 23.6471C42.6534 23.7776 42.3298 23.9799 41.912 24.2599ZM40.8439 25.388C40.8438 25.3881 40.8462 25.3875 40.8513 25.3857C40.8466 25.387 40.844 25.3878 40.8439 25.388ZM43.3605 23.7762C43.3604 23.7762 43.3591 23.7776 43.357 23.7801C43.3595 23.7775 43.3606 23.7762 43.3605 23.7762Z" fill="black" stroke="black"></path><path d="M42.2728 30.0396L42.2637 30.0491L42.2541 30.0581C42.2324 30.0784 42.2144 30.1041 42.2023 30.1311C42.1899 30.1589 42.1875 30.1794 42.1875 30.1875C42.1875 30.1956 42.1899 30.2161 42.2023 30.2439C42.2144 30.2709 42.2324 30.2966 42.2541 30.3169L42.2637 30.3259L42.2728 30.3354C42.2888 30.3521 42.2999 30.3631 42.307 30.3702C42.32 30.3731 42.3428 30.3773 42.3792 30.3815C42.5861 30.4053 42.9744 30.4062 43.8438 30.4062C44.7131 30.4062 45.1014 30.4053 45.3083 30.3815C45.3447 30.3773 45.3675 30.3731 45.3805 30.3702C45.3876 30.3631 45.3987 30.3521 45.4147 30.3354L45.4238 30.3259L45.4334 30.3169C45.4551 30.2966 45.4731 30.2709 45.4852 30.2439C45.4976 30.2161 45.5 30.1956 45.5 30.1875C45.5 30.1794 45.4976 30.1589 45.4852 30.1311C45.4731 30.1041 45.4551 30.0784 45.4334 30.0581L45.4238 30.0491L45.4147 30.0396C45.3987 30.0229 45.3876 30.0119 45.3805 30.0048C45.3675 30.0019 45.3447 29.9977 45.3083 29.9935C45.1014 29.9697 44.7131 29.9688 43.8438 29.9688C42.9744 29.9688 42.5861 29.9697 42.3792 29.9935C42.3428 29.9977 42.32 30.0019 42.307 30.0048C42.2999 30.0119 42.2888 30.0229 42.2728 30.0396Z" fill="black" stroke="black"></path><path d="M40.8325 35.0738L40.8269 35.0795L40.8212 35.085C40.7574 35.1463 40.7384 35.2294 40.7603 35.303C40.7716 35.3134 40.7864 35.3265 40.8053 35.3424C40.8721 35.399 40.968 35.473 41.0885 35.5606C41.3281 35.7349 41.6421 35.9464 41.9635 36.1519C42.2849 36.3573 42.6067 36.5522 42.8611 36.694C42.9892 36.7654 43.0936 36.8197 43.1692 36.8547C43.1776 36.8586 43.1853 36.862 43.1922 36.8651C43.2224 36.8518 43.2612 36.8223 43.2958 36.7616C43.3332 36.6959 43.3413 36.6345 43.3348 36.588C43.3277 36.582 43.32 36.5756 43.3115 36.5687C43.246 36.515 43.1523 36.4423 43.0357 36.3557C42.8032 36.183 42.4921 35.9638 42.1584 35.7443L42.1584 35.7443L42.1571 35.7434C41.4569 35.2797 41.124 35.0869 40.9336 35.0286C40.9153 35.023 40.9019 35.0199 40.8926 35.0181C40.881 35.0272 40.8615 35.044 40.8325 35.0738ZM40.7368 35.2801C40.7346 35.2776 40.7333 35.2762 40.7332 35.2762C40.7331 35.2762 40.7342 35.2775 40.7368 35.2801ZM43.2498 36.888C43.2497 36.8878 43.2471 36.887 43.2425 36.8857C43.2476 36.8875 43.2499 36.8881 43.2498 36.888ZM43.3853 36.6321C43.3881 36.6351 43.3898 36.6367 43.3899 36.6368C43.39 36.6368 43.3886 36.6353 43.3853 36.6321ZM40.8754 35.016C40.8755 35.0161 40.8763 35.0161 40.8777 35.016C40.8761 35.0159 40.8754 35.016 40.8754 35.016Z" fill="black" stroke="black"></path></svg>