<svg xmlns="http://www.w3.org/2000/svg" width="110" height="110" viewBox="0 0 110 110" fill="none"><path d="M19.4795 1.375H90.5205C101.292 1.375 110 10.083 110 20.8545V89.1456C110 99.917 101.292 108.625 90.5205 108.625H19.4795C8.70805 108.625 0 99.917 0 89.1456V20.8545C0 10.083 8.70805 1.375 19.4795 1.375Z" fill="#001E36"></path><path d="M39.417 28.6455C38.042 28.6455 36.667 28.6455 35.2464 28.6919C33.825 28.7375 32.4955 28.7375 31.258 28.7839C30.0205 28.8294 28.875 28.8294 27.775 28.875C26.7205 28.9205 25.9875 28.9205 25.208 28.9205C24.8875 28.9205 24.75 29.1036 24.75 29.425V76.5875C24.75 77 24.933 77.1839 25.3 77.1839H34.192C34.5125 77.1375 34.742 76.8625 34.6955 76.5419V61.8294C35.5661 61.8294 36.208 61.8294 36.667 61.875C37.125 61.9205 37.858 61.9205 38.958 61.9205C42.717 61.9205 46.1545 61.508 49.2705 60.3625C52.25 59.2625 54.8169 57.3375 56.65 54.7705C58.4833 52.2039 59.4 48.9497 59.4 45.008C59.4 42.9455 59.0339 40.975 58.3464 39.05C57.6179 37.0888 56.4767 35.307 55 33.825C53.257 32.1317 51.159 30.8477 48.858 30.0661C46.2911 29.1036 43.175 28.6455 39.417 28.6455ZM40.4396 37.6733C42.0724 37.7042 43.6623 37.9895 45.1455 38.5911C46.475 39.0955 47.575 40.0125 48.3545 41.2036C49.0855 42.4363 49.4511 43.8514 49.4089 45.2839C49.4089 47.3 48.95 48.8589 47.9875 50.0044C46.9786 51.15 45.6955 52.0214 44.2295 52.4339C42.533 52.9839 40.7455 53.258 38.958 53.258H36.5286C35.9786 53.258 35.3839 53.2125 34.742 53.1669V37.7669C35.0625 37.7205 35.7045 37.675 36.6214 37.7214C37.492 37.675 38.5455 37.675 39.7375 37.675C39.9724 37.6693 40.2064 37.6687 40.4396 37.6733ZM78.8795 40.0134C75.625 40.0134 72.9205 40.5169 70.767 41.6169C68.7964 42.5339 67.1 44 65.9545 45.833C64.9464 47.5294 64.3955 49.408 64.3955 51.3794C64.3564 53.0009 64.7186 54.6068 65.45 56.0544C66.3072 57.5959 67.4974 58.9267 68.9339 59.95C70.9501 61.329 73.138 62.4384 75.442 63.25C77.6875 64.1205 79.2 64.808 79.9339 65.4036C80.667 66 81.0339 66.5955 81.0339 67.2375C81.0339 68.0625 80.5294 68.8419 79.7964 69.1625C78.9714 69.575 77.7339 69.8044 75.992 69.8044C74.1589 69.8044 72.325 69.575 70.583 69.1169C68.5829 68.6702 66.6652 67.9125 64.9 66.8714C64.7625 66.7794 64.625 66.7339 64.4875 66.8258C64.35 66.9169 64.3045 67.1 64.3045 67.2375V75.2125C64.2589 75.5794 64.4875 75.9 64.8089 76.083C66.2952 76.7774 67.8674 77.2707 69.4839 77.55C71.5464 77.9625 73.608 78.1455 75.7161 78.1455C79.0161 78.1455 81.767 77.6419 84.0125 76.6794C86.075 75.8544 87.8625 74.4339 89.1455 72.6C90.3472 70.7971 90.9707 68.6708 90.933 66.5044C90.9782 64.868 90.6162 63.2459 89.8794 61.7839C89.008 60.225 87.7705 58.9419 86.258 57.9794C84.0454 56.5899 81.6763 55.4666 79.2 54.633C78.0942 54.1753 77.0084 53.6707 75.9455 53.1205C75.35 52.8 74.8 52.3875 74.3875 51.883C74.1125 51.5161 73.9295 51.1044 73.9295 50.6919C73.9295 50.2794 74.067 49.8214 74.2955 49.4544C74.617 48.9964 75.1205 48.675 75.7161 48.5375C76.5875 48.3089 77.55 48.1705 78.4661 48.2161C80.208 48.2161 81.9036 48.4455 83.6 48.8125C85.1589 49.133 86.625 49.6375 88 50.3714C88.183 50.4625 88.4125 50.4625 88.825 50.3714C88.8966 50.3183 88.9547 50.2491 88.9946 50.1694C89.0344 50.0896 89.055 50.0016 89.0544 49.9125V42.4419C89.0544 42.258 89.008 42.075 88.9625 41.8919C88.8705 41.7089 88.6875 41.525 88.5044 41.4794C87.2403 40.9628 85.9158 40.6085 84.5625 40.425C82.6805 40.151 80.7813 40.014 78.8795 40.0134Z" fill="#31A8FF"></path></svg>