<svg xmlns="http://www.w3.org/2000/svg" width="38" height="38" viewBox="0 0 38 38" fill="none"><g clip-path="url(#clip0_676_1265)"><path d="M23.9207 0.734751C23.75 0.816391 23.4531 1.0242 23.2676 1.19491L22.9262 1.51405L22.273 1.38788C21.0633 1.1578 20.7961 1.23944 19.9203 2.15975C18.5547 3.58475 18.4805 3.68866 18.4805 4.19334C18.4805 4.55702 18.5992 4.81678 18.8961 5.09139L19.1559 5.33631L19.0297 5.58123C18.8219 5.96717 18.8516 6.52381 19.0965 6.88749C19.3562 7.28827 19.5344 7.36991 20.9223 7.75584C23.2676 8.40897 24.6109 8.95077 25.1008 9.44061C25.598 9.93788 26.3402 11.682 26.793 13.4187C26.9043 13.8566 27.0527 13.9012 27.9137 13.723C28.7969 13.5449 28.9453 13.4781 29.2867 13.1515C29.6949 12.7582 29.8137 12.4094 29.9102 11.3183C29.9547 10.7914 30.0066 10.3461 30.0215 10.3312C30.0437 10.309 32.723 9.8785 32.9012 9.87108C32.9309 9.87108 32.9531 9.99725 32.9531 10.1531C32.9531 10.539 33.1238 10.7617 33.4207 10.7617C33.777 10.7617 36.8273 10.3758 37.0203 10.309C37.1094 10.2719 37.2133 10.168 37.2504 10.0789C37.332 9.85623 37.2207 6.62772 37.0723 5.10623C36.8867 3.16913 36.6418 1.85545 36.434 1.66249C36.3078 1.55116 36.1668 1.55116 34.4227 1.74413C33.391 1.85545 32.493 1.9742 32.4262 2.01131C32.2777 2.08553 32.2109 2.24139 32.2109 2.49373C32.2109 2.70897 32.1812 2.71639 30.9715 2.81288C30.4594 2.85741 29.9695 2.85741 29.8508 2.8203C29.7246 2.79061 29.3758 2.59022 29.0715 2.38241C28.0102 1.66991 26.7633 1.11327 25.4793 0.779282C24.6332 0.556625 24.3363 0.549204 23.9207 0.734751ZM25.4719 1.70702C26.6742 2.041 27.409 2.38241 28.6855 3.19881C29.591 3.77772 29.7617 3.81483 31.1645 3.68866C31.9512 3.62186 32.3074 3.61444 32.3223 3.67381C32.3816 3.86678 32.827 8.91366 32.7824 8.95077C32.7602 8.97303 31.9809 9.10663 31.0457 9.24764C29.7617 9.44061 29.3313 9.52967 29.2348 9.62616C29.1457 9.73006 29.0938 10.0269 29.027 10.9324C28.9379 12.2312 28.8637 12.4613 28.4555 12.6543C28.3219 12.7137 28.0695 12.7879 27.8914 12.8101L27.5723 12.8547L27.2531 11.8601C27.0824 11.3183 26.7559 10.4945 26.5332 10.0418C25.843 8.6242 25.3531 8.26053 23.1266 7.5035C22.5402 7.30311 21.798 7.06561 21.4789 6.97655C19.9648 6.56092 19.8906 6.53124 19.809 6.33084C19.7199 6.08592 20.0391 5.49217 20.2395 5.5367C21.0781 5.72225 22.0949 6.00428 22.8371 6.2492C23.8316 6.57577 24.0766 6.58319 24.1953 6.26405C24.2992 5.99686 24.173 5.80389 23.802 5.64061C23.2973 5.41795 21.7906 4.98006 20.618 4.71288C20.0168 4.57928 19.4898 4.44569 19.4453 4.416C19.2969 4.32694 19.3785 4.03006 19.616 3.79998L19.8609 3.56248L20.4473 3.66639C21.8352 3.91131 23.134 4.30467 24.1211 4.76483C24.7 5.03944 24.7668 5.05428 24.9375 4.9578C25.1379 4.84647 25.1973 4.68319 25.1305 4.42342C25.034 4.04491 22.4883 3.08006 20.9891 2.85741C20.7887 2.82772 20.6328 2.77577 20.6328 2.74608C20.6328 2.71639 20.7664 2.56795 20.9297 2.41952C21.2934 2.09295 21.3527 2.09295 22.5996 2.36756C23.7352 2.62733 24.6852 2.94647 25.4719 3.35467C25.9691 3.60702 26.0656 3.6367 26.2141 3.55506C26.5852 3.36209 26.6 3.05037 26.2512 2.79061C25.9691 2.57538 25.0785 2.15975 24.4922 1.96678C23.9578 1.79608 23.9133 1.74413 24.1656 1.60311C24.4625 1.44725 24.5812 1.45467 25.4719 1.70702ZM35.9516 3.2953C36.1668 4.68319 36.3078 6.47186 36.3152 8.01561L36.3301 9.53709L35.0832 9.68553L33.8363 9.84139L33.8066 9.69295C33.7695 9.49999 33.1758 3.13944 33.1758 2.9242C33.1758 2.77577 33.2426 2.76092 34.2 2.65702C34.7566 2.59022 35.3578 2.53827 35.5211 2.53084L35.8254 2.52342L35.9516 3.2953Z" fill="white"></path><path d="M34.9351 7.92656C34.6679 8.21602 34.8831 8.68359 35.2691 8.68359C35.4472 8.68359 35.6996 8.42383 35.6996 8.23828C35.6996 8.03789 35.4398 7.79297 35.232 7.79297C35.1355 7.79297 35.0019 7.85234 34.9351 7.92656Z" fill="white"></path><path d="M10.0789 6.58327L7.27344 9.38874V13.3298C7.27344 17.0555 7.28086 17.2782 7.40703 17.3895C7.59258 17.5602 7.81523 17.5454 7.98594 17.3598C8.11953 17.2114 8.12695 17.0258 8.14922 13.6118L8.17148 10.0196H10.1902C12.209 10.0196 12.2164 10.0196 12.5949 9.83405C13.018 9.61881 13.3371 9.22546 13.441 8.78014C13.4781 8.62428 13.5078 7.63717 13.5078 6.58327V4.67585H15.252C16.8996 4.67585 17.0035 4.66842 17.1445 4.52741C17.3301 4.34186 17.3301 4.22311 17.1371 3.97819L16.9887 3.78522H14.9328H12.8844L10.0789 6.58327ZM12.5801 8.51296C12.5578 8.64655 12.4391 8.8321 12.3129 8.936L12.0828 9.12897H10.4426H8.79492L10.6875 7.23639L12.5801 5.34381L12.6023 6.80592C12.6172 7.61491 12.6023 8.37936 12.5801 8.51296Z" fill="white"></path><path d="M18.3715 10.9399C16.0336 11.3926 14.141 12.8696 13.1316 15.0294C12.6566 16.0313 12.5156 16.7661 12.5156 18.0723C12.523 19.2969 12.627 19.8387 13.0648 20.8629C13.5398 21.9762 14.6234 23.2973 15.5883 23.9282C16.3156 24.4106 16.2562 24.2102 16.2562 26.2438C16.2562 27.8395 16.2711 28.0919 16.4047 28.5297C16.7609 29.6801 17.7109 30.4372 19.0098 30.6004C21.1398 30.8676 22.6836 29.9028 23.0176 28.0919C23.0621 27.8544 23.0844 27.2606 23.0695 26.7782C23.0398 25.6575 23.0621 25.6797 21.9191 25.6797H21.0805V24.9227C21.0805 24.0024 21.2141 23.6684 21.7113 23.3122C22.5723 22.6961 23.448 21.62 23.7523 20.7961C24.2199 19.5715 24.0418 18.1094 23.3293 17.1669C22.9062 16.6102 21.8523 16.1946 21.125 16.2911C20.7168 16.343 20.1602 16.5583 19.9523 16.7512C19.752 16.9294 19.7816 17.2633 20.0117 17.4192C20.175 17.5231 20.2344 17.5305 20.4422 17.4489C21.1695 17.1446 21.3031 17.1223 21.6965 17.2114C22.216 17.3301 22.5797 17.5973 22.8172 18.0352C23.0621 18.4805 23.1734 19.2969 23.077 19.8833C22.9434 20.7145 22.3125 21.6719 21.4145 22.3919C20.3754 23.2379 20.2418 23.4903 20.2047 24.7669L20.175 25.6797H19.7H19.225V24.9747C19.225 23.6536 19.0543 23.2899 18.0449 22.4512C17.7184 22.184 17.2805 21.7461 17.0727 21.479C16.7312 21.0633 16.657 21.004 16.4344 21.004C16.234 21.004 16.1598 21.0411 16.1004 21.1821C16.0484 21.286 16.0336 21.4419 16.0559 21.5383C16.1301 21.8204 16.8055 22.5848 17.4957 23.1711C18.2676 23.8169 18.327 23.943 18.327 24.9524L18.3344 25.6797H17.748H17.1617L17.132 24.9153C17.1023 23.995 16.9984 23.7872 16.3008 23.3344C13.4582 21.4938 12.5527 17.8645 14.2004 14.918C14.6309 14.1536 15.7219 13.0477 16.516 12.5876C18.2973 11.5559 20.4125 11.4594 22.3199 12.3204C23.8414 13.0106 25.1699 14.5544 25.6746 16.2094C26.3203 18.3321 25.7266 20.7739 24.1605 22.377C23.8785 22.6739 23.3887 23.0821 23.077 23.2899C22.4387 23.7129 22.2605 23.943 22.2086 24.3958C22.1715 24.7669 22.3273 25.0118 22.6168 25.0118C22.8395 25.0118 23.0844 24.7669 23.0844 24.5368C23.0844 24.3958 23.2031 24.277 23.6262 24.0024C25.207 22.9485 26.3723 21.1821 26.7285 19.2747C26.8398 18.6661 26.8398 17.293 26.7285 16.7364C26.4094 15.1629 25.7266 13.9161 24.5984 12.8399C23.6262 11.9122 22.691 11.3926 21.407 11.0512C20.65 10.8508 19.1137 10.7989 18.3715 10.9399ZM22.1789 27.3274C22.1344 28.2477 21.9563 28.7376 21.5109 29.1383C21.0879 29.5169 20.6574 29.6876 19.9895 29.7321C18.9727 29.8137 18.275 29.6059 17.748 29.0715C17.3102 28.6336 17.1469 28.1364 17.1469 27.2754V26.5704H19.6777H22.216L22.1789 27.3274Z" fill="white"></path><path d="M31.7833 11.0661C31.6942 11.1032 31.5829 11.2146 31.5458 11.3259C31.4938 11.452 31.4716 13.545 31.4716 17.1149L31.479 22.711L27.82 27.9435L24.161 33.1759H18.0009C11.1653 33.1759 11.5067 33.1536 11.5067 33.6509C11.5067 33.7771 11.5438 33.9255 11.5958 33.9774C11.6626 34.0442 13.095 34.0665 17.5704 34.0665C20.8063 34.0665 23.4559 34.0888 23.4559 34.1259C23.4559 34.1556 23.3743 34.304 23.2704 34.4524C22.6841 35.3208 23.0552 36.4267 24.0274 36.7087C24.3837 36.8126 24.4579 36.8126 24.8141 36.7087C25.0591 36.6345 25.2891 36.5083 25.4302 36.3524C25.5563 36.2188 26.9442 34.2669 28.5028 32.0255C30.0688 29.7767 31.3751 27.9138 31.4122 27.8767C31.4419 27.8321 31.4716 28.9009 31.4716 30.2368V32.6712L31.2192 32.9235L30.9669 33.1759H30.0317C29.1337 33.1759 29.0817 33.1833 28.911 33.3614C28.6958 33.5692 28.6809 33.6731 28.8442 33.9032C28.9481 34.0591 29.0075 34.0665 30.0095 34.0665C31.197 34.0665 31.4716 33.9849 31.8946 33.5396C32.3993 33.0052 32.3993 33.0349 32.4216 29.5392L32.4438 26.3849L34.0841 24.047C34.9895 22.763 35.8431 21.4938 35.9766 21.2267C36.1548 20.8778 36.2809 20.4771 36.4071 19.7794C36.511 19.2524 36.5927 18.7181 36.5927 18.5845C36.5927 18.3321 36.3997 18.1095 36.1845 18.1095C35.9692 18.1095 34.2102 19.1485 33.8391 19.4974C33.6462 19.6755 33.2602 20.1505 32.9856 20.5587C32.7036 20.9669 32.4513 21.3009 32.4216 21.3009C32.3845 21.3009 32.3622 19.0372 32.3622 16.2614C32.3622 12.3204 32.3399 11.2071 32.2731 11.1552C32.1098 11.029 31.9614 10.9993 31.7833 11.0661ZM35.472 19.9278C35.4274 20.1728 35.3384 20.4993 35.279 20.6552C35.1677 20.9372 25.0813 35.4321 24.7919 35.729C24.6138 35.9071 24.2427 35.9146 24.0497 35.7364C23.6786 35.4024 23.545 35.6177 28.9927 27.8099C31.7981 23.8021 34.2102 20.3954 34.3587 20.2395C34.5888 19.9946 35.472 19.4157 35.5313 19.4751C35.5462 19.4825 35.5165 19.6903 35.472 19.9278Z" fill="white"></path><path d="M16.7761 17.2188C15.982 17.4934 15.4402 18.3543 15.4105 19.3934C15.4031 19.9426 15.507 20.1133 15.8484 20.1133C16.1082 20.1133 16.2344 19.8906 16.2863 19.3711C16.3457 18.8293 16.5535 18.3914 16.8652 18.1613C17.073 18.0055 18.0082 17.8719 17.9562 18.0055C17.9414 18.0426 17.8301 18.2727 17.7039 18.5176C17.5109 18.9109 17.4812 19.0445 17.4812 19.5938C17.4812 20.1281 17.5109 20.284 17.6816 20.6402C17.9414 21.1672 18.3347 21.4121 18.832 21.3527C19.2699 21.3082 19.5148 21.1152 19.7449 20.6625C19.9008 20.3582 19.9304 20.2023 19.923 19.668C19.9156 18.807 19.7152 18.2875 19.1586 17.7309C18.5054 17.0777 17.6816 16.8996 16.7761 17.2188ZM18.8914 18.8738C19.2773 19.8016 18.884 21.0039 18.4609 20.1875C18.2976 19.8758 18.3273 19.2301 18.5129 18.8664C18.6687 18.5621 18.7652 18.5695 18.8914 18.8738Z" fill="white"></path><path d="M4.41717 18.3098C4.0535 18.5102 2.48006 19.72 2.30936 19.9352C2.05702 20.2543 1.99022 20.6551 2.04217 21.4789L2.09412 22.2286L1.71561 22.5477C1.1367 23.0375 1.01053 23.3344 1.06248 24.1582C1.1367 25.4422 1.51522 26.7856 2.22772 28.27C2.47264 28.7746 2.67303 29.2571 2.67303 29.3387C2.67303 29.4278 2.58397 29.9547 2.47264 30.5188L2.27225 31.543H2.00506C1.85662 31.543 1.6785 31.5875 1.6117 31.6321C1.53006 31.6989 1.36678 32.3075 1.08475 33.584C0.683968 35.3875 0.676547 35.4469 0.802718 35.6176C1.10702 36.0332 3.91991 36.7086 7.37108 37.1985C9.04842 37.436 9.05584 37.436 9.20428 37.295C9.38241 37.1094 10.2137 33.7399 10.1469 33.4578C10.0949 33.2723 9.82772 33.1016 9.57537 33.1016C9.50116 33.1016 9.41209 33.0719 9.38983 33.0274C9.35272 32.968 9.79803 31.1274 10.0281 30.3926L10.0949 30.17L11.0746 30.1922C12.3066 30.2219 12.6035 30.1477 13.0711 29.695C13.3754 29.3981 13.4496 29.2571 13.65 28.6262C13.9097 27.8024 13.932 27.5723 13.7539 27.461C13.6797 27.4164 13.2715 27.2383 12.841 27.0676C11.2008 26.4145 9.82772 25.509 9.50116 24.8633C9.19686 24.2621 8.77381 22.4512 8.46952 20.4547C8.38045 19.8907 8.2617 19.334 8.20233 19.2227C7.92772 18.6883 7.13358 18.4731 6.55467 18.77L6.25037 18.9184L6.06483 18.6735C5.96092 18.5399 5.76053 18.3692 5.61951 18.3024C5.29295 18.1539 4.70662 18.1539 4.41717 18.3098ZM5.33748 19.1782C5.38202 19.2301 5.48592 19.8239 5.56756 20.4918C5.72342 21.709 6.0203 23.3418 6.16131 23.7055C6.29491 24.0543 6.74022 24.1063 6.94803 23.7946C7.03709 23.6461 7.02967 23.5348 6.86639 22.8149C6.69569 22.0653 6.35428 19.8907 6.39881 19.8536C6.51756 19.7571 7.08162 19.5196 7.20037 19.5196C7.39334 19.5196 7.45272 19.6828 7.57147 20.5215C7.82381 22.377 8.38045 24.6629 8.7367 25.3161C9.1078 26.0063 9.76834 26.5332 11.2082 27.2977C11.5941 27.5055 12.1359 27.7578 12.4105 27.8692L12.9004 28.0621L12.7594 28.4926C12.6777 28.7301 12.5293 29.0047 12.4254 29.1012C12.2398 29.2719 12.2027 29.2793 10.8742 29.2793C9.98358 29.2793 9.47889 29.309 9.42694 29.361C9.38241 29.4055 9.14491 30.2145 8.89256 31.1645C8.52147 32.5821 8.41756 32.8789 8.32108 32.8418C8.21717 32.8121 3.20741 31.7657 3.15545 31.7657C3.14803 31.7657 3.22967 31.3055 3.34842 30.7414C3.66014 29.2348 3.65272 29.168 3.08866 27.9805C2.82147 27.4313 2.52459 26.7262 2.42069 26.4219C2.18319 25.702 1.93084 24.4551 1.93084 23.995C1.93084 23.661 2.07928 23.3047 2.2203 23.3047C2.25741 23.3047 2.3242 23.5125 2.37616 23.7649C2.49491 24.3735 2.92537 25.5832 3.09608 25.7688C3.2742 25.9692 3.63787 25.9246 3.77889 25.6723C3.87537 25.5016 3.86053 25.4422 3.67498 24.9746C3.36327 24.1953 3.13319 23.1934 3.00702 22.0356C2.85858 20.7664 2.88827 20.5661 3.25194 20.2618C3.40037 20.143 3.54139 20.0391 3.56366 20.0391C3.59334 20.0391 3.65272 20.4176 3.69725 20.8703C3.87537 22.57 4.38748 24.47 4.72147 24.6926C4.95155 24.8411 5.24842 24.7668 5.35975 24.5368C5.41912 24.3883 5.39686 24.2399 5.21131 23.7352C4.86248 22.7629 4.63241 21.4864 4.50623 19.7571C4.47655 19.4082 4.49881 19.3489 4.66209 19.2227C4.87733 19.052 5.21131 19.0297 5.33748 19.1782ZM5.75311 33.2203C7.63084 33.6063 9.17459 33.9328 9.18202 33.9403C9.19686 33.9625 8.61053 36.3895 8.57342 36.4266C8.50662 36.4934 6.05741 36.1223 4.45428 35.8032C3.1035 35.5286 1.77498 35.1723 1.73045 35.061C1.71561 35.009 1.81209 34.4301 1.96053 33.777C2.10897 33.1239 2.22772 32.5672 2.22772 32.545C2.22772 32.4856 2.16834 32.4707 5.75311 33.2203Z" fill="white"></path><path d="M7.08308 34.9274C6.80847 35.3356 7.26863 35.7958 7.67683 35.5212C7.81042 35.4395 7.8698 35.3356 7.8698 35.1872C7.8698 34.7493 7.31316 34.5637 7.08308 34.9274Z" fill="white"></path></g><defs><clipPath id="clip0_676_1265"><rect width="38" height="38" fill="white"></rect></clipPath></defs></svg>