<svg xmlns="http://www.w3.org/2000/svg" width="46" height="46" viewBox="0 0 46 46" fill="none"><path d="M4.22196 1.09672C3.31714 1.33801 2.5071 2.08772 2.1624 3.0184C1.99005 3.48375 1.99005 3.56992 2.00729 17.8059L2.03314 32.1281L2.26581 32.6193C2.5588 33.2483 3.11032 33.7998 3.76524 34.1187L4.27367 34.3686L8.97878 34.4117L13.6753 34.4548L14.4422 35.2562C15.8124 36.6953 17.398 37.7122 19.2249 38.324C20.5175 38.7549 21.5516 38.9186 22.9735 38.9186C25.5329 38.9186 27.9113 38.143 29.9105 36.635L30.4706 36.2213L30.8067 36.566L31.1514 36.9107L30.7981 37.2727C30.2294 37.8673 30.1259 38.2292 30.3759 38.7032C30.4448 38.8324 31.7719 40.2026 33.3316 41.7537C36.3736 44.7784 36.5718 44.9336 37.5369 45.0542C38.0798 45.1231 38.8899 44.9336 39.3724 44.6319C39.8636 44.3217 40.3979 43.6754 40.5703 43.1756C40.8029 42.4862 40.7685 41.6417 40.4841 41.004C40.2773 40.5559 39.8636 40.1078 37.4249 37.6605C35.8738 36.1007 34.5036 34.7736 34.3743 34.7047C33.9004 34.4548 33.5384 34.5668 32.9697 35.1097L32.6164 35.4458L32.2803 35.1011C32.0045 34.8167 31.9528 34.7219 32.0304 34.6013C32.1166 34.4634 32.5044 34.4548 36.9423 34.4117L41.7595 34.3686L42.2507 34.1359C42.8797 33.8429 43.4743 33.2483 43.7673 32.6193L44 32.1281V17.6939V3.25969L43.7673 2.7685C43.4743 2.13943 42.8797 1.54482 42.2507 1.25183L41.7595 1.01916L23.1889 1.00193C8.55653 0.993309 4.53219 1.01054 4.22196 1.09672ZM41.4579 3.17352C41.9663 3.44066 41.9749 3.48375 41.9749 7.13754V10.4552H23.0166H4.05823V7.13754C4.05823 4.33687 4.07547 3.76812 4.1875 3.5613C4.47187 3.00979 3.02414 3.05288 22.9993 3.04426C39.1139 3.04426 41.2338 3.06149 41.4579 3.17352ZM41.9749 22.0457C41.9749 32.5072 42.0008 31.9299 41.4579 32.2142C41.2424 32.3263 40.6306 32.3435 37.3646 32.3435C35.2533 32.3435 33.5298 32.3263 33.5298 32.309C33.5298 32.2832 33.6505 31.973 33.797 31.6024C34.6932 29.3619 34.8655 26.768 34.2623 24.4069C33.1334 19.9516 29.4366 16.5305 24.921 15.755C23.8869 15.574 22.0083 15.574 20.9915 15.755C16.0451 16.6167 12.2965 20.3739 11.4261 25.3203C11.2538 26.3199 11.2538 28.2675 11.4261 29.2585C11.564 30.0771 11.9001 31.1888 12.2103 31.8868L12.4085 32.3435H8.61685C5.39393 32.3435 4.79072 32.3263 4.57528 32.2142C4.03238 31.9299 4.05823 32.5072 4.05823 22.0457V12.5234H23.0166H41.9749V22.0457ZM24.1885 17.7025C26.2998 17.9955 28.2387 18.9606 29.7382 20.4515C31.229 21.9509 32.1941 23.8898 32.4871 26.0011C32.7456 27.8194 32.3751 29.9306 31.5133 31.6283C30.5396 33.5499 28.773 35.2131 26.8082 36.0576C23.7318 37.3847 20.371 37.0831 17.6048 35.2476C15.4505 33.8085 13.9424 31.5076 13.4426 28.8965C13.2875 28.0779 13.3133 26.2337 13.4943 25.4065C14.132 22.399 16.002 19.9516 18.6906 18.6073C20.2848 17.8059 22.422 17.4526 24.1885 17.7025ZM34.2882 38.6084L33.7022 39.1944L33.2282 38.7204L32.7543 38.2551L33.3316 37.6691L33.9176 37.0831L34.3916 37.557L34.8655 38.031L34.2882 38.6084ZM38.7003 42.1932C38.7003 42.6327 38.4159 42.9429 37.942 43.0033L37.5714 43.055L36.3736 41.8571L35.1671 40.6679L35.7445 40.0819L36.3305 39.4873L37.5111 40.6852C38.5969 41.7796 38.7003 41.9002 38.7003 42.1932Z" fill="black"></path><path d="M7.10076 5.87915C6.79053 6.06873 6.55786 6.46513 6.55786 6.77536C6.55786 7.0425 6.88532 7.53369 7.16108 7.68019C7.29034 7.74051 7.54025 7.77498 7.7643 7.74913C8.3589 7.68881 8.81563 7.08559 8.67775 6.53407C8.64328 6.41343 8.51402 6.19799 8.38476 6.0515C8.06591 5.69818 7.50578 5.62062 7.10076 5.87915Z" fill="#FB8D00"></path><path d="M10.3742 5.88807C10.2277 5.97424 10.0554 6.12936 10.0123 6.22415C9.87439 6.47405 9.90024 7.11174 10.0554 7.33579C10.4776 7.94763 11.5203 7.91316 11.8564 7.26686C12.3476 6.31032 11.2963 5.31932 10.3742 5.88807Z" fill="#FB8D00"></path><path d="M13.7448 5.853C13.0123 6.21493 13.021 7.30072 13.7621 7.65404C14.1498 7.835 14.5032 7.81777 14.8392 7.5851C15.9164 6.86123 14.9168 5.27563 13.7448 5.853Z" fill="#FB8D00"></path><path d="M26.4121 5.80129C25.8606 6.02535 25.6193 6.75783 25.9209 7.27487C26.2311 7.80053 26.0243 7.79192 32.7545 7.76607L38.8901 7.74021L39.14 7.46446C39.5795 6.96464 39.5795 6.53377 39.14 6.03396L38.8901 5.7582L32.7373 5.74097C29.3593 5.73235 26.5155 5.7582 26.4121 5.80129Z" fill="#FB8D00"></path><path d="M26.7219 22.6145C25.1966 22.8041 25.0932 22.83 24.8519 23.054C24.2056 23.6572 24.5417 24.6741 25.4465 24.812C25.6274 24.8464 25.7739 24.8809 25.7739 24.9068C25.7739 24.924 25.3172 25.4755 24.7657 26.1304L23.7661 27.3283L22.3873 26.6475C20.8965 25.9064 20.5432 25.8288 20.1468 26.1391C19.9055 26.3286 16.6395 30.3013 16.4757 30.5943C16.0535 31.3957 16.9842 32.3608 17.8028 31.9731C18.0527 31.8524 18.5181 31.3095 20.862 28.4399C20.9913 28.2848 21.0516 28.3106 22.3701 28.9397C23.7661 29.6119 24.1366 29.7067 24.5072 29.5085C24.6192 29.4481 25.3086 28.6898 26.0411 27.8195C26.7736 26.9491 27.394 26.2338 27.4371 26.2338C27.4716 26.2252 27.4974 26.3028 27.4974 26.389C27.4974 26.6475 27.9455 27.0697 28.2902 27.1301C28.6866 27.2076 29.1864 26.9836 29.3502 26.6475C29.5139 26.3286 29.5139 25.8461 29.3157 24.3552C29.1434 23.0109 29.0399 22.7524 28.5746 22.5542C28.2299 22.4163 28.3247 22.4077 26.7219 22.6145Z" fill="#FB8D00"></path></svg>