<svg xmlns="http://www.w3.org/2000/svg" width="46" height="46" viewBox="0 0 46 46" fill="none"><path d="M22.6047 1.096C22.4879 1.25771 22.4609 1.56318 22.4609 2.60537C22.4609 4.08779 22.5148 4.24951 23 4.24951C23.4852 4.24951 23.5391 4.08779 23.5391 2.60537C23.5391 1.13193 23.4672 0.89834 23 0.89834C22.8383 0.89834 22.6945 0.970215 22.6047 1.096Z" fill="black"></path><path d="M15.7406 2.38988C15.6328 2.46176 15.543 2.62348 15.543 2.74926C15.543 3.0098 16.3965 5.10316 16.6031 5.31879C16.8816 5.64223 17.4297 5.39965 17.4297 4.9684C17.4297 4.67191 16.5312 2.57855 16.3336 2.39887C16.109 2.21019 16.0012 2.21019 15.7406 2.38988Z" fill="black"></path><path d="M29.6664 2.39889C29.4598 2.57858 28.5703 4.68092 28.5703 4.98639C28.5703 5.40866 29.1273 5.63327 29.3969 5.31881C29.6035 5.10319 30.457 3.00983 30.457 2.74928C30.457 2.53366 30.1695 2.24616 29.9539 2.24616C29.891 2.24616 29.7652 2.31803 29.6664 2.39889Z" fill="black"></path><path d="M9.88281 6.27109C9.68516 6.325 9.52344 6.56758 9.52344 6.7832C9.52344 7.00781 11.482 8.98438 11.7066 8.98438C11.9223 8.98438 12.2188 8.66094 12.2188 8.41836C12.2188 8.28359 11.9133 7.92422 11.2574 7.26836C10.2781 6.29805 10.1254 6.19023 9.88281 6.27109Z" fill="black"></path><path d="M35.8477 6.27109C35.7758 6.28906 35.2816 6.73828 34.7516 7.25938C34.0867 7.91523 33.7812 8.28359 33.7812 8.41836C33.7812 8.66094 34.0777 8.98438 34.2934 8.98438C34.518 8.98438 36.4766 7.00781 36.4766 6.7832C36.4766 6.4418 36.1441 6.17227 35.8477 6.27109Z" fill="black"></path><path d="M22.0567 6.74726C14.0156 7.22344 8.16681 14.8063 9.70314 22.7664C10.2422 25.5426 11.4461 27.7258 13.7731 30.1516C14.9231 31.3555 15.3543 32.0383 15.8215 33.4219C16.1 34.2305 16.118 34.3652 16.1719 36.0273C16.2348 37.9949 16.3156 38.3094 16.8547 38.6598C17.1422 38.8484 17.1602 38.8844 17.1602 39.4055C17.1602 40.5375 17.6453 41.4539 18.4719 41.8672L18.9301 42.0918L18.975 42.9633C19.0109 43.727 19.0559 43.8977 19.2805 44.266C19.4512 44.5355 19.6848 44.7602 19.9363 44.8949C20.3227 45.1016 20.3856 45.1016 22.9461 45.1016C25.4887 45.1016 25.5785 45.0926 25.9649 44.8949C26.1985 44.7781 26.477 44.5355 26.6387 44.3109C26.8813 43.9516 26.9082 43.8527 26.9352 43.0082L26.9711 42.0828L27.3664 41.9211C27.8875 41.7055 28.4445 41.0676 28.6152 40.4926C28.6871 40.241 28.75 39.7738 28.75 39.4504C28.759 38.8844 28.768 38.8484 29.0465 38.6777C29.2082 38.5789 29.4238 38.3184 29.5406 38.0938C29.7203 37.7344 29.7383 37.5637 29.7383 36.3867C29.7383 34.9762 29.8192 34.3473 30.1156 33.4219C30.5379 32.1191 31.0859 31.2926 32.6313 29.6754C34.1856 28.0402 35.1379 26.4859 35.7938 24.5094C36.3418 22.8652 36.4317 22.2723 36.4317 20.2148C36.4227 18.5258 36.4047 18.2832 36.1711 17.2949C35.7309 15.3813 34.9582 13.7012 33.7992 12.1379C33.1434 11.2395 31.7598 9.87383 30.8434 9.22696C28.9207 7.86133 26.4141 6.92695 24.2758 6.77422C23.8984 6.74726 23.4852 6.72031 23.3594 6.70234C23.2336 6.69336 22.6496 6.71133 22.0567 6.74726ZM25.3988 7.98711C27.9953 8.52617 30.1246 9.70312 31.9844 11.6527C33.3231 13.0453 34.2664 14.6086 34.8414 16.3965C35.6231 18.7773 35.6231 21.8051 34.8504 24.123C34.1766 26.1086 33.2781 27.5191 31.5172 29.352C30.4391 30.475 29.8102 31.3734 29.3879 32.3887C28.8668 33.6285 28.741 34.3023 28.6871 36.0543C28.6422 37.2672 28.6063 37.6895 28.5074 37.7883C28.3996 37.8961 27.5281 37.9141 22.9641 37.9141C17.9149 37.9141 17.5375 37.9051 17.4117 37.7523C17.2949 37.6355 17.259 37.2672 17.2231 35.9824C17.1781 34.2215 17.0524 33.5746 16.5313 32.3168C16.118 31.3105 15.4621 30.3941 14.2852 29.1543C12.3445 27.1059 11.2754 25.1473 10.7184 22.6227C10.4938 21.5625 10.4938 18.8582 10.7274 17.798C11.4461 14.4738 13.3418 11.6617 16.0641 9.84687C17.7711 8.70586 19.559 8.05899 21.7422 7.78047C22.4609 7.69062 24.5094 7.80742 25.3988 7.98711ZM27.6719 39.5402C27.6719 40.25 27.4832 40.6453 26.9981 40.9328L26.6117 41.1574L22.8832 41.1305C19.2535 41.1035 19.1457 41.0945 18.8942 40.9148C18.418 40.5645 18.2383 40.1871 18.2383 39.5672V38.9922H22.9551H27.6719V39.5402ZM25.875 42.9273C25.875 43.682 25.7402 43.9605 25.309 44.0684C25.2012 44.0953 24.0602 44.1133 22.7844 44.0953L20.4664 44.0684L20.2508 43.8168C20.0621 43.6012 20.0352 43.4754 20.0352 42.8914V42.2266H22.9551H25.875V42.9273Z" fill="black"></path><path d="M19.6039 10.5928C18.7504 10.8893 17.9867 11.7069 17.7801 12.5424C17.6902 12.8928 17.6274 12.9557 17.2141 13.1444C16.2617 13.5846 15.7766 14.3213 15.7766 15.3365L15.7676 15.9924L15.3723 16.1272C13.6473 16.7112 12.5422 18.517 12.8477 20.224C12.9824 20.9428 13.1981 21.419 13.6383 21.985L14.0156 22.4522L13.8629 23.0541C13.6024 24.1053 13.9258 25.2553 14.6984 26.028C15.0938 26.4233 15.7586 26.8006 16.2258 26.8994C16.4594 26.9533 16.5223 27.0162 16.5672 27.2498C16.8816 28.876 18.5887 30.1338 20.2688 29.9811C21.1672 29.8912 21.7961 29.6037 22.434 28.9838L23 28.4268L23.566 28.9838C23.9703 29.3791 24.2758 29.5858 24.6621 29.7295C26.0906 30.2686 27.591 29.9451 28.5703 28.876C28.9566 28.4537 29.343 27.735 29.4328 27.2498C29.4777 27.0162 29.5406 26.9533 29.7742 26.8994C30.2594 26.8006 30.9063 26.4143 31.3106 26.001C32.0922 25.2014 32.3977 24.1053 32.1371 23.0451L31.9844 22.4432L32.2899 22.0748C32.7211 21.5358 33.0356 20.8709 33.1524 20.242C33.4578 18.517 32.3527 16.7201 30.6277 16.1272L30.2324 15.9924L30.2234 15.3365C30.2234 14.3213 29.7383 13.5846 28.7859 13.1444C28.3727 12.9557 28.3098 12.8928 28.2199 12.5424C28.166 12.3268 27.9953 11.9584 27.8336 11.7158C26.8184 10.2155 24.734 9.98186 23.4402 11.2217L23 11.644L22.5598 11.2217C21.7781 10.467 20.6551 10.2334 19.6039 10.5928ZM26.468 11.7787C26.7734 11.9674 27.2227 12.6143 27.2227 12.8569C27.2227 12.9287 27.0789 13.0455 26.8902 13.1084C26.477 13.2612 25.8211 13.8631 25.5965 14.3123C25.327 14.8334 25.2731 15.4983 25.4707 15.7229C25.8391 16.1272 26.4141 15.8217 26.4141 15.2287C26.4141 14.5729 27.0609 14.0158 27.8066 14.0158C28.6422 14.0158 29.1992 14.5729 29.1992 15.4084C29.1992 16.1541 28.6422 16.801 27.9863 16.801C27.609 16.801 27.3125 17.0256 27.3125 17.3131C27.3125 17.6455 27.5551 17.8791 27.9055 17.8791C28.3547 17.8791 29.1363 17.5557 29.4328 17.2412C29.6574 17.0076 29.7383 16.9807 30.0078 17.0256C31.4992 17.3131 32.4875 18.9662 32.0293 20.4307C31.7238 21.401 30.8703 22.1108 29.7652 22.3174C29.2621 22.4073 29.1363 22.4701 29.0285 22.6588C28.9117 22.8655 28.9117 22.9194 29.0465 23.126C29.1813 23.3326 29.2621 23.3596 29.6754 23.3596C29.927 23.3506 30.3492 23.2787 30.6098 23.1889C31.068 23.0362 31.077 23.0362 31.1219 23.2158C31.2926 23.8448 31.1039 24.6444 30.6547 25.1565C29.8641 26.0819 28.6332 26.2076 27.5641 25.4709C27.3125 25.3002 27.0789 25.1565 27.034 25.1565C26.9981 25.1565 26.8543 25.2463 26.7195 25.3631C26.5219 25.5338 26.4859 25.6237 26.5399 25.8123C26.6117 26.1268 27.3035 26.6299 27.9234 26.8186C28.4805 26.9983 28.4984 27.0791 28.1211 27.735C27.8336 28.2381 27.3125 28.6514 26.7375 28.8401C26.1984 29.0108 25.2551 28.9119 24.7609 28.6244C23.9164 28.1303 23.5391 27.3846 23.5391 26.2076C23.5391 25.5158 23.5481 25.4889 23.8445 25.1924C24.0242 25.0127 24.2399 24.8869 24.3746 24.8869C24.6441 24.8869 25.0664 24.5725 25.0664 24.3569C25.0664 24.276 25.0035 24.1143 24.9227 24.0065C24.7609 23.7729 24.3207 23.7459 23.8535 23.9346L23.5391 24.0694V22.7307V21.383L23.9703 21.6615C25.0305 22.3354 26.2344 22.3533 26.2344 21.6975C26.2344 21.3561 26.0367 21.2033 25.4707 21.1135C24.7699 20.9967 24.1949 20.6373 23.8535 20.0893C23.593 19.658 23.584 19.6131 23.557 18.3194C23.5301 17.2682 23.557 16.9448 23.6649 16.7291C23.7996 16.4686 24.2848 16.1721 24.5813 16.1721C24.7879 16.1721 25.0664 15.9115 25.0664 15.7319C25.0664 15.651 25.0035 15.4893 24.9227 15.3725C24.7879 15.1838 24.716 15.1658 24.3117 15.2108C24.0602 15.2287 23.7816 15.2826 23.7008 15.3186C23.5481 15.3815 23.5391 15.2916 23.5391 14.1865C23.5391 12.9647 23.6379 12.5514 24.0063 12.1291C24.6262 11.4283 25.6594 11.2756 26.468 11.7787ZM21.266 11.599C21.6254 11.7338 22.0926 12.201 22.2902 12.6233C22.425 12.9198 22.4609 13.2073 22.4609 14.1865C22.4609 15.2916 22.452 15.3815 22.3082 15.3186C22.2184 15.2826 21.9399 15.2287 21.6883 15.2108C21.284 15.1658 21.2121 15.1838 21.0774 15.3725C20.9965 15.4893 20.9336 15.642 20.9336 15.7139C20.9336 15.9026 21.2031 16.1721 21.4098 16.1721C21.7152 16.1721 22.2004 16.4596 22.3352 16.7291C22.443 16.9448 22.4699 17.2682 22.443 18.3194C22.416 19.6131 22.407 19.658 22.1465 20.0893C21.8051 20.6373 21.2301 20.9967 20.5293 21.1135C19.9723 21.2033 19.7656 21.3561 19.7656 21.6885C19.7656 21.976 20.0262 22.1916 20.3945 22.1916C20.8617 22.1916 21.5356 21.976 22.0387 21.6615L22.4609 21.383V22.7307V24.0694L22.1465 23.9346C21.6793 23.7459 21.2391 23.7729 21.0774 24.0065C20.9965 24.1143 20.9336 24.276 20.9336 24.3569C20.9336 24.5725 21.3559 24.8869 21.6254 24.8869C21.7602 24.8869 21.9758 25.0127 22.1555 25.1924C22.452 25.4889 22.4609 25.5158 22.4609 26.2076C22.4609 27.3846 22.0836 28.1303 21.2391 28.6244C20.7449 28.9119 19.8016 29.0108 19.2625 28.8401C18.6875 28.6514 18.1664 28.2381 17.8789 27.735C17.5106 27.0881 17.5285 26.9983 18.0676 26.8276C18.8852 26.558 19.4961 26.0639 19.4961 25.6865C19.4961 25.5338 19.1008 25.1565 18.957 25.1565C18.9211 25.1565 18.6875 25.3002 18.4359 25.4709C17.3668 26.2076 16.1359 26.0819 15.3453 25.1565C14.8961 24.6444 14.7074 23.8448 14.8781 23.2158C14.9231 23.0362 14.932 23.0362 15.3902 23.1889C15.6508 23.2787 16.0731 23.3506 16.3246 23.3596C16.7379 23.3596 16.8188 23.3326 16.9535 23.126C17.0883 22.9194 17.0883 22.8655 16.9715 22.6588C16.8637 22.4701 16.7379 22.4073 16.2348 22.3174C14.4379 21.985 13.4227 20.3408 14.0156 18.7506C14.3391 17.8971 15.1566 17.1873 15.9922 17.0256C16.2617 16.9807 16.3426 17.0076 16.5672 17.2412C16.8637 17.5467 17.6453 17.8791 18.0766 17.8791C18.4359 17.8791 18.6875 17.6545 18.6875 17.3311C18.6875 17.0256 18.4 16.801 18.0137 16.801C17.3578 16.801 16.8008 16.1541 16.8008 15.4084C16.8008 14.5729 17.3578 14.0158 18.1934 14.0158C18.9391 14.0158 19.5859 14.5729 19.5859 15.2287C19.5859 15.8217 20.1609 16.1272 20.5293 15.7229C20.727 15.4983 20.6731 14.8334 20.4035 14.3123C20.1789 13.8631 19.5231 13.2612 19.1098 13.1084C18.7055 12.9647 18.6965 12.8299 19.0379 12.2998C19.4691 11.617 20.4754 11.2936 21.266 11.599Z" fill="#FB8D00"></path><path d="M24.734 11.9493C24.2129 12.2638 23.9973 13.0185 24.3297 13.324C24.6352 13.6025 24.9946 13.5036 25.1473 13.0904C25.2012 12.9556 25.3539 12.8029 25.4887 12.749C25.7762 12.6411 25.875 12.5154 25.875 12.2458C25.875 11.7786 25.2641 11.6169 24.734 11.9493Z" fill="#FB8D00"></path><path d="M24.2578 17.6006C23.8355 18.4002 25.1473 19.6131 25.7312 18.9663C25.9918 18.6788 25.884 18.3104 25.4977 18.1217C25.3 18.0229 25.1562 17.8881 25.1562 17.7983C25.1562 17.5647 24.9676 17.4299 24.6441 17.4299C24.4465 17.4299 24.3207 17.4838 24.2578 17.6006Z" fill="#FB8D00"></path><path d="M28.6961 19.1279C27.8246 19.5232 27.1777 20.8888 27.6539 21.3201C28.0402 21.6705 28.5703 21.383 28.5703 20.8259C28.5703 20.4576 28.9117 20.1252 29.4238 19.9904C30.0078 19.8466 30.2145 19.5502 29.9809 19.1908C29.8551 19.0021 29.7563 18.9572 29.4418 18.9572C29.2352 18.9572 28.9027 19.038 28.6961 19.1279Z" fill="#FB8D00"></path><path d="M26.3871 22.8023C26.0906 23.1258 26.2613 23.5211 26.7555 23.6648C26.8633 23.7008 26.9531 23.7996 26.9531 23.8895C26.9531 24.0961 27.2316 24.3477 27.4742 24.3477C27.9414 24.3477 28.1121 23.602 27.7527 23.1437C27.3754 22.6586 26.6746 22.4879 26.3871 22.8023Z" fill="#FB8D00"></path><path d="M24.4555 26.0187C24.0512 26.2973 24.2848 27.2855 24.8867 27.7887C25.1473 28.0133 25.6594 28.2109 25.9649 28.2109C26.2613 28.2109 26.5129 27.9324 26.486 27.6449C26.459 27.3484 26.2524 27.1867 25.7672 27.0879C25.5067 27.034 25.2461 26.6566 25.2461 26.3332C25.2461 26.1625 24.9406 25.875 24.752 25.875C24.6981 25.875 24.5633 25.9379 24.4555 26.0187Z" fill="#FB8D00"></path><path d="M20.2688 11.9133C20.116 12.057 20.0801 12.3715 20.1969 12.5512C20.2328 12.6051 20.3766 12.6949 20.5113 12.7488C20.6461 12.8027 20.7988 12.9555 20.8528 13.0902C20.9606 13.3777 21.0863 13.4766 21.3469 13.4766C21.8051 13.4766 21.9758 12.8566 21.6524 12.3355C21.3469 11.8324 20.5832 11.5988 20.2688 11.9133Z" fill="#FB8D00"></path><path d="M20.9516 17.5377C20.8887 17.6006 20.8438 17.7174 20.8438 17.7983C20.8438 17.8881 20.7 18.0229 20.5113 18.1217C20.116 18.3104 20.0082 18.6788 20.2688 18.9663C20.8527 19.6131 22.1645 18.4002 21.7422 17.6006C21.6344 17.403 21.1313 17.3581 20.9516 17.5377Z" fill="#FB8D00"></path><path d="M16.0192 19.1908C15.7856 19.5501 15.9922 19.8466 16.5762 19.9904C17.0883 20.1251 17.4297 20.4576 17.4297 20.8259C17.4297 21.383 18.0137 21.6884 18.3551 21.3111C18.7953 20.8259 18.1574 19.5142 17.3039 19.1279C17.0973 19.038 16.7649 18.9572 16.5582 18.9572C16.2438 18.9572 16.1449 19.0021 16.0192 19.1908Z" fill="#FB8D00"></path><path d="M18.6336 22.8113C18.2383 23.0539 18.0586 23.3414 18.0586 23.7367C18.0586 24.1141 18.2473 24.3477 18.5437 24.3477C18.7773 24.3477 19.0469 24.0961 19.0469 23.8715C19.0469 23.7996 19.1367 23.7008 19.2535 23.6648C19.7477 23.5211 19.9184 23.0809 19.6039 22.7934C19.3793 22.5957 18.975 22.6047 18.6336 22.8113Z" fill="#FB8D00"></path><path d="M20.9516 26.0187C20.8438 26.0906 20.7539 26.2344 20.7539 26.3332C20.7539 26.6566 20.4934 27.034 20.2328 27.0879C19.7477 27.1867 19.541 27.3484 19.5141 27.6449C19.4871 27.9324 19.7387 28.2109 20.0352 28.2109C20.3406 28.2109 20.8527 28.0133 21.1133 27.7887C21.7152 27.2855 21.9488 26.2973 21.5445 26.0187C21.4367 25.9379 21.302 25.875 21.2481 25.875C21.1941 25.875 21.0594 25.9379 20.9516 26.0187Z" fill="#FB8D00"></path><path d="M5.76797 12.2727C5.52539 12.4434 5.50742 12.8477 5.73203 13.0453C5.92968 13.216 8.1039 14.1055 8.3375 14.1055C8.70586 14.1055 8.93047 13.5844 8.69687 13.2789C8.59804 13.1621 6.19922 12.1289 6.01953 12.1289C5.99257 12.1289 5.87578 12.1918 5.76797 12.2727Z" fill="black"></path><path d="M38.6328 12.641C37.968 12.9105 37.366 13.198 37.3121 13.2789C37.0606 13.5934 37.2941 14.1055 37.6805 14.1055C37.8961 14.1055 40.0793 13.216 40.277 13.0453C40.4926 12.8477 40.4746 12.4434 40.232 12.2727C40.1242 12.1918 39.9895 12.1289 39.9356 12.1379C39.8906 12.1379 39.2977 12.3625 38.6328 12.641Z" fill="black"></path><path d="M4.24962 19.4602C4.11485 19.6758 4.11485 19.7208 4.23165 19.9364L4.36642 20.17L5.8129 20.1969C7.37618 20.2239 7.54689 20.179 7.54689 19.7298C7.54689 19.2895 7.33126 19.2266 5.8129 19.2266H4.40235L4.24962 19.4602Z" fill="black"></path><path d="M38.6059 19.3883C38.4172 19.5949 38.4082 19.8914 38.5969 20.0711C38.7137 20.1879 38.9832 20.2148 40.1602 20.2148H41.5977L41.7504 19.9813C41.8852 19.7656 41.8852 19.7207 41.7684 19.5051L41.6336 19.2715L40.1961 19.2445C38.8844 19.2266 38.7406 19.2355 38.6059 19.3883Z" fill="black"></path><path d="M7.0258 25.7402C6.36096 26.0098 5.76799 26.2703 5.69611 26.3332C5.40861 26.5668 5.66017 27.2227 6.03752 27.2227C6.20822 27.2227 8.5172 26.2703 8.68791 26.1355C8.87658 25.9738 8.83166 25.5426 8.60705 25.3898C8.49924 25.309 8.36447 25.2461 8.31056 25.2461C8.26564 25.2551 7.68166 25.4707 7.0258 25.7402Z" fill="black"></path><path d="M37.393 25.3898C37.1684 25.5426 37.1234 25.9738 37.3121 26.1355C37.4918 26.2793 39.8008 27.2227 39.9805 27.2227C40.4027 27.2227 40.5914 26.5219 40.232 26.2883C40.0164 26.1535 37.7883 25.2461 37.6625 25.2461C37.6266 25.2461 37.5008 25.309 37.393 25.3898Z" fill="black"></path><path d="M33.925 30.6008C33.6285 30.8883 33.7543 31.1039 34.7965 32.1461C35.3535 32.6941 35.8656 33.1523 35.9375 33.1523C36.1891 33.1523 36.4766 32.8828 36.4766 32.6402C36.4766 32.4605 36.243 32.1641 35.5152 31.4363C34.509 30.4121 34.2484 30.2773 33.925 30.6008Z" fill="black"></path><path d="M10.3949 31.607C9.80195 32.2 9.61328 32.4516 9.61328 32.6313C9.61328 32.8738 9.8918 33.1523 10.1434 33.1523C10.2063 33.1523 10.6465 32.784 11.1047 32.3258C11.9762 31.4723 12.093 31.2477 11.8055 30.9602C11.5 30.6457 11.2215 30.7805 10.3949 31.607Z" fill="black"></path></svg>