<svg xmlns="http://www.w3.org/2000/svg" width="46" height="46" viewBox="0 0 46 46" fill="none"><g clip-path="url(#clip0_508_2390)"><path d="M2.62344 0.134766C0.979297 0.59297 -0.134766 2.19219 0.0269531 3.86328C0.107812 4.74375 0.413281 5.37266 1.06914 6.02852C1.86875 6.82812 2.4168 7.04375 3.59375 7.05273C4.38437 7.05273 4.50117 7.02578 5.04023 6.76523C5.75898 6.40586 6.47773 5.67813 6.79219 4.98633L7.0168 4.49219H10.1793H13.3418L12.8027 4.81563C11.4191 5.65117 9.58633 7.37617 8.60703 8.76875C7.53789 10.2871 6.62148 12.4074 6.25313 14.1953C6.06445 15.1387 5.92969 16.657 5.92969 17.8969V18.957H5.02227C4.00703 18.957 3.59375 19.0828 3.42305 19.4602C3.36016 19.6129 3.32422 20.6102 3.32422 22.6047V25.5336L3.58477 25.7941L3.84531 26.0547H6.84609C10.1164 26.0547 10.1074 26.0547 10.323 25.5336C10.3949 25.3539 10.4219 24.4555 10.4039 22.3891L10.377 19.4961L10.1254 19.2535C9.8918 19.0109 9.83789 19.002 8.78672 18.975L7.69961 18.9391L7.75352 17.3129C7.81641 15.4441 7.96914 14.4379 8.40039 13.1441C9.90078 8.64297 13.7281 5.38164 18.409 4.61797C19.5949 4.4293 19.4961 4.34844 19.4961 5.43555C19.4961 6.47774 19.5859 6.77422 19.9543 6.97188C20.3227 7.16055 25.7672 7.16055 26.1355 6.97188C26.5039 6.77422 26.5937 6.47774 26.5937 5.41758V4.47422L27.1148 4.53711C29.9898 4.87852 32.5414 6.11836 34.5898 8.17578C37.2133 10.7902 38.3543 13.8 38.3633 18.1215V18.9391L37.2762 18.975L36.1891 19.002L35.9285 19.2984L35.659 19.5949L35.6859 22.6047L35.7129 25.6234L35.9645 25.8391L36.216 26.0547H39.2258H42.2445L42.5051 25.7941L42.7656 25.5336V22.5598V19.5859L42.5051 19.2984L42.2445 19.002L41.2113 18.975L40.1871 18.9391L40.1242 17.2949C40.0074 13.8449 39.3066 11.5359 37.6355 9.01133C36.7461 7.69063 35.084 6.01953 33.7543 5.13906L32.784 4.49219H35.8746H38.9652L39.2437 5.0582C39.5941 5.75899 40.3219 6.47774 41.0316 6.81016C41.4809 7.0168 41.6695 7.05273 42.4062 7.05273C43.5832 7.04375 44.1312 6.82812 44.9309 6.02852C45.3801 5.5793 45.5687 5.30078 45.7215 4.90547C46.2785 3.41406 45.9371 1.95859 44.7781 0.907423C44.0953 0.2875 43.4844 0.062891 42.4512 0.0539074C41.3191 0.0539074 40.7621 0.278517 39.9715 1.06914C39.5402 1.50039 39.3336 1.79688 39.1988 2.15625L39.0102 2.65039L32.802 2.67734L26.5937 2.69531V1.71602C26.5937 0.619923 26.5039 0.323439 26.1355 0.125782C25.7672 -0.062891 20.3227 -0.062891 19.9543 0.134766C19.5949 0.314453 19.55 0.449219 19.4961 1.61719L19.4512 2.65039H13.216H6.98984L6.80117 2.15625C6.54063 1.45547 5.6332 0.548048 4.89648 0.269531C4.21367 0.00898552 3.26133 -0.0449219 2.62344 0.134766ZM4.20469 1.93164C4.64492 2.12031 4.93242 2.39883 5.13008 2.83008C5.54336 3.72852 5.13008 4.7707 4.20469 5.16602C3.34219 5.52539 2.36289 5.13008 1.96758 4.26758C1.31172 2.84805 2.76719 1.33867 4.20469 1.93164ZM24.7969 3.54883V5.30078H23.0449H21.293V3.54883V1.79688H23.0449H24.7969V3.54883ZM43.107 1.93164C44.5535 2.54258 44.5535 4.55508 43.107 5.16602C42.2445 5.52539 41.2652 5.13008 40.8699 4.26758C40.2141 2.84805 41.6695 1.33867 43.107 1.93164ZM8.625 22.5059V24.2578H6.87305H5.12109V22.5059V20.7539H6.87305H8.625V22.5059ZM40.9688 22.5059V24.2578H39.2168H37.4648V22.5059V20.7539H39.2168H40.9688V22.5059Z" fill="black"></path><path d="M22.4789 12.5511C22.3352 12.6859 12.9016 28.9296 12.3625 29.9808C12.2816 30.1425 12.2188 30.3761 12.2188 30.5109C12.2188 30.6366 12.8656 32.5593 13.6562 34.7695C14.4469 36.9796 15.0938 38.8214 15.0938 38.8484C15.0938 38.8753 14.7523 38.9023 14.3301 38.9023C13.4766 38.9023 13.1621 39.0101 12.9734 39.3605C12.8027 39.6929 12.7848 45.1374 12.9555 45.5058C13.1891 46.0179 12.7309 45.9999 23.0988 45.9999H32.6313L32.9367 45.6945L33.2422 45.389V42.496C33.2422 38.8394 33.2691 38.9023 31.7418 38.9023C31.059 38.9023 30.9781 38.8843 31.0141 38.7405C31.041 38.6597 31.6969 36.8179 32.4695 34.6527C33.2422 32.4964 33.8711 30.6097 33.8711 30.4749C33.8711 30.3222 33.4848 29.5495 32.8738 28.4984C32.0473 27.0609 31.8227 26.7374 31.5711 26.6206C31.1938 26.432 30.7715 26.5398 30.5199 26.8902C30.1965 27.3124 30.2863 27.6089 31.1758 29.1452L32.0023 30.5738L31.7688 31.2566C31.634 31.6339 30.9691 33.4937 30.2953 35.3984L29.0555 38.8573L23.0359 38.8753L17.0254 38.9023L15.552 34.7695C14.7434 32.4964 14.1055 30.5827 14.1324 30.5198C14.1504 30.457 15.9562 27.3214 18.1395 23.539L22.1016 16.6749L22.1105 19.5948C22.1105 22.8562 22.1375 23.0359 22.6496 23.3054C23.027 23.512 23.3594 23.4581 23.6828 23.1347L23.8984 22.9191V19.7925C23.8984 17.1691 23.9164 16.6929 24.0152 16.8007C24.0871 16.8726 24.716 17.9417 25.4258 19.1816C26.9711 21.8769 33.8842 33.9002 30.9625 28.4984C31.3039 28.5702 32.3259 28.3007 32.4786 28.0312C32.7212 27.564 28.5434 20.9964 26.0996 16.7648C24.7969 14.5007 23.6559 12.596 23.566 12.5241C23.3324 12.3534 22.6945 12.3624 22.4789 12.5511ZM31.4453 42.4511V44.203H23.0449H14.6445V42.4511V40.6991H23.0449H31.4453V42.4511Z" fill="#FB8D00"></path><path d="M22.2184 27.0337C21.2391 27.2853 20.2328 28.1388 19.7836 29.0821C19.568 29.5403 19.541 29.711 19.541 30.5017C19.541 31.3282 19.568 31.445 19.8375 31.9931C20.2059 32.7567 20.9875 33.5024 21.7152 33.7899C22.1195 33.9517 22.416 33.9966 23.0449 33.9966C24.0691 33.9966 24.6891 33.772 25.3719 33.1431C26.5309 32.0919 26.8723 30.6364 26.3152 29.145C26.0367 28.4083 25.1473 27.5099 24.3926 27.2224C23.8086 27.0067 22.7125 26.9079 22.2184 27.0337ZM23.7008 28.8845C25.1473 29.4954 25.1473 31.5079 23.7008 32.1188C22.8383 32.4782 21.859 32.0829 21.4637 31.2204C20.8078 29.8009 22.2633 28.2915 23.7008 28.8845Z" fill="#FB8D00"></path></g><defs><clipPath id="clip0_508_2390"><rect width="46" height="46" fill="white"></rect></clipPath></defs></svg>