<svg xmlns="http://www.w3.org/2000/svg" width="46" height="46" viewBox="0 0 46 46" fill="none"><path d="M6.74645 0.189091C3.557 0.880888 1.03239 3.30667 0.250746 6.44222C-0.0277698 7.55628 -0.0277698 9.51487 0.25973 10.5571C1.05036 13.5039 3.29645 15.786 6.21637 16.6305C7.05192 16.8731 8.88473 16.9629 9.84606 16.8012C13.3679 16.2352 16.2339 13.3692 16.8 9.84729C16.9617 8.88597 16.8718 7.05315 16.6293 6.21761C15.7847 3.2887 13.4668 1.02464 10.5558 0.260965C9.4777 -0.0175495 7.83356 -0.0534878 6.74645 0.189091ZM10.2863 1.57269C11.589 1.93206 12.6582 2.5969 13.6824 3.68401C14.9043 4.98675 15.5422 6.61292 15.5422 8.43675C15.5422 9.91019 15.1918 11.1321 14.4461 12.291L14.1406 12.7582L13.907 12.291C13.4218 11.3117 12.5953 10.6469 11.5172 10.3774C11.041 10.2516 10.5019 10.2336 8.19293 10.2606L5.43473 10.2875L4.82379 10.575C4.07809 10.9254 3.3234 11.6262 3.04489 12.2192C2.92809 12.4707 2.80231 12.6684 2.76637 12.6684C2.64059 12.6684 1.97575 11.4375 1.76012 10.8086C1.1402 8.99378 1.23004 7.16995 2.02965 5.48987C3.01793 3.38753 4.80582 1.968 7.09684 1.47386C7.83356 1.32112 9.5316 1.37503 10.2863 1.57269ZM11.7507 11.8957C12.4605 12.291 12.9367 13.0188 12.9367 13.6926C12.9367 13.9801 12.8828 14.043 12.3886 14.3844C10.4211 15.7231 7.67184 15.9297 5.49762 14.9145C4.57223 14.4832 3.95231 14.034 3.95231 13.7825C3.95231 13.3153 4.32067 12.5875 4.73395 12.2192C5.40778 11.6262 5.61442 11.5992 8.62418 11.6172L11.2746 11.6352L11.7507 11.8957Z" fill="black"></path><path d="M7.87734 2.60559C6.925 2.76731 5.91875 3.53997 5.47852 4.44739C5.28086 4.83372 5.25391 5.02239 5.25391 5.83997C5.25391 6.64856 5.28086 6.84622 5.46953 7.21458C6.14336 8.57122 7.6168 9.35286 9.00039 9.07434C10.1414 8.84973 10.95 8.22981 11.4441 7.18762C11.6867 6.67551 11.7227 6.50481 11.7227 5.83997C11.7227 5.16614 11.6867 5.00442 11.4441 4.49231C10.959 3.48606 10.0875 2.80325 9.03633 2.61458C8.45234 2.50676 8.48828 2.50676 7.87734 2.60559ZM9.31484 4.10598C9.92578 4.3845 10.4199 5.16614 10.4199 5.83997C10.4199 6.64856 9.8 7.45715 9.00937 7.69075C8.46133 7.85247 8.05703 7.80754 7.54492 7.547C6.31406 6.91809 6.19727 5.08528 7.33828 4.27669C7.94922 3.85442 8.64102 3.79153 9.31484 4.10598Z" fill="#FB8D00"></path><path d="M36.009 0.135187C32.8375 0.737141 30.2769 3.08206 29.3695 6.21761C29.1269 7.05315 29.0371 8.88597 29.1988 9.8473C29.7648 13.3782 32.6218 16.2352 36.1527 16.8012C37.114 16.9629 38.9468 16.8731 39.7824 16.6305C42.2172 15.9207 44.0949 14.3305 45.191 12.0125C45.3886 11.6082 45.6222 11.0063 45.7031 10.6649C45.8468 10.1168 45.8468 10.036 45.73 9.81136C45.5414 9.47894 45.155 9.35316 44.8496 9.52386C44.6609 9.63167 44.5531 9.85628 44.2925 10.602C44.005 11.4735 43.3851 12.6684 43.2234 12.6684C43.1875 12.6684 43.0886 12.5067 42.9988 12.309C42.7203 11.6801 41.9566 10.9434 41.2199 10.593L40.564 10.2875L37.8058 10.2606C35.4968 10.2336 34.9578 10.2516 34.4816 10.3774C33.4035 10.6469 32.5769 11.3117 32.0918 12.2821L31.8582 12.7492L31.5527 12.291C30.5554 10.8086 30.1781 8.57151 30.6363 6.77464C31.2652 4.268 33.2418 2.2555 35.7664 1.5637C36.6558 1.31214 38.4707 1.33011 39.3781 1.59964C42.0015 2.35433 43.9242 4.39378 44.5082 7.03519C44.634 7.6012 45.1461 7.79886 45.5953 7.43948C45.8199 7.2598 45.8379 7.20589 45.7929 6.79261C45.6941 5.83128 45.0293 4.33987 44.2476 3.33362C43.3222 2.12972 41.8937 1.05159 40.573 0.566437C39.1894 0.054327 37.3386 -0.116375 36.009 0.135187ZM40.3933 11.725C41.2289 11.9676 41.9027 12.7492 42.0105 13.5848L42.0644 13.9711L41.4894 14.3485C40.2675 15.166 39.0277 15.5434 37.5633 15.5434C36.0269 15.5434 34.5175 15.0762 33.4484 14.2856C33.125 14.052 33.0621 13.9532 33.0621 13.7016C33.0621 12.8571 33.7179 12.0575 34.6703 11.716C35.1644 11.5364 39.7914 11.5453 40.3933 11.725Z" fill="black"></path><path d="M37.0047 2.60558C35.9625 2.78527 34.9832 3.53995 34.534 4.51925C34.3184 4.98644 34.2824 5.19308 34.2734 5.83995C34.2734 6.5048 34.3094 6.6755 34.552 7.18761C35.7648 9.74816 39.2598 9.76613 40.5266 7.21456C40.7152 6.8462 40.7422 6.64855 40.7422 5.83995C40.7422 4.97745 40.7242 4.85167 40.4906 4.42042C39.7719 3.06378 38.4332 2.363 37.0047 2.60558ZM38.523 4.19581C38.7297 4.31261 39.0172 4.58214 39.152 4.7798C39.3586 5.10323 39.3945 5.238 39.3945 5.83995C39.3945 6.44191 39.3676 6.57667 39.143 6.90909C38.6848 7.60089 37.9211 7.90636 37.1035 7.72667C36.7082 7.63683 36.5195 7.52902 36.1961 7.19659C35.3605 6.37003 35.3695 5.29191 36.2051 4.47433C36.8789 3.82745 37.7055 3.71964 38.523 4.19581Z" fill="#FB8D00"></path><path d="M18.3454 7.96914C18.2376 8.05898 18.1298 8.23867 18.0939 8.37344C18.049 8.57109 18.0939 8.66992 18.3095 8.89453L18.579 9.16406H22.9994H27.4197L27.6892 8.89453C27.9048 8.66992 27.9497 8.57109 27.9048 8.37344C27.8689 8.23867 27.7611 8.05898 27.6533 7.96914C27.4826 7.82539 27.1322 7.81641 22.9994 7.81641C18.8665 7.81641 18.5161 7.82539 18.3454 7.96914Z" fill="black"></path><path d="M21.5156 14.7254C20.9945 14.95 20.7609 15.507 20.752 16.5043C20.752 16.9805 20.725 17.0793 20.5633 17.1691C20.3926 17.259 20.3117 17.2051 19.8176 16.7289C18.7754 15.6957 18.4789 15.7316 17.1402 17.0523C15.7477 18.427 15.6938 18.7504 16.682 19.7746C17.1941 20.3137 17.248 20.4035 17.1582 20.5652C17.0773 20.727 16.9785 20.7539 16.5023 20.7539C15.7027 20.7629 15.2805 20.8797 14.966 21.2031L14.6875 21.4727V23V24.5273L14.966 24.7969C15.2805 25.1203 15.7027 25.2371 16.5023 25.2461C16.9785 25.2461 17.0773 25.273 17.1672 25.4348C17.257 25.6055 17.2031 25.6863 16.727 26.1805C15.6938 27.2227 15.7297 27.5191 17.0504 28.8578C18.425 30.2504 18.7484 30.3043 19.7727 29.316C20.3117 28.8039 20.4016 28.75 20.5633 28.8398C20.725 28.9207 20.752 29.0195 20.752 29.4957C20.7609 30.2953 20.8777 30.7176 21.2012 31.032L21.4707 31.3105H22.998H24.5254L24.7949 31.032C25.1184 30.7176 25.2352 30.2953 25.2441 29.4957C25.2441 29.0195 25.2711 28.9207 25.4328 28.8398C25.5945 28.75 25.6844 28.8039 26.2145 29.316C26.8613 29.9359 27.2566 30.0887 27.7238 29.918C28.0742 29.7832 29.7184 28.157 29.8801 27.7797C30.1047 27.2766 29.9609 26.8992 29.3141 26.2164C28.802 25.6863 28.748 25.5965 28.8379 25.4348C28.9187 25.273 29.0176 25.2461 29.4937 25.2461C30.2934 25.2371 30.7156 25.1203 31.0301 24.7969L31.3086 24.5273V23V21.4727L31.0301 21.2031C30.7156 20.8797 30.2934 20.7629 29.4937 20.7539C29.0176 20.7539 28.9187 20.727 28.8379 20.5652C28.748 20.4035 28.802 20.3137 29.3141 19.7836C29.934 19.1367 30.0867 18.7414 29.916 18.2742C29.7723 17.8969 28.0473 16.1898 27.6969 16.073C27.2117 15.9113 26.8703 16.0551 26.2234 16.684C25.6844 17.1961 25.5945 17.25 25.4328 17.1602C25.2711 17.0793 25.2441 16.9805 25.2441 16.5043C25.2352 15.7047 25.1184 15.2824 24.8039 14.968L24.5254 14.6895L23.1059 14.6715C22.3332 14.6625 21.6145 14.6805 21.5156 14.7254ZM23.8965 16.7918C23.8965 17.5375 23.9145 17.6184 24.1391 17.8879C24.4266 18.2293 25.2082 18.5977 25.6574 18.5977C26.0797 18.5977 26.2773 18.4898 26.8613 17.9148L27.3645 17.4297L27.9664 18.0406L28.5684 18.6516L28.1102 19.0918C27.5621 19.6309 27.4004 19.9184 27.4004 20.3406C27.4004 20.7898 27.7688 21.5715 28.1102 21.859C28.3797 22.0836 28.4605 22.1016 29.2062 22.1016H30.0059V23V23.8984H29.2062C28.4605 23.8984 28.3797 23.9164 28.1102 24.141C27.7688 24.4285 27.4004 25.2102 27.4004 25.6594C27.4004 26.0816 27.5082 26.2793 28.0832 26.8633L28.5684 27.3664L27.9574 27.9684L27.3465 28.5703L26.9062 28.1121C26.3672 27.5641 26.0797 27.4023 25.6574 27.4023C25.2082 27.4023 24.4266 27.7707 24.1391 28.1121C23.9145 28.3816 23.8965 28.4625 23.8965 29.2082V30.0078H22.998H22.0996V29.2082C22.0996 28.4625 22.0816 28.3816 21.857 28.1121C21.5695 27.7707 20.7879 27.4023 20.3387 27.4023C19.9164 27.4023 19.6289 27.5641 19.0898 28.1121L18.6496 28.5703L18.0387 27.9684L17.4277 27.3664L17.9129 26.8633C18.4879 26.2793 18.5957 26.0816 18.5957 25.6594C18.5957 25.2102 18.2273 24.4285 17.8859 24.141C17.6164 23.9164 17.5355 23.8984 16.7898 23.8984H15.9902V23V22.1016H16.7898C17.5355 22.1016 17.6164 22.0836 17.8859 21.859C18.2273 21.5715 18.5957 20.7898 18.5957 20.3406C18.5957 19.9184 18.4879 19.7207 17.9129 19.1367L17.4277 18.6336L18.0387 18.0316L18.6496 17.4297L19.0898 17.8879C19.6289 18.4359 19.9164 18.5977 20.3387 18.5977C20.7879 18.5977 21.5695 18.2293 21.857 17.8879C22.0816 17.6184 22.0996 17.5375 22.0996 16.7918V15.9922H22.998H23.8965V16.7918Z" fill="#FB8D00"></path><path d="M22.1535 19.4961C21.5875 19.6398 20.7789 20.125 20.3836 20.5473C20.1859 20.7629 19.8895 21.2121 19.7367 21.5445C19.4762 22.0926 19.4492 22.2273 19.4492 23.009C19.4492 23.8176 19.4672 23.8984 19.7816 24.5453C20.1859 25.3629 20.707 25.866 21.5426 26.2613C22.0906 26.5219 22.2254 26.5488 22.998 26.5488C23.7707 26.5488 23.9055 26.5219 24.4535 26.2613C25.2891 25.866 25.8102 25.3629 26.2145 24.5453C26.5289 23.8984 26.5469 23.8176 26.5469 23C26.5469 22.1824 26.5289 22.1016 26.2145 21.4547C25.6035 20.2328 24.5254 19.5051 23.1957 19.4422C22.8184 19.4242 22.3512 19.4512 22.1535 19.4961ZM24.148 21.0863C25.5586 21.9578 25.5945 24.0063 24.202 24.8867C23.1328 25.5605 21.7492 25.2281 21.0664 24.132C20.8328 23.7367 20.7969 23.6109 20.7969 23.009C20.7969 22.425 20.8328 22.2633 21.0484 21.9039C21.5156 21.1043 22.2344 20.727 23.1598 20.7898C23.582 20.8168 23.8336 20.8887 24.148 21.0863Z" fill="#FB8D00"></path><path d="M8.20273 18.1486C8.09492 18.1935 7.96914 18.3103 7.91523 18.4091C7.85234 18.5259 7.81641 20.0533 7.81641 23.0271C7.81641 27.133 7.82539 27.4834 7.97812 27.6541C8.05898 27.7619 8.23867 27.8697 8.37344 27.9056C8.57109 27.9506 8.66992 27.9056 8.89453 27.69L9.16406 27.4205V23.0002V18.5798L8.90352 18.3193C8.625 18.0408 8.52617 18.0228 8.20273 18.1486Z" fill="black"></path><path d="M37.1055 18.3103L36.8359 18.5798V23.0002V27.4205L37.1055 27.69C37.3301 27.9056 37.4289 27.9506 37.6266 27.9056C37.7613 27.8697 37.941 27.7619 38.0309 27.6541C38.1746 27.4834 38.1836 27.133 38.1836 23.0002C38.1836 18.8673 38.1746 18.517 38.0309 18.3463C37.941 18.2384 37.7613 18.1306 37.6266 18.0947C37.4289 18.0498 37.3301 18.0947 37.1055 18.3103Z" fill="black"></path><path d="M35.8462 29.2446C33.3665 29.7747 31.2911 31.32 30.0962 33.5301C29.3235 34.9676 29.054 36.1985 29.1349 37.9774C29.2247 40.1426 29.9974 41.9305 31.5247 43.4758C33.7528 45.7399 37.0501 46.5485 40.1138 45.5782C43.7435 44.4282 46.1692 40.9243 45.9716 37.1059C45.7739 33.4672 43.3212 30.3946 39.7993 29.3704C38.9278 29.1278 36.7446 29.0469 35.8462 29.2446ZM39.2243 30.6372C39.6106 30.736 40.3204 31.0055 40.7876 31.2301C41.5153 31.5895 41.7579 31.7782 42.4946 32.5149C43.4829 33.5122 43.9052 34.177 44.3095 35.3989C44.57 36.1805 44.597 36.3512 44.597 37.4653C44.597 38.4715 44.57 38.804 44.3993 39.3879C44.1567 40.2415 43.2942 41.9395 43.1954 41.7688C43.1774 41.7508 43.0696 41.5262 42.9438 41.2836C42.6204 40.6457 41.9645 40.0168 41.2548 39.6844L40.6528 39.3969H37.5083H34.3638L33.7798 39.6844C33.097 40.0168 32.4591 40.6368 32.0907 41.3106L31.8302 41.7868L31.5517 41.3555C30.806 40.1965 30.4556 38.9747 30.4556 37.5641C30.4645 35.5247 31.1114 33.9254 32.522 32.5239C33.4923 31.5446 34.7142 30.8618 35.972 30.5922C36.8345 30.4036 38.3798 30.4215 39.2243 30.6372ZM40.527 40.8254C41.2638 41.086 41.8747 41.8407 42.0095 42.6493C42.0634 43.0086 42.0544 43.0266 41.677 43.3051C41.0841 43.7364 40.1587 44.1766 39.377 44.4012C38.829 44.554 38.4427 44.5989 37.5532 44.5989C35.945 44.6079 34.8489 44.2844 33.627 43.4579C33.1149 43.1165 33.061 43.0536 33.061 42.7661C33.061 42.3348 33.4204 41.5981 33.7888 41.2926C34.4716 40.7176 34.5435 40.6997 37.5083 40.7086C39.4669 40.7086 40.2935 40.7356 40.527 40.8254Z" fill="black"></path><path d="M36.7171 31.7238C35.5941 31.9844 34.6597 32.9367 34.3542 34.1406C33.9679 35.659 34.7226 37.2133 36.187 37.8961C36.6273 38.1027 36.8159 38.1387 37.5526 38.1387C38.3163 38.1387 38.4601 38.1117 38.9362 37.8781C39.6191 37.5457 40.1941 36.9707 40.4995 36.3148C40.7151 35.8656 40.7421 35.6949 40.7421 34.9043C40.7421 34.1766 40.7062 33.925 40.5444 33.5836C40.3198 33.0984 39.7179 32.4066 39.2507 32.1102C38.5679 31.6789 37.5526 31.5262 36.7171 31.7238ZM38.2534 33.1164C38.9812 33.4219 39.4394 34.1047 39.4394 34.8953C39.4394 35.5152 39.3495 35.7488 38.9452 36.198C38.0198 37.2133 36.4566 36.9977 35.8187 35.7578C35.603 35.3355 35.5671 35.1918 35.612 34.7785C35.7378 33.4758 37.0855 32.6223 38.2534 33.1164Z" fill="#FB8D00"></path><path d="M6.15348 29.3881C4.58121 29.8284 2.95504 30.9155 1.91286 32.2092C1.23903 33.0448 0.538246 34.4194 0.25973 35.4436C-0.0277698 36.4858 -0.0277698 38.4444 0.250746 39.5584C0.942543 42.3256 3.04489 44.6256 5.73121 45.542C10.3312 47.1143 15.2636 44.4908 16.6382 39.7381C16.8179 39.1272 16.8449 38.8397 16.8359 37.51C16.8359 36.1174 16.8089 35.9108 16.5933 35.192C15.7668 32.5057 13.7902 30.4303 11.2297 29.5408C10.4031 29.2533 9.99879 29.1905 9.75621 29.2983C9.54957 29.3971 9.34293 29.7205 9.34293 29.9631C9.34293 30.2237 9.75621 30.5201 10.3312 30.6729C12.0113 31.1131 13.5027 32.2362 14.491 33.7905C15.2007 34.9045 15.4523 35.767 15.5152 37.2405C15.5601 38.2467 15.5332 38.5252 15.3714 39.1631C15.1648 39.9987 14.8683 40.6994 14.4461 41.3553L14.1675 41.7866L13.907 41.3104C13.4129 40.403 12.6312 39.7741 11.6609 39.4866C11.2207 39.3608 10.7355 39.3428 8.24684 39.3698L5.34489 39.3967L4.74293 39.6842C4.03317 40.0166 3.37731 40.6455 3.05387 41.2834C2.92809 41.526 2.82028 41.7506 2.80231 41.7686C2.70348 41.9303 1.76012 40.0436 1.57145 39.3069C1.36481 38.4983 1.30192 37.2584 1.43668 36.4768C1.90387 33.6826 3.81754 31.5264 6.57575 30.6819C7.07887 30.5291 7.40231 30.3854 7.45621 30.2776C7.68082 29.8643 7.44723 29.3432 7.007 29.2533C6.88121 29.2264 6.50387 29.2893 6.15348 29.3881ZM11.6339 40.9151C11.8855 41.0319 12.191 41.2385 12.3257 41.3823C12.6492 41.7326 12.9367 42.3795 12.9367 42.7838C12.9367 43.0893 12.9007 43.1342 12.2988 43.5116C10.6816 44.5537 8.56129 44.8951 6.72848 44.428C6.0277 44.2483 4.85075 43.7002 4.32067 43.3049C3.94332 43.0264 3.93434 43.0084 3.98825 42.6491C4.06911 42.1369 4.45543 41.4631 4.83278 41.1756C5.41676 40.7264 5.59645 40.7084 8.48942 40.7084C11.1398 40.6994 11.1937 40.7084 11.6339 40.9151Z" fill="black"></path><path d="M7.58984 31.7418C6.94297 31.9574 6.51172 32.227 6.08047 32.6941C5.41562 33.4039 5.25391 33.8262 5.25391 34.9043C5.25391 35.6949 5.28086 35.8656 5.49648 36.3148C5.80195 36.9707 6.42188 37.5906 7.07773 37.8961C7.51797 38.1027 7.70664 38.1387 8.44336 38.1387C9.225 38.1387 9.35078 38.1117 9.89883 37.8422C11.9922 36.809 12.3785 33.9609 10.6176 32.4246C9.87187 31.7598 8.47031 31.4543 7.58984 31.7418ZM9.35078 33.2242C9.96172 33.5387 10.3211 34.0867 10.384 34.7785C10.4289 35.1918 10.393 35.3355 10.1773 35.7578C9.53945 36.9977 7.97617 37.2133 7.05078 36.198C6.64648 35.7488 6.55664 35.5152 6.55664 34.8953C6.55664 33.4219 8.03906 32.5414 9.35078 33.2242Z" fill="#FB8D00"></path><path d="M18.3095 37.1055C18.0939 37.3301 18.049 37.4289 18.0939 37.6266C18.1298 37.7613 18.2376 37.941 18.3454 38.0219C18.5161 38.1746 18.8665 38.1836 22.9994 38.1836C27.1322 38.1836 27.4826 38.1746 27.6533 38.0219C27.7611 37.941 27.8689 37.7613 27.9048 37.6266C27.9497 37.4289 27.9048 37.3301 27.6892 37.1055L27.4197 36.8359H22.9994H18.579L18.3095 37.1055Z" fill="black"></path></svg>