<svg xmlns="http://www.w3.org/2000/svg" width="38" height="38" viewBox="0 0 38 38" fill="none"><path d="M9.97015 4.2676C8.82718 4.57932 8.03304 5.41799 7.79554 6.56838C7.74359 6.82073 7.72875 11.1403 7.73617 19.8164L7.75843 32.6934L7.92914 33.1239C8.2557 33.9254 8.84203 34.5043 9.65843 34.8235C10.1557 35.0164 11.744 35.1055 12.0928 34.9571C12.5455 34.7715 12.5604 34.1035 12.1151 33.9254C12.0037 33.8883 11.5139 33.8438 11.0241 33.8289C10.0518 33.7992 9.8514 33.7324 9.43578 33.3168C9.3096 33.1907 9.14632 32.9828 9.0721 32.8492C8.95335 32.634 8.94593 31.7731 8.94593 19.5938C8.94593 7.41448 8.95335 6.55354 9.0721 6.3383C9.23539 6.03401 9.59906 5.67034 9.90335 5.50705C10.1186 5.3883 10.7494 5.38088 19.0026 5.38088C28.8514 5.38088 28.0424 5.33635 28.5694 5.87073C29.0889 6.38284 29.0518 6.05627 29.0963 11.3926C29.1186 14.0422 29.1631 16.2688 29.1928 16.343C29.2299 16.4098 29.3561 16.5063 29.4748 16.5508C29.7569 16.6696 30.0908 16.5434 30.2022 16.2614C30.2616 16.1203 30.2838 14.6879 30.269 11.2813L30.2467 6.49416L30.076 6.06369C29.7494 5.26213 29.178 4.69807 28.3467 4.35666L27.9459 4.19338L19.151 4.17854C11.744 4.1637 10.2967 4.17854 9.97015 4.2676Z" fill="white"></path><path d="M12.2016 7.80785C11.9047 7.94886 11.875 8.1641 11.875 10.0938C11.875 12.0532 11.9047 12.2387 12.2238 12.3871C12.4762 12.4985 18.3988 12.4985 18.6512 12.3871C18.9703 12.2387 19 12.0532 19 10.0938C19 8.13441 18.9703 7.94886 18.6512 7.80043C18.4137 7.6891 12.4242 7.69652 12.2016 7.80785ZM17.8125 10.0938V11.2813H15.4375H13.0625V10.0938V8.90629H15.4375H17.8125V10.0938Z" fill="white"></path><path d="M20.5078 11.3703C20.4187 11.4149 20.3074 11.5411 20.2554 11.6598C20.1441 11.9344 20.2703 12.2684 20.53 12.3871C20.7898 12.4985 26.1187 12.4985 26.3785 12.3871C26.6382 12.2684 26.7644 11.9344 26.6531 11.6598C26.6011 11.5485 26.475 11.4149 26.3785 11.3629C26.1336 11.2516 20.7453 11.259 20.5078 11.3703Z" fill="white"></path><path d="M5.21897 12.5801C4.08342 12.8918 3.28186 13.7305 3.04436 14.8809C2.9924 15.1332 2.97014 18.1465 2.98498 23.9727L3.00725 32.6934L3.17053 33.0942C3.51194 33.9254 4.09084 34.5117 4.87756 34.816C5.40451 35.0164 6.98537 35.1055 7.34162 34.9571C7.79436 34.7715 7.8092 34.1035 7.36389 33.9254C7.25256 33.8883 6.76272 33.8438 6.27287 33.8289C5.30061 33.7992 5.10022 33.7324 4.68459 33.3168C4.15022 32.7899 4.19475 33.5989 4.19475 23.75C4.19475 13.9012 4.15022 14.7102 4.68459 14.1832C5.04826 13.8196 5.32287 13.7082 5.976 13.6785C6.71076 13.6414 6.94084 13.5524 7.05217 13.2778C7.17092 13.0032 7.04475 12.6692 6.78498 12.5504C6.53264 12.4391 5.69397 12.4539 5.21897 12.5801Z" fill="white"></path><path d="M11.6015 13.7453C11.5125 13.7898 11.4011 13.916 11.3492 14.0348C11.2379 14.3094 11.364 14.6434 11.6238 14.7621C11.7574 14.8215 13.8132 14.8438 19.0011 14.8438C24.189 14.8438 26.2449 14.8215 26.3785 14.7621C26.7867 14.5691 26.7867 13.9309 26.3785 13.7379C26.1261 13.6266 11.839 13.6266 11.6015 13.7453Z" fill="white"></path><path d="M14.719 17.3301C13.576 17.6419 12.7819 18.4805 12.5444 19.6309C12.4924 19.8833 12.4701 22.1395 12.485 26.3477L12.5072 32.6934L12.678 33.1239C13.0119 33.9477 13.6651 34.5711 14.5037 34.8606C14.86 34.9868 15.4092 34.9942 23.7143 34.9942C33.4815 34.9942 32.8951 35.0239 33.6967 34.5044C34.194 34.1852 34.5799 33.7028 34.8248 33.1016L34.9955 32.6934V26.1622C34.9955 20.0688 34.9881 19.6086 34.8619 19.2524C34.5725 18.4137 33.949 17.7606 33.1252 17.4266L32.6948 17.2559L23.8998 17.2411C16.4928 17.2262 15.0455 17.2411 14.719 17.3301ZM32.8506 18.5696C33.1549 18.7329 33.5186 19.0965 33.6819 19.4008C33.8006 19.6086 33.808 20.1356 33.8303 25.9618C33.8451 30.4743 33.8229 32.3817 33.7635 32.6044C33.6522 33.0274 33.0287 33.6508 32.6057 33.7622C32.383 33.8215 29.8373 33.8438 23.5881 33.829C13.9248 33.8067 14.7115 33.8438 14.1846 33.3169C13.6576 32.7973 13.6947 33.2946 13.6725 26.3848C13.6576 22.9559 13.6725 20.0094 13.6947 19.8387C13.7467 19.4899 14.0362 19.0223 14.3553 18.77C14.8303 18.3989 14.5037 18.4137 23.8627 18.4286C31.9897 18.4434 32.6354 18.4508 32.8506 18.5696Z" fill="white"></path><path d="M24.6703 20.8703C24.3734 21.0114 24.3438 21.2266 24.3438 23.1563C24.3438 25.1157 24.3734 25.3012 24.6926 25.4496C24.9449 25.561 30.8676 25.561 31.1199 25.4496C31.4391 25.3012 31.4688 25.1157 31.4688 23.1563C31.4688 21.1969 31.4391 21.0114 31.1199 20.8629C30.8824 20.7516 24.893 20.759 24.6703 20.8703ZM30.2812 23.1563V24.3438H27.9062H25.5312V23.1563V21.9688H27.9062H30.2812V23.1563Z" fill="white"></path><path d="M16.3515 27.9953C16.2625 28.0399 16.1511 28.166 16.0992 28.2848C15.9879 28.5594 16.114 28.8934 16.3738 29.0121C16.6336 29.1309 23.7437 29.1309 24.0035 29.0121C24.4117 28.8192 24.4117 28.1809 24.0035 27.9879C23.7511 27.8766 16.589 27.884 16.3515 27.9953Z" fill="white"></path><path d="M16.3515 30.3703C16.2625 30.4149 16.1511 30.541 16.0992 30.6598C15.9879 30.9344 16.114 31.2684 16.3738 31.3871C16.6336 31.5059 23.7437 31.5059 24.0035 31.3871C24.4117 31.1942 24.4117 30.5559 24.0035 30.3629C23.7511 30.2516 16.589 30.259 16.3515 30.3703Z" fill="white"></path></svg>