<svg xmlns="http://www.w3.org/2000/svg" width="38" height="38" viewBox="0 0 38 38" fill="none"><path d="M1.99471 0.170704C1.3119 0.534374 1.16346 1.00195 1.20057 2.60508C1.22284 3.74063 1.23026 3.76289 1.44549 4.11172C1.66815 4.46055 1.84627 4.60899 2.24706 4.75L2.44745 4.82422V15.868C2.44745 26.4812 2.45487 26.9266 2.58104 27.0379C2.70721 27.1566 3.32323 27.1641 9.96581 27.1641H17.217V30.3777V33.584L16.9572 33.9477C16.5787 34.482 16.4525 34.9422 16.4896 35.6176C16.549 36.575 17.076 37.3617 17.9517 37.7699C18.3006 37.9332 18.4713 37.9629 18.9982 37.9629C19.5252 37.9629 19.6959 37.9332 20.0447 37.7699C20.9205 37.3617 21.4474 36.575 21.5068 35.6176C21.5439 34.957 21.4178 34.4746 21.0689 33.9996L20.8537 33.6953V30.4297V27.1641H28.0752C34.9849 27.1641 35.3115 27.1566 35.4228 27.0305C35.5416 26.9043 35.549 26.0211 35.549 15.8531V4.82422L35.7568 4.75C36.1502 4.60899 36.3283 4.46055 36.551 4.11172L36.7736 3.76289V2.41953C36.7736 1.16523 36.7588 1.05391 36.6029 0.764454C36.5139 0.58633 36.2986 0.356251 36.1279 0.244923L35.8162 0.0371094L19.0724 0.014843L2.32127 0L1.99471 0.170704ZM35.7791 1.03164C35.9053 1.1875 35.9201 1.33594 35.9201 2.41953C35.9201 3.53281 35.9053 3.65156 35.7717 3.78516C35.69 3.8668 35.549 3.94844 35.4599 3.9707C35.3635 3.99297 27.8822 4.00039 18.8275 3.99297L2.35838 3.9707L2.21737 3.79258C2.0912 3.63672 2.07635 3.48828 2.07635 2.43438C2.07635 1.20234 2.11346 1.00195 2.39549 0.890625C2.49198 0.853516 9.65409 0.831249 19.0947 0.838673L35.6381 0.853516L35.7791 1.03164ZM34.7326 15.5859V26.3477H18.9982H3.26385V15.5859V4.82422H18.9982H34.7326V15.5859ZM19.9631 30.1328V33.1016L19.7627 33.0125C19.6439 32.968 19.3025 32.9309 18.9982 32.9309C18.6939 32.9309 18.3525 32.968 18.2412 33.0125L18.0334 33.1016V30.1328V27.1641H18.9982H19.9631V30.1328ZM19.7256 33.9105C20.6162 34.3707 20.9428 35.343 20.5049 36.2262C19.8666 37.473 18.1299 37.473 17.499 36.2262C17.0463 35.343 17.3803 34.3707 18.2931 33.8957C18.6123 33.725 19.3767 33.7324 19.7256 33.9105Z" fill="white"></path><path d="M23.1338 6.88011C23.0374 6.99886 18.8143 14.2797 18.5174 14.8512C18.3616 15.1481 18.4284 15.4227 18.6733 15.5117C18.9776 15.6305 31.9807 15.6082 32.2108 15.4895C32.6042 15.2965 32.5448 15.1555 30.8749 12.261C30.0065 10.7617 29.2495 9.47776 29.1827 9.40354C29.0491 9.24768 28.7745 9.24026 28.626 9.3887C28.5667 9.44807 28.151 10.1309 27.7131 10.9028C27.2678 11.6746 26.8819 12.2832 26.8522 12.261C26.8299 12.2313 26.1323 11.0364 25.3085 9.61136C24.4846 8.17893 23.7573 6.95432 23.6979 6.88011C23.6311 6.81331 23.5049 6.75393 23.4159 6.75393C23.3268 6.75393 23.2006 6.81331 23.1338 6.88011ZM25.3678 11.3703C26.3995 13.159 27.2381 14.636 27.2381 14.6582C27.2381 14.6805 25.5163 14.6953 23.4159 14.6953C21.3155 14.6953 19.5936 14.6805 19.5936 14.6582C19.5936 14.5395 23.4159 8.02307 23.453 8.06761C23.4827 8.10471 24.3436 9.58909 25.3678 11.3703ZM30.0585 12.5059C30.6448 13.5227 31.1717 14.4356 31.2311 14.5246L31.335 14.6953H29.7913H28.2401L27.8096 13.9457C27.5499 13.5078 27.394 13.1516 27.4163 13.0848C27.446 13.018 27.6389 12.6617 27.8616 12.2907C28.0768 11.9196 28.396 11.3703 28.5667 11.0735C28.7448 10.7692 28.9081 10.5539 28.9377 10.591C28.9674 10.6207 29.4721 11.4817 30.0585 12.5059Z" fill="white"></path><path d="M5.65186 7.88203C5.50342 8.03047 5.54795 8.36445 5.72608 8.49063C5.87451 8.59453 6.36436 8.60938 9.62998 8.60938C12.0347 8.60938 13.4151 8.57969 13.5042 8.53516C13.7565 8.40156 13.8308 8.17891 13.6897 7.97109L13.5784 7.79297H9.65967C6.71318 7.79297 5.71865 7.81523 5.65186 7.88203Z" fill="white"></path><path d="M5.65413 10.8508C5.52053 10.9844 5.5428 11.3184 5.69866 11.452C5.82483 11.5633 6.20335 11.5781 9.65452 11.5781C11.7549 11.5781 13.5065 11.5484 13.551 11.5188C13.7291 11.4 13.7959 11.1625 13.7069 10.977L13.6104 10.7988L9.67678 10.7766C6.67835 10.7617 5.72092 10.784 5.65413 10.8508Z" fill="white"></path><path d="M5.65563 13.8195C5.52203 13.9531 5.55172 14.2871 5.70016 14.4207C5.82633 14.532 6.20485 14.5469 9.65602 14.5469C13.79 14.5469 13.7529 14.5543 13.7529 14.1535C13.7529 13.7156 13.9236 13.7305 9.65602 13.7305C6.70953 13.7305 5.72242 13.7527 5.65563 13.8195Z" fill="white"></path><path d="M28.1066 16.7586C27.9953 16.8847 27.9805 17.2484 27.9805 20.4918C27.9805 23.4828 27.9953 24.1136 28.0844 24.2398C28.1809 24.366 28.307 24.3808 29.3832 24.4031C30.5707 24.4254 30.5781 24.4254 30.7637 24.2398L30.9492 24.0543V20.4844C30.9492 17.0183 30.9418 16.9144 30.8008 16.7734C30.6672 16.6398 30.5559 16.625 29.4426 16.625C28.359 16.625 28.2105 16.6398 28.1066 16.7586ZM30.0586 20.4844V23.5273H29.4277H28.7969V20.4844V17.4414H29.4277H30.0586V20.4844Z" fill="white"></path><path d="M24.1359 18.3023L23.9727 18.4137V21.3008V24.1879L24.1359 24.2992C24.2695 24.3957 24.5293 24.418 25.4273 24.418C26.4293 24.418 26.5703 24.4031 26.7262 24.277L26.9043 24.1359V21.3008V18.4656L26.7262 18.3246C26.5703 18.1984 26.4293 18.1836 25.4273 18.1836C24.5293 18.1836 24.2695 18.2059 24.1359 18.3023ZM26.0508 21.2637V23.5273H25.4199H24.7891V21.2637V19H25.4199H26.0508V21.2637Z" fill="white"></path><path d="M5.65563 18.718C5.52203 18.8516 5.55172 19.1855 5.70016 19.3191C5.82633 19.4379 6.30875 19.4453 11.081 19.4453C15.742 19.4453 16.3283 19.4305 16.4322 19.3266C16.5732 19.193 16.588 18.8441 16.4619 18.718C16.3357 18.5918 5.7818 18.5918 5.65563 18.718Z" fill="white"></path><path d="M20.1866 19.8387L20.0011 19.9352L19.9788 22.043C19.964 24.1285 19.964 24.1582 20.1198 24.2844C20.2534 24.3957 20.439 24.418 21.4038 24.418C22.3019 24.418 22.5616 24.3957 22.6952 24.2992C22.8585 24.1879 22.8585 24.173 22.8585 22.0875C22.8585 20.2246 22.8437 19.9723 22.7323 19.8832C22.5616 19.7348 20.4464 19.6977 20.1866 19.8387ZM22.0421 22.0801V23.5273H21.4113H20.7804V22.0801V20.6328H21.4113H22.0421V22.0801Z" fill="white"></path><path d="M5.65245 21.6867C5.52628 21.8129 5.54112 22.1617 5.68214 22.2953C5.78605 22.3992 6.37237 22.4141 11.0556 22.4141C15.7388 22.4141 16.3251 22.3992 16.429 22.2953C16.57 22.1617 16.5849 21.8129 16.4587 21.6867C16.3325 21.5605 5.77862 21.5605 5.65245 21.6867Z" fill="white"></path></svg>