<svg xmlns="http://www.w3.org/2000/svg" width="38" height="38" viewBox="0 0 38 38" fill="none"><g clip-path="url(#clip0_677_1482)"><path d="M5.97591 0.0816231C3.33372 0.690216 1.21848 2.6199 0.424344 5.15818C-0.414328 7.83006 0.335281 10.7765 2.34661 12.6914C3.01458 13.3222 3.497 13.6637 4.32825 14.0719C4.75872 14.2871 4.89231 14.3836 4.8552 14.4726C4.83294 14.532 4.73645 14.8883 4.63997 15.2668C4.32083 16.4914 4.2095 17.4562 4.2095 18.9258C4.2095 20.4472 4.32083 21.3379 4.66966 22.6738C4.78841 23.1191 4.87747 23.4976 4.87747 23.4976C4.87005 23.5051 4.58059 23.6461 4.23177 23.8242C2.22786 24.8187 0.795438 26.6297 0.246219 28.8562C0.157156 29.2051 0.120047 29.6875 0.120047 30.4668C0.112625 31.4019 0.142313 31.684 0.29075 32.248C0.52825 33.1683 0.832547 33.8215 1.07747 33.9328C1.32981 34.0441 1.63411 33.9402 1.78255 33.6804C1.87903 33.4949 1.87903 33.4429 1.75286 33.1238C1.01067 31.209 1.01067 29.4945 1.77513 27.8691C2.62864 26.0433 4.06106 24.8484 6.02044 24.3363C7.23763 24.0172 8.87044 24.1508 10.0505 24.6777C11.4755 25.3086 12.7075 26.5406 13.331 27.9582C13.8134 29.0492 13.9767 30.7414 13.7021 31.8621C13.2345 33.8215 11.9728 35.3726 10.1544 36.2113C9.197 36.6566 8.66263 36.7679 7.49739 36.7679C6.68098 36.7679 6.38411 36.7383 5.90169 36.6047C5.10013 36.3746 4.22434 35.9367 3.60833 35.4394C3.022 34.9793 2.7177 34.9125 2.45052 35.1945C2.12395 35.5508 2.28723 35.8551 3.15559 36.5008C4.47669 37.4804 6.24309 38 7.93528 37.9035C10.622 37.7476 12.9673 36.189 14.1771 33.7695C14.3552 33.4207 14.4962 33.1312 14.5036 33.1238C14.5036 33.1164 14.8822 33.2129 15.3349 33.3242C17.6431 33.9179 20.4263 33.9328 22.69 33.3613C23.0833 33.2574 23.4618 33.1609 23.5286 33.1387C23.6325 33.109 23.6993 33.1906 23.8329 33.5246C24.3822 34.8902 25.8591 36.4117 27.3509 37.1613C31.4997 39.2543 36.6654 36.857 37.8232 32.3C38.0681 31.3351 38.0829 29.6504 37.8454 28.7226C37.2962 26.5703 35.9529 24.8707 33.9861 23.8613C33.6001 23.6683 33.281 23.4976 33.2736 23.4976C33.2661 23.4902 33.3329 23.1933 33.4368 22.8445C34.1122 20.3656 34.1048 17.3226 33.3997 14.8883C33.3181 14.6062 33.2587 14.3687 33.2736 14.3613C33.281 14.3539 33.5704 14.2055 33.9118 14.0347C35.8638 13.0699 37.2814 11.3183 37.8232 9.21053C38.0829 8.20857 38.0829 6.56092 37.8232 5.55154C37.1923 3.06522 35.3146 1.08358 32.806 0.252323C32.1974 0.0445137 32.1306 0.0370903 30.6165 0.0370903C29.1025 0.0370903 29.0431 0.0445137 28.4271 0.252323C26.8611 0.779278 25.6513 1.63279 24.6568 2.9242C24.3747 3.28787 23.7884 4.31951 23.6697 4.6535C23.6474 4.71287 23.395 4.66834 22.8236 4.5199C21.4876 4.17107 20.597 4.05975 19.0755 4.05975C17.606 4.05975 16.6411 4.17107 15.4165 4.49022C15.038 4.5867 14.6818 4.68319 14.6224 4.70545C14.5408 4.74256 14.4368 4.59412 14.2142 4.14139C13.2642 2.17459 11.4755 0.719902 9.32317 0.155842C8.83333 0.0296669 8.52161 -1.90735e-05 7.50481 0.00740433C6.82942 0.0148239 6.13919 0.0445137 5.97591 0.0816231ZM9.05599 1.22459C10.9708 1.72928 12.6036 3.13201 13.3533 4.93553C13.7095 5.78162 13.8283 6.39021 13.8283 7.34764C13.8283 8.73553 13.472 9.88592 12.6927 11.014C12.2845 11.6078 12.2251 11.9121 12.47 12.1347C12.663 12.3129 13.0193 12.3055 13.2197 12.1273C13.4794 11.8972 13.9544 11.1551 14.2587 10.5094C14.8228 9.29959 15.0677 7.9117 14.9267 6.66483C14.8822 6.26404 14.845 5.90779 14.845 5.87069C14.845 5.69998 16.656 5.31404 18.029 5.18787C19.5208 5.0617 21.4134 5.24725 22.9126 5.68514L23.3208 5.80389L23.2763 6.09334C22.8755 8.57967 23.7142 11.0883 25.4954 12.7582C27.1728 14.3242 29.3697 15.0293 31.7001 14.7472L32.19 14.6879L32.3533 15.2816C32.9915 17.6418 32.9915 20.1726 32.3458 22.5847L32.1974 23.1637L31.663 23.1043C28.8501 22.7926 26.2673 23.8762 24.6493 26.0508C23.8775 27.0824 23.4544 28.1437 23.254 29.5019C23.1501 30.1922 23.1427 30.4519 23.2169 31.1644C23.2615 31.632 23.2911 32.0254 23.2763 32.0402C23.2095 32.107 21.7325 32.441 21.0349 32.5449C20.0033 32.7008 18.1552 32.7008 17.1013 32.5449C16.3962 32.441 14.9415 32.107 14.8673 32.0328C14.8525 32.0179 14.8747 31.6543 14.9193 31.2312C15.1568 29.0344 14.37 26.8226 12.7743 25.2269C11.1193 23.5793 8.91497 22.8297 6.48059 23.1043L5.95364 23.1637L5.83489 22.7554C5.397 21.2637 5.21145 19.3711 5.33763 17.8719C5.4638 16.4394 5.84973 14.6953 6.03528 14.6953C6.08723 14.6953 6.42864 14.7324 6.79231 14.7769C8.03177 14.9179 9.63489 14.6285 10.763 14.0644C11.4533 13.7156 11.6165 13.3816 11.2677 13.0105C11.0525 12.7804 10.9115 12.7953 10.1322 13.1293C8.99661 13.6191 7.89075 13.7898 6.79231 13.6562C5.49348 13.5004 4.22434 12.914 3.26692 12.0383C1.41145 10.3461 0.736063 7.741 1.5302 5.35115C1.84934 4.39373 2.25755 3.75545 3.08138 2.93162C4.09817 1.91483 5.14466 1.35076 6.47317 1.12069C7.02981 1.01678 8.4845 1.07615 9.05599 1.22459ZM32.2345 1.25428C33.6521 1.62537 35.0103 2.59021 35.8415 3.8074C36.1904 4.31209 36.6283 5.29178 36.7841 5.90037C36.9771 6.66483 36.9622 8.1492 36.7544 8.94334C35.7376 12.7433 31.5665 14.7472 28.0115 13.1367C26.297 12.3648 24.9759 10.7914 24.4786 8.94334C24.2708 8.14178 24.256 6.6574 24.4564 5.90037C24.9685 3.91873 26.4009 2.24881 28.2193 1.50662C29.4068 1.0242 30.9876 0.920292 32.2345 1.25428ZM32.0118 24.3066C34.231 24.7594 36.131 26.6148 36.7544 28.9082C36.9993 29.8211 36.9771 31.2758 36.7099 32.159C35.7376 35.3801 32.6724 37.3023 29.4587 36.6937C27.0986 36.2484 25.2431 34.5414 24.5232 32.159C24.3525 31.5875 24.3228 31.3722 24.3228 30.5039C24.3228 29.3238 24.4712 28.6633 24.9314 27.7207C26.245 25.0562 29.0505 23.7054 32.0118 24.3066Z" fill="white"></path><path d="M8.03047 4.12656C7.55547 4.30469 7.01367 4.88359 6.85039 5.38828C6.72422 5.79648 6.7168 5.80391 6.4793 5.7668C6.04141 5.69258 5.4625 5.33633 4.91328 4.80938C4.4457 4.34922 4.35664 4.29727 4.17109 4.33437C3.7332 4.43828 3.4957 5.04688 3.43633 6.20469C3.37695 7.35508 3.6293 8.075 4.35664 8.83945L4.75742 9.25508L4.51992 9.30703C4.38633 9.3293 4.05234 9.37383 3.77031 9.40352C3.19883 9.45547 3.04297 9.58164 3.04297 9.98984C3.04297 10.2719 3.18398 10.4055 3.74805 10.6578C4.47539 10.977 5.21758 11.1328 6.0043 11.1328C7.4293 11.1328 8.44609 10.7172 9.38867 9.76719C10.2941 8.8543 10.6949 7.99336 10.8359 6.62773C10.8953 6.1082 10.9473 5.88555 11.0883 5.67773C11.3555 5.28438 11.5855 4.62383 11.5336 4.40859C11.4742 4.19336 11.2367 4.00781 11.0066 4.00781C10.9102 4.00781 10.6727 4.09688 10.4797 4.2082L10.1234 4.40859L9.75234 4.23047C9.29219 4.00039 8.49805 3.95586 8.03047 4.12656ZM9.41094 5.34375C9.74492 5.58125 9.75976 5.64805 9.73008 6.41992C9.66328 8.08984 8.62422 9.44063 7.0582 9.90078C6.56094 10.0492 5.74453 10.0641 5.96719 9.92305C6.30117 9.72266 6.45703 9.50742 6.45703 9.25508C6.45703 8.96563 6.36055 8.86914 5.80391 8.57227C5.01719 8.14922 4.59414 7.48125 4.54219 6.57578L4.50508 5.98945L4.75742 6.175C5.15078 6.47188 5.60352 6.67969 6.21211 6.83555C7.4293 7.13984 7.86719 6.9543 7.86719 6.11562C7.86719 5.23984 8.69844 4.82422 9.41094 5.34375Z" fill="white"></path><path d="M22.7629 13.2851C22.6293 13.389 22.5625 13.5226 22.5477 13.7082C22.5254 13.9753 22.5105 13.9902 21.7016 14.4058C20.2691 15.1332 18.1168 15.8753 17.8793 15.7269C17.8199 15.6898 17.1074 15.6601 16.291 15.6601C14.6211 15.6601 14.4355 15.7046 14.1238 16.1722C13.9605 16.4171 13.9531 16.4765 13.9531 18.2132C13.9531 19.8683 13.968 20.0167 14.1016 20.2468C14.3168 20.5957 14.6582 20.7812 15.1184 20.7812C15.3262 20.7812 15.5191 20.8035 15.534 20.8332C15.5563 20.8703 15.6082 21.7238 15.6602 22.748C15.7344 24.3066 15.7641 24.6332 15.8754 24.789C16.0609 25.0488 16.484 25.0785 16.7066 24.8558C16.8848 24.6777 16.8848 24.7445 16.7215 21.7015L16.677 20.8035L17.4488 20.7664C18.1094 20.7292 18.3023 20.7515 18.8145 20.9C19.5566 21.1152 19.6754 21.1226 19.8758 20.9074C20.0762 20.6921 20.091 20.3285 19.9055 20.1578C19.7719 20.039 19.2004 19.8312 18.577 19.6679L18.2578 19.5863V18.2281V16.8773L18.9777 16.6695C19.95 16.3949 20.9816 16.0015 21.7609 15.6156C22.1172 15.4375 22.4438 15.289 22.4883 15.289C22.5402 15.289 22.5625 16.291 22.5625 18.2503V21.2191L22.0875 20.9964C21.5605 20.7515 21.3008 20.7589 21.1152 21.0261C20.8332 21.4269 21.0262 21.7089 21.8945 22.1617C22.5254 22.4957 22.5625 22.5253 22.5625 22.7554C22.5625 23.2304 23.0895 23.4679 23.4605 23.1636L23.6387 23.0226L23.6609 18.3914C23.6684 15.8531 23.6609 13.6933 23.6387 13.5968C23.5793 13.3593 23.3344 13.1367 23.1266 13.1367C23.0301 13.1367 22.8668 13.2035 22.7629 13.2851ZM17.1445 18.2207V19.6679H16.1055H15.0664V18.2207V16.7734H16.1055H17.1445V18.2207Z" fill="white"></path><path d="M31.0931 3.14688C30.5142 3.30274 30.0243 3.74063 29.7572 4.33438C29.631 4.63125 29.5865 4.89102 29.5568 5.69258L29.5197 6.67969H29.0818C28.6884 6.67969 28.6142 6.70196 28.4138 6.90235C28.2357 7.08789 28.1986 7.16953 28.2357 7.33281C28.3173 7.67422 28.54 7.79297 29.0595 7.79297H29.5345L29.5568 9.5668C29.579 11.1848 29.5939 11.3555 29.72 11.4965C29.8982 11.6969 30.3583 11.7117 30.529 11.5188C30.6329 11.4 30.6552 11.1328 30.67 9.60391L30.6923 7.83008L31.2638 7.79297C31.9169 7.74844 32.0728 7.65196 32.0802 7.27344C32.0876 7.08789 32.0357 6.97656 31.8872 6.85039C31.7165 6.70938 31.6052 6.67969 31.1599 6.67969H30.6404L30.67 5.75196C30.6923 4.97266 30.722 4.79453 30.8482 4.62383C31.0857 4.29727 31.4419 4.15625 32.0134 4.15625C32.2954 4.15625 32.5849 4.11914 32.6665 4.07461C33.0228 3.88906 32.9931 3.29531 32.6146 3.12461C32.3771 3.02071 31.531 3.02813 31.0931 3.14688Z" fill="white"></path><path d="M27.5742 26.6742C27.2922 26.7929 26.8172 27.3199 26.743 27.5871C26.7059 27.7058 26.6836 29.0269 26.6836 30.541V33.2871L26.8691 33.6211C27.077 33.9847 27.4109 34.2445 27.8266 34.3632C28.1828 34.4597 33.0516 34.4597 33.4078 34.3632C33.8234 34.2445 34.1574 33.9847 34.3652 33.6211L34.5508 33.2871V30.4668C34.5508 27.3793 34.5582 27.4535 34.0906 26.9859C33.6898 26.5777 33.6453 26.5703 30.6023 26.5703C28.4574 26.5777 27.7449 26.6 27.5742 26.6742ZM33.3633 27.8617C33.4672 28.0101 33.4746 28.3738 33.4598 30.5781C33.4375 32.9902 33.4301 33.1164 33.2965 33.2203C33.0813 33.3761 28.1531 33.3761 27.9379 33.2203C27.8043 33.1164 27.7969 32.9902 27.7746 30.5781C27.7598 28.3738 27.7672 28.0101 27.8711 27.8617L27.9824 27.6836H30.6172H33.252L33.3633 27.8617Z" fill="white"></path><path d="M30.0299 28.9082C29.1022 29.2347 28.6865 30.3554 29.1541 31.2535C29.7701 32.441 31.4623 32.441 32.0783 31.2535C32.7908 29.8879 31.4846 28.3886 30.0299 28.9082ZM30.9873 30.0957C31.5069 30.6078 30.7647 31.3574 30.2303 30.8601C30.1264 30.7636 30.0596 30.6152 30.0596 30.489C30.0596 30.2218 30.3565 29.9101 30.6162 29.9101C30.7201 29.9101 30.8908 29.9918 30.9873 30.0957Z" fill="white"></path><path d="M5.8707 27.5648C5.50703 27.7652 5.49961 27.8543 5.49219 30.3777C5.49219 32.8863 5.51445 33.0644 5.85586 33.25C6.23438 33.4504 6.46445 33.3539 8.53516 32.1664C9.7375 31.4762 10.5984 30.9344 10.6727 30.823C10.8211 30.5855 10.8285 30.207 10.6727 29.9769C10.502 29.7172 6.53867 27.4609 6.26406 27.4609C6.14531 27.4683 5.96719 27.5129 5.8707 27.5648ZM8.06758 29.6578C8.75781 30.0512 9.32188 30.3851 9.33672 30.3926C9.34414 30.4 8.80977 30.7191 8.14922 31.0976C7.48125 31.4836 6.86523 31.8398 6.77617 31.8992L6.60547 32.0031V30.4297C6.60547 29.0715 6.62031 28.8637 6.7168 28.9008C6.77617 28.923 7.38477 29.2644 8.06758 29.6578Z" fill="white"></path></g><defs><clipPath id="clip0_677_1482"><rect width="38" height="38" fill="white"></rect></clipPath></defs></svg>