<svg xmlns="http://www.w3.org/2000/svg" width="38" height="38" viewBox="0 0 38 38" fill="none"><path d="M5.44039 2.47887C4.02282 2.82027 2.82047 4.03004 2.48649 5.42535C2.39 5.84097 2.37516 7.57769 2.37516 19C2.37516 33.4355 2.35289 32.5746 2.83532 33.5023C3.19157 34.1703 3.92633 34.8753 4.60172 35.1945C4.90602 35.3429 5.33649 35.4988 5.55172 35.5433C5.82633 35.6027 9.8193 35.625 19.0224 35.625C33.3912 35.625 32.5451 35.6472 33.4877 35.1722C34.074 34.8753 34.8459 34.1109 35.165 33.5023C35.6474 32.5746 35.6252 33.4355 35.6252 19C35.6252 4.56441 35.6474 5.42535 35.165 4.49762C34.8459 3.88902 34.074 3.12457 33.4877 2.82769C32.5451 2.3527 33.406 2.37496 18.9631 2.38238C8.6318 2.3898 5.74469 2.40465 5.44039 2.47887ZM32.5822 4.16363C33.1759 4.43824 33.5099 4.7648 33.7845 5.32887L34.0295 5.82613V15.1777V24.5293H19.0002H3.97086V15.1777V5.82613L4.17867 5.38082C4.29 5.1359 4.49039 4.82418 4.62399 4.69058C4.89117 4.40855 5.42555 4.11168 5.84117 4.01519C6.00446 3.97808 11.7341 3.95582 19.1486 3.95582L32.174 3.97066L32.5822 4.16363ZM34.0517 29.1531L34.0295 32.1738L33.7845 32.6711C33.5099 33.2351 33.1759 33.5617 32.5822 33.8363L32.174 34.0293H19.0002H5.82633L5.32907 33.7843C4.765 33.5097 4.43844 33.1757 4.16383 32.582L3.97086 32.1738L3.9486 29.1457L3.92633 26.125H19.0002H34.074L34.0517 29.1531Z" fill="white"></path><path d="M6.68711 5.68516C6.39766 5.89297 6.30859 6.22695 6.30859 7.125C6.30859 8.29023 6.51641 8.68359 7.125 8.68359C7.73359 8.68359 7.94141 8.29023 7.94141 7.125C7.94141 5.95977 7.73359 5.56641 7.125 5.56641C6.97656 5.56641 6.78359 5.61836 6.68711 5.68516Z" fill="white"></path><path d="M30.4371 5.68516C30.1477 5.89297 30.0586 6.22695 30.0586 7.125C30.0586 8.29023 30.2664 8.68359 30.875 8.68359C31.4836 8.68359 31.6914 8.29023 31.6914 7.125C31.6914 5.95977 31.4836 5.56641 30.875 5.56641C30.7266 5.56641 30.5336 5.61836 30.4371 5.68516Z" fill="white"></path><path d="M14.5023 9.75234L14.25 10.0047V14.25V18.4953L14.5023 18.7477C14.6805 18.9258 14.8215 19 14.9848 19C15.1406 19 16.6027 18.3023 19.3711 16.9219C23.7426 14.7324 23.75 14.7324 23.75 14.25C23.75 13.7676 23.7426 13.7676 19.3711 11.5781C16.6027 10.1977 15.1406 9.5 14.9848 9.5C14.8215 9.5 14.6805 9.57422 14.5023 9.75234ZM18.5547 12.9141C19.9797 13.6266 21.1375 14.2277 21.1375 14.25C21.1375 14.2871 16.0832 16.8402 15.8902 16.907C15.8309 16.9293 15.8086 16.1723 15.8086 14.25C15.8086 12.3277 15.8309 11.5707 15.8902 11.593C15.9348 11.6078 17.1371 12.2016 18.5547 12.9141Z" fill="white"></path><path d="M6.68711 10.4352C6.39766 10.643 6.30859 10.977 6.30859 11.875C6.30859 13.0402 6.51641 13.4336 7.125 13.4336C7.73359 13.4336 7.94141 13.0402 7.94141 11.875C7.94141 10.7098 7.73359 10.3164 7.125 10.3164C6.97656 10.3164 6.78359 10.3684 6.68711 10.4352Z" fill="white"></path><path d="M30.4371 10.4352C30.1477 10.643 30.0586 10.977 30.0586 11.875C30.0586 13.0402 30.2664 13.4336 30.875 13.4336C31.4836 13.4336 31.6914 13.0402 31.6914 11.875C31.6914 10.7098 31.4836 10.3164 30.875 10.3164C30.7266 10.3164 30.5336 10.3684 30.4371 10.4352Z" fill="white"></path><path d="M6.68711 15.1852C6.39766 15.393 6.30859 15.727 6.30859 16.625C6.30859 17.7902 6.51641 18.1836 7.125 18.1836C7.73359 18.1836 7.94141 17.7902 7.94141 16.625C7.94141 15.4598 7.73359 15.0664 7.125 15.0664C6.97656 15.0664 6.78359 15.1184 6.68711 15.1852Z" fill="white"></path><path d="M30.4371 15.1852C30.1477 15.393 30.0586 15.727 30.0586 16.625C30.0586 17.7902 30.2664 18.1836 30.875 18.1836C31.4836 18.1836 31.6914 17.7902 31.6914 16.625C31.6914 15.4598 31.4836 15.0664 30.875 15.0664C30.7266 15.0664 30.5336 15.1184 30.4371 15.1852Z" fill="white"></path><path d="M6.68711 19.9352C6.39766 20.143 6.30859 20.477 6.30859 21.375C6.30859 22.5402 6.51641 22.9336 7.125 22.9336C7.73359 22.9336 7.94141 22.5402 7.94141 21.375C7.94141 20.2098 7.73359 19.8164 7.125 19.8164C6.97656 19.8164 6.78359 19.8684 6.68711 19.9352Z" fill="white"></path><path d="M30.4371 19.9352C30.1477 20.143 30.0586 20.477 30.0586 21.375C30.0586 22.5402 30.2664 22.9336 30.875 22.9336C31.4836 22.9336 31.6914 22.5402 31.6914 21.375C31.6914 20.2098 31.4836 19.8164 30.875 19.8164C30.7266 19.8164 30.5336 19.8684 30.4371 19.9352Z" fill="white"></path><path d="M11.5278 27.8023C11.2161 27.9582 11.0602 28.307 11.0602 28.8637V29.3164H8.95243C6.95595 29.3164 6.8372 29.3238 6.65907 29.4648C6.37704 29.6875 6.27314 30.0586 6.41415 30.3777C6.60712 30.8527 6.72587 30.875 9.01923 30.875H11.0602V31.2832C11.0602 32.0254 11.3497 32.4336 11.8767 32.4336C12.4036 32.4336 12.6931 32.0254 12.6931 31.2832V30.875H21.8591C32.0493 30.875 31.3739 30.9121 31.5892 30.3777C31.7302 30.0586 31.6263 29.6875 31.3442 29.4648C31.1587 29.3164 31.0622 29.3164 21.9259 29.3164H12.6931V28.8637C12.6931 28.2996 12.5372 27.9582 12.2106 27.8023C11.9063 27.6539 11.8247 27.6539 11.5278 27.8023Z" fill="white"></path></svg>