<svg xmlns="http://www.w3.org/2000/svg" width="38" height="38" viewBox="0 0 38 38" fill="none"><path d="M2.21719 4.20078C1.77187 4.33438 1.18555 4.86133 0.955469 5.32149L0.777344 5.67773V19V32.3223L0.955469 32.6785C1.19297 33.1609 1.77187 33.6656 2.24687 33.8066C2.57344 33.9031 4.60703 33.918 18.998 33.918C33.3891 33.918 35.4227 33.9031 35.7492 33.8066C36.2242 33.6656 36.8031 33.1609 37.0406 32.6785L37.2188 32.3223V19V5.67773L37.048 5.32891C36.8105 4.84649 36.2242 4.33438 35.7492 4.19336C35.2 4.03008 2.75156 4.03008 2.21719 4.20078ZM35.6008 5.36602C36.0387 5.60352 36.0684 5.75195 36.0684 7.57031V9.20312H18.998H1.92773V7.54805C1.92773 6.11563 1.94258 5.8707 2.05391 5.71484C2.22461 5.46992 2.36563 5.35859 2.63281 5.27695C2.76641 5.23242 9.3125 5.21016 19.1094 5.21758C34.4949 5.23242 35.3781 5.23984 35.6008 5.36602ZM36.0684 21.1895C36.0684 33.198 36.1055 32.3668 35.6008 32.634C35.3781 32.7602 34.5023 32.7676 18.998 32.7676C3.09297 32.7676 2.62539 32.7602 2.40273 32.6266C1.89062 32.3148 1.92773 33.25 1.92773 21.1969V10.3164H18.998H36.0684V21.1895Z" fill="white"></path><path d="M5.18452 6.56833C4.76889 6.79099 4.71694 7.49607 5.09546 7.79294C5.5853 8.17888 6.30522 7.82263 6.30522 7.19919C6.30522 6.60544 5.71889 6.27888 5.18452 6.56833Z" fill="white"></path><path d="M8.37593 6.56833C7.9603 6.79099 7.90835 7.49607 8.28686 7.79294C8.77671 8.17888 9.49663 7.82263 9.49663 7.19919C9.49663 6.60544 8.9103 6.27888 8.37593 6.56833Z" fill="white"></path><path d="M11.5673 6.56833C11.1517 6.79099 11.0998 7.49607 11.4783 7.79294C11.9681 8.17888 12.688 7.82263 12.688 7.19919C12.688 6.60544 12.1017 6.27888 11.5673 6.56833Z" fill="white"></path><path d="M17.6105 6.65742C17.2023 6.73906 17.0761 7.37734 17.4101 7.63711C17.6105 7.79297 17.6328 7.79297 25.4257 7.79297C30.9921 7.79297 33.2929 7.7707 33.4191 7.71133C33.5972 7.62969 33.7679 7.3625 33.7679 7.16211C33.7679 7.10273 33.6863 6.96172 33.5898 6.85039L33.4117 6.64258L25.589 6.63516C21.2918 6.62773 17.6996 6.64258 17.6105 6.65742Z" fill="white"></path><path d="M4.18947 12.5578C3.84806 12.7434 3.85548 12.6766 3.85548 16.536C3.85548 18.7848 3.88517 20.2469 3.9297 20.336C3.96681 20.4102 4.10783 20.5067 4.234 20.5512C4.56798 20.6699 33.4242 20.6699 33.7582 20.5512C33.8844 20.5067 34.0254 20.4102 34.0625 20.336C34.1442 20.1875 34.1664 13.0106 34.0922 12.8028C33.9586 12.4539 34.6192 12.4688 18.9813 12.4688C8.52384 12.4762 4.29337 12.4985 4.18947 12.5578ZM33.0235 16.5508V19.4453H18.9961H4.96876V16.5508V13.6563H18.9961H33.0235V16.5508Z" fill="white"></path><path d="M22.0539 22.5625C21.9648 22.5996 21.8535 22.7184 21.8164 22.8223C21.7719 22.941 21.7422 24.4254 21.7422 26.6C21.7422 30.118 21.7422 30.1922 21.898 30.3852L22.0465 30.5781H27.932H33.8176L33.9734 30.4074C34.1367 30.2367 34.1367 30.2293 34.1367 26.5406V22.852L33.9512 22.6738L33.773 22.4883L27.9988 22.4957C24.7184 22.4957 22.1504 22.5254 22.0539 22.5625ZM33.0086 26.548L33.0234 29.4648H27.9766H22.9297V26.5332V23.6016L27.9617 23.6164L32.9863 23.6387L33.0086 26.548Z" fill="white"></path><path d="M4.01914 23.1043C3.78906 23.3492 3.80391 23.698 4.04883 23.891C4.2418 24.0469 4.30859 24.0469 8.54648 24.0469H12.8437L13.0219 23.8613C13.1258 23.7648 13.2074 23.5941 13.2074 23.4902C13.2074 23.3863 13.1258 23.2156 13.0219 23.1191L12.8437 22.9336H8.50938H4.175L4.01914 23.1043Z" fill="white"></path><path d="M14.241 23.0746C14.1148 23.1711 14.0703 23.2898 14.0703 23.4902C14.0703 23.6906 14.1148 23.8094 14.241 23.9059C14.4043 24.0395 14.5824 24.0469 16.9574 24.0469C19.3324 24.0469 19.5105 24.0395 19.6738 23.9059C19.8 23.8094 19.8445 23.6906 19.8445 23.4902C19.8445 23.2898 19.8 23.1711 19.6738 23.0746C19.5105 22.941 19.3324 22.9336 16.9574 22.9336C14.5824 22.9336 14.4043 22.941 14.241 23.0746Z" fill="white"></path><path d="M4.04369 26.1621C3.81362 26.3848 3.80619 26.7039 4.00658 26.9266C4.15502 27.0898 4.19955 27.0898 6.22572 27.0898C8.09604 27.0898 8.29643 27.075 8.40033 26.9562C8.67494 26.652 8.60815 26.2141 8.25932 26.0582C8.14799 26.0063 7.4058 25.9766 6.15151 25.9766H4.22182L4.04369 26.1621Z" fill="white"></path><path d="M9.69118 26.1324C9.54274 26.2512 9.49821 26.3477 9.49821 26.5703C9.49821 27.1196 9.23102 27.0899 14.7009 27.0899C19.2431 27.0899 19.5771 27.0824 19.681 26.9563C19.9556 26.652 19.8888 26.2141 19.54 26.0582C19.4138 25.9989 17.9369 25.9766 14.6267 25.9766C9.94352 25.9766 9.88415 25.9766 9.69118 26.1324Z" fill="white"></path><path d="M4.1382 29.1383C3.7671 29.3387 3.78195 29.925 4.15304 30.1105C4.29406 30.1848 5.41476 30.207 9.03664 30.207H13.7421L13.9573 29.9918C14.2171 29.7246 14.232 29.5391 13.9945 29.2645L13.8163 29.0566L9.07375 29.0418C4.98429 29.027 4.3089 29.0418 4.1382 29.1383Z" fill="white"></path><path d="M15.6898 29.0938C15.4895 29.1754 15.2891 29.45 15.2891 29.6355C15.2891 29.7098 15.3855 29.873 15.5043 29.9918L15.7195 30.207H17.5898H19.4602L19.6754 29.9918C19.9352 29.7246 19.95 29.5391 19.7125 29.2645L19.5344 29.0566L17.6863 29.0418C16.677 29.0344 15.7715 29.0566 15.6898 29.0938Z" fill="white"></path></svg>