<svg xmlns="http://www.w3.org/2000/svg" width="38" height="38" viewBox="0 0 38 38" fill="none"><g clip-path="url(#clip0_677_1557)"><path d="M20.425 0.333954L20.1875 0.534344V9.08434V17.6418L20.3805 17.8199L20.5734 17.998L28.8934 18.0203C34.7344 18.0351 37.3023 18.0203 37.5027 17.9609C37.9703 17.8273 38.0297 17.6492 37.9777 16.5879C37.7477 12.0902 35.959 8.14177 32.723 5.00231C31.3574 3.68122 30.1254 2.80544 28.4555 1.97419C26.2883 0.898016 24.0914 0.326532 21.5605 0.178095L20.6699 0.126141L20.425 0.333954ZM22.9336 1.6402C26.1176 2.01872 29.3387 3.57731 31.7508 5.90036C34.623 8.6613 36.2781 12.1347 36.6344 16.1203L36.6789 16.6992H29.0641H21.4492V9.14372C21.4492 4.98747 21.4715 1.55856 21.5012 1.5363C21.5457 1.48434 21.7016 1.49177 22.9336 1.6402Z" fill="white"></path><path d="M16.6235 2.52338C10.2778 2.98354 4.64457 6.76128 1.85394 12.4242C1.22308 13.723 0.874257 14.6507 0.540272 15.9867C0.287929 16.9738 0.287929 17.0332 0.399257 17.2707C0.592225 17.6714 1.04496 17.7828 1.37152 17.4933C1.51996 17.3671 1.61644 17.1296 1.80941 16.3652C2.20277 14.8585 2.52191 14.005 3.16019 12.7582C5.11215 8.94331 8.62269 5.95971 12.6899 4.63862C14.1075 4.18589 15.5547 3.89643 16.7348 3.8519L17.1801 3.82964L17.2024 12.2164L17.2172 20.6105L17.4102 20.7886L17.6032 20.9667L25.9825 20.989L34.3692 21.0039L34.3246 21.5085C34.1243 23.7425 33.6047 25.6277 32.6547 27.5722C31.7864 29.346 30.7621 30.7562 29.3075 32.1812C27.4965 33.9402 25.5297 35.1425 23.1399 35.9589C22.0934 36.3152 21.8188 36.5007 21.8188 36.857C21.8188 37.1316 21.9375 37.3171 22.2047 37.4507C22.42 37.5621 22.4719 37.5621 22.9989 37.4062C23.8004 37.1687 24.9211 36.716 25.8266 36.2632C31.1704 33.5839 34.7922 28.4554 35.5493 22.4957C35.6012 22.1171 35.6457 21.4046 35.6532 20.9148C35.6606 20.0316 35.6606 20.0242 35.4528 19.846L35.245 19.6679H26.8582H18.4789V11.2886V2.9019L18.3082 2.70893C18.1004 2.46401 17.8332 2.43432 16.6235 2.52338Z" fill="white"></path><path d="M0.705078 18.8441C0.408203 19.0223 0.178125 19.2895 0.0816406 19.5418C0.0222656 19.6902 0 22.4141 0 28.2625C0 36.4637 0.00742187 36.7902 0.141016 37.0871C0.230078 37.2801 0.400781 37.473 0.601172 37.6066L0.912891 37.8145L2.62734 37.8367C3.8 37.8516 4.43828 37.8367 4.65352 37.7699C5.03945 37.666 5.44766 37.243 5.55898 36.8348C5.67031 36.4488 5.67031 20.0391 5.56641 19.6531C5.52187 19.4973 5.40312 19.2746 5.2918 19.1484C4.92812 18.718 4.86133 18.7031 2.80547 18.7031C1.10586 18.7031 0.905469 18.718 0.705078 18.8441ZM4.30469 28.2402V36.5156H2.82031H1.33594V28.2402V19.9648H2.82031H4.30469V28.2402Z" fill="white"></path><path d="M16.0826 23.7054C15.7263 23.839 15.5333 24.0097 15.3552 24.3586C15.2142 24.6332 15.2142 24.8632 15.229 30.823L15.2513 37.0128L15.4591 37.28C15.8451 37.7921 15.9415 37.8144 17.849 37.8367C19.6896 37.8664 19.9494 37.8293 20.3353 37.5101C20.8029 37.1093 20.7806 37.4878 20.7806 30.7265C20.7806 23.9652 20.8029 24.3437 20.3353 23.9503C20.2091 23.839 19.9865 23.7203 19.8306 23.6757C19.4076 23.5644 16.4314 23.5867 16.0826 23.7054ZM19.5189 30.7265V36.5156H18.0345H16.5501V30.7265V24.9375H18.0345H19.5189V30.7265Z" fill="white"></path><path d="M8.49695 27.3496C8.12585 27.4832 7.75476 27.8765 7.65085 28.2551C7.53953 28.6336 7.53953 36.4488 7.64343 36.8273C7.74734 37.1984 8.05164 37.5472 8.42273 37.7105C8.68249 37.8293 8.92742 37.8515 10.3895 37.8441C12.4899 37.8441 12.7497 37.7699 13.0688 37.0722C13.195 36.7976 13.2098 36.4933 13.2098 32.5449C13.2098 27.7355 13.2247 27.8914 12.6087 27.4832L12.2969 27.2754L10.5454 27.2605C9.16492 27.2457 8.72703 27.2605 8.49695 27.3496ZM11.8739 32.5449V36.5156H10.3895H8.90515V32.5449V28.5742H10.3895H11.8739V32.5449Z" fill="white"></path></g><defs><clipPath id="clip0_677_1557"><rect width="38" height="38" fill="white"></rect></clipPath></defs></svg>