<svg xmlns="http://www.w3.org/2000/svg" width="46" height="46" viewBox="0 0 46 46" fill="none"><g clip-path="url(#clip0_1163_807)"><path d="M6.51662 34.0662C7.91103 36.1164 9.59044 37.8296 11.5702 39.227C15.5481 42.0404 20.3442 43.2785 25.1955 42.7483C30.9907 42.1139 36.1485 38.988 39.5165 34.0662L39.7831 33.677L37.8892 33.6801H35.9952L35.8757 33.8241C35.5815 34.1857 34.9165 34.8814 34.5242 35.24C33.3934 36.2758 32.3729 37.0113 31.052 37.7346C30.7271 37.9154 29.9365 38.3046 29.8997 38.3046C29.8936 38.3046 30.0376 38.0533 30.2246 37.7468C30.6138 37.0971 31.2512 35.8345 31.5331 35.148C31.6986 34.7466 32.0878 33.723 32.0878 33.6893C32.0878 33.6831 31.3462 33.677 30.4391 33.677H28.7934L28.5972 34.1428C27.8403 35.9387 26.8964 37.4128 25.8605 38.4149C25.361 38.8991 24.9748 39.1841 24.4968 39.4201C23.464 39.9319 22.5691 39.9319 21.5363 39.4201C21.0583 39.1841 20.6721 38.8991 20.1695 38.4118C19.5045 37.7683 18.9559 37.042 18.3706 36.0368C18.0978 35.5648 17.5738 34.4953 17.3746 34.0049L17.2428 33.677H15.594C14.6869 33.677 13.9453 33.6831 13.9453 33.6862C13.9453 33.6923 14.0219 33.9068 14.1169 34.1673C14.5888 35.4606 15.1742 36.6895 15.8453 37.805C16.0108 38.0809 16.1395 38.3046 16.1334 38.3046C16.1273 38.3046 15.9495 38.2218 15.7381 38.1238C14.2885 37.4342 12.8022 36.429 11.5702 35.3043C11.2484 35.0101 10.5772 34.3144 10.2892 33.9773L10.0379 33.6801H8.14394L6.25 33.677L6.51662 34.0662Z" fill="black"></path><path d="M0.0527024 18.4363C0.0618962 18.4853 0.736113 21.2373 1.54824 24.5594L3.02539 30.5967H4.47495H5.92452L6.801 26.7291C7.28215 24.5992 7.68362 22.8585 7.69281 22.8585C7.702 22.8585 8.10347 24.5992 8.58461 26.7291L9.4611 30.5967H10.9107H12.3602L13.8496 24.5042C14.6679 21.1546 15.3452 18.4148 15.3544 18.4148C15.3636 18.4148 16.0408 21.1546 16.8591 24.5073L18.3485 30.5967H19.7981H21.2476L22.1241 26.7291C22.6053 24.5992 23.0067 22.8585 23.0159 22.8585C23.0251 22.8585 23.4266 24.5992 23.9077 26.7291L24.7842 30.5967H26.2338H27.6833L29.1728 24.5042C29.991 21.1546 30.6683 18.4148 30.6775 18.4148C30.6867 18.4148 31.364 21.1546 32.1822 24.5073L33.6716 30.5967H35.1212H36.5708L37.4472 26.7291C37.9284 24.5992 38.3298 22.8585 38.339 22.8585C38.3482 22.8585 38.7497 24.5992 39.2309 26.7291L40.1073 30.5967H41.5569H43.0065L44.4836 24.5594C45.2957 21.2373 45.97 18.4853 45.9792 18.4363L46.0006 18.3535H44.4714H42.9421L42.9268 18.4209C42.9176 18.4608 42.5897 20.1034 42.2005 22.077C41.8113 24.0476 41.4864 25.6657 41.4803 25.6718C41.4772 25.678 41.4619 25.6442 41.4527 25.5952C41.4129 25.4083 39.902 18.4884 39.8867 18.4209L39.8714 18.3535H38.339H36.8067L36.7914 18.4209C36.7761 18.4884 35.2652 25.4083 35.2254 25.5952C35.2162 25.6442 35.2039 25.678 35.1978 25.6718C35.1917 25.6657 34.8668 24.0476 34.4776 22.077C34.0884 20.1034 33.7605 18.4608 33.7513 18.4209L33.736 18.3535H30.6775H27.619L27.6037 18.4209C27.5945 18.4608 27.2666 20.1034 26.8774 22.077C26.4881 24.0476 26.1633 25.6657 26.1572 25.6718C26.1541 25.678 26.1388 25.6442 26.1296 25.5952C26.0897 25.4083 24.5789 18.4884 24.5636 18.4209L24.5482 18.3535H23.0159H21.4836L21.4683 18.4209C21.453 18.4884 19.9421 25.4083 19.9023 25.5952C19.8931 25.6442 19.8808 25.678 19.8747 25.6718C19.8686 25.6657 19.5437 24.0476 19.1545 22.077C18.7653 20.1034 18.4374 18.4608 18.4282 18.4209L18.4129 18.3535H15.3544H12.2959L12.2806 18.4209C12.2714 18.4608 11.9434 20.1034 11.5542 22.077C11.165 24.0476 10.8402 25.6657 10.834 25.6718C10.831 25.678 10.8157 25.6442 10.8065 25.5952C10.7666 25.4083 9.25577 18.4884 9.24044 18.4209L9.22512 18.3535H7.69281H6.1605L6.14517 18.4209C6.12985 18.4884 4.61899 25.4083 4.57915 25.5952C4.56996 25.6442 4.5577 25.678 4.55157 25.6718C4.54544 25.6657 4.22059 24.0476 3.83138 22.077C3.44218 20.1034 3.11426 18.4608 3.10507 18.4209L3.08974 18.3535H1.5605H0.03125L0.0527024 18.4363Z" fill="#FB8D00"></path><path d="M22.0981 3.04896C20.7803 3.13783 19.9498 3.24203 18.9722 3.44429C16.2845 3.99592 13.6704 5.14822 11.4179 6.76634C8.77618 8.66948 6.58804 11.2499 5.16606 14.1398C5.0067 14.4585 4.82282 14.8508 4.7554 15.0041L4.63281 15.2891H6.33061H8.02535L8.19391 14.9703C8.68425 14.0418 9.37685 13.0304 10.1461 12.0988C10.5567 11.6084 11.706 10.4592 12.1994 10.0486C12.9533 9.42031 13.7562 8.85642 14.5745 8.37834C15.0372 8.10865 16.119 7.55395 16.1435 7.57847C16.1497 7.5846 16.0731 7.71944 15.975 7.87574C14.7828 9.76968 13.7164 12.4727 13.1525 15.0194L13.0942 15.2891H14.6848H16.2723L16.306 15.1573C17.0476 12.249 18.1447 9.85548 19.4778 8.22511C20.0111 7.57541 20.4861 7.13103 21.0408 6.76328C21.8162 6.24842 22.5793 6.0339 23.3331 6.11664C25.319 6.34036 27.3539 8.59899 28.7637 12.1478C29.1038 12.9998 29.4563 14.1061 29.729 15.1573L29.7627 15.2891H31.3502H32.9407L32.8794 15.0194C32.3064 12.4328 31.2583 9.77887 30.06 7.87574C29.9619 7.71944 29.8853 7.5846 29.8914 7.57847C29.916 7.55395 30.9978 8.10865 31.4605 8.37834C32.7017 9.10465 33.7375 9.89839 34.7765 10.9158C36.0023 12.1172 36.9952 13.4196 37.7737 14.8539L38.0127 15.2891H39.7074H41.4022L41.2826 15.0163C39.4071 10.6952 35.9625 7.10345 31.7149 5.0379C29.4593 3.94383 27.2957 3.34316 24.7337 3.10412C24.2862 3.06121 22.4659 3.02444 22.0981 3.04896Z" fill="black"></path></g><defs><clipPath id="clip0_1163_807"><rect width="46" height="46" fill="white"></rect></clipPath></defs></svg>