<svg width="44" height="10" viewBox="0 0 44 10" fill="none" xmlns="http://www.w3.org/2000/svg">
<path d="M4.83463 1.73916C4.92601 1.45794 5.32386 1.45794 5.41523 1.73916L6.01583 3.58761C6.0567 3.71338 6.1739 3.79853 6.30614 3.79853H8.24971C8.54541 3.79853 8.66835 4.17691 8.42913 4.35072L6.85674 5.49312C6.74976 5.57085 6.70499 5.70863 6.74586 5.83439L7.34646 7.68285C7.43783 7.96407 7.11596 8.19792 6.87674 8.02412L5.30435 6.88171C5.19737 6.80398 5.0525 6.80398 4.94552 6.88171L3.37313 8.02412C3.13391 8.19792 2.81204 7.96407 2.90341 7.68285L3.50401 5.83439C3.54487 5.70863 3.50011 5.57085 3.39312 5.49312L1.82074 4.35072C1.58151 4.17691 1.70446 3.79853 2.00015 3.79853H3.94373C4.07597 3.79853 4.19317 3.71338 4.23403 3.58761L4.83463 1.73916Z" fill="white"/>
<path d="M13.3815 1.73916C13.4729 1.45794 13.8707 1.45794 13.9621 1.73916L14.5627 3.58761C14.6036 3.71338 14.7208 3.79853 14.853 3.79853H16.7966C17.0923 3.79853 17.2152 4.17691 16.976 4.35072L15.4036 5.49312C15.2966 5.57085 15.2519 5.70863 15.2927 5.83439L15.8933 7.68285C15.9847 7.96407 15.6628 8.19792 15.4236 8.02412L13.8512 6.88171C13.7442 6.80398 13.5994 6.80398 13.4924 6.88171L11.92 8.02412C11.6808 8.19792 11.3589 7.96407 11.4503 7.68285L12.0509 5.83439C12.0917 5.70863 12.047 5.57085 11.94 5.49312L10.3676 4.35072C10.1284 4.17691 10.2513 3.79853 10.547 3.79853H12.4906C12.6228 3.79853 12.74 3.71338 12.7809 3.58761L13.3815 1.73916Z" fill="white"/>
<path d="M21.9284 1.73916C22.0198 1.45794 22.4176 1.45794 22.509 1.73916L23.1096 3.58761C23.1504 3.71338 23.2676 3.79853 23.3999 3.79853H25.3435C25.6392 3.79853 25.7621 4.17691 25.5229 4.35072L23.9505 5.49312C23.8435 5.57085 23.7987 5.70863 23.8396 5.83439L24.4402 7.68285C24.5316 7.96407 24.2097 8.19792 23.9705 8.02412L22.3981 6.88171C22.2911 6.80398 22.1463 6.80398 22.0393 6.88171L20.4669 8.02412C20.2277 8.19792 19.9058 7.96407 19.9972 7.68285L20.5978 5.83439C20.6386 5.70863 20.5939 5.57085 20.4869 5.49312L18.9145 4.35072C18.6753 4.17691 18.7982 3.79853 19.0939 3.79853H21.0375C21.1697 3.79853 21.2869 3.71338 21.3278 3.58761L21.9284 1.73916Z" fill="white"/>
<path d="M30.4753 1.73916C30.5666 1.45794 30.9645 1.45794 31.0559 1.73916L31.6565 3.58761C31.6973 3.71338 31.8145 3.79853 31.9468 3.79853H33.8903C34.186 3.79853 34.309 4.17691 34.0698 4.35072L32.4974 5.49312C32.3904 5.57085 32.3456 5.70863 32.3865 5.83439L32.9871 7.68285C33.0785 7.96407 32.7566 8.19792 32.5174 8.02412L30.945 6.88171C30.838 6.80398 30.6931 6.80398 30.5861 6.88171L29.0138 8.02412C28.7745 8.19792 28.4527 7.96407 28.544 7.68285L29.1446 5.83439C29.1855 5.70863 29.1407 5.57085 29.0337 5.49312L27.4614 4.35072C27.2221 4.17691 27.3451 3.79853 27.6408 3.79853H29.5844C29.7166 3.79853 29.8338 3.71338 29.8747 3.58761L30.4753 1.73916Z" fill="white"/>
<path d="M39.0221 1.73916C39.1135 1.45794 39.5114 1.45794 39.6027 1.73916L40.2033 3.58761C40.2442 3.71338 40.3614 3.79853 40.4936 3.79853H42.4372C42.7329 3.79853 42.8559 4.17691 42.6166 4.35072L41.0442 5.49312C40.9373 5.57085 40.8925 5.70863 40.9334 5.83439L41.534 7.68285C41.6253 7.96407 41.3035 8.19792 41.0642 8.02412L39.4918 6.88171C39.3849 6.80398 39.24 6.80398 39.133 6.88171L37.5606 8.02412C37.3214 8.19792 36.9995 7.96407 37.0909 7.68285L37.6915 5.83439C37.7324 5.70863 37.6876 5.57085 37.5806 5.49312L36.0082 4.35072C35.769 4.17691 35.892 3.79853 36.1877 3.79853H38.1312C38.2635 3.79853 38.3807 3.71338 38.4215 3.58761L39.0221 1.73916Z" fill="white"/>
</svg>
